STARTFONT 2.1
COMMENT $Xorg: $
COMMENT ISO10646-1 extension by Markus Kuhn <mkuhn@acm.org>, 2001-03-20
COMMENT  (c) Copyright Bigelow & Holmes 1986, 1985. Lucida is a registered
COMMENT  trademark of Bigelow & Holmes. See LEGAL NOTICE file for terms 
COMMENT  of the license. 
FONT -B&H-LucidaBright-Medium-R-Normal--26-190-100-100-P-149-ISO10646-1
SIZE 19 100 100
FONTBOUNDINGBOX 43 39 -17 -10
STARTPROPERTIES 22
COMMENT Begin LogicalFontDescription
FONTNAME_REGISTRY ""
FOUNDRY "B&H"
FAMILY_NAME "LucidaBright"
WEIGHT_NAME "Medium"
SLANT "R"
SETWIDTH_NAME "Normal"
ADD_STYLE_NAME ""
PIXEL_SIZE 26
POINT_SIZE 190
RESOLUTION_X 100
RESOLUTION_Y 100
SPACING "P"
AVERAGE_WIDTH 149
CHARSET_REGISTRY "ISO10646"
CHARSET_ENCODING "1"
COMMENT END LogicalFontDescription
COPYRIGHT "Copyright Bigelow & Holmes 1986, 1985."
FONT_ASCENT 24
FONT_DESCENT 6
DEFAULT_CHAR 0
FACE_NAME "Lucida Bright"
X_HEIGHT 14
CAP_HEIGHT 19
ENDPROPERTIES
CHARS 756
STARTCHAR char0
ENCODING 0
SWIDTH 771 0
DWIDTH 20 0
BBX 17 19 1 0
BITMAP
AAAA80
000000
800080
000000
800080
000000
800080
000000
800080
000000
800080
000000
800080
000000
800080
000000
800080
000000
AAAA80
ENDCHAR
STARTCHAR space
ENCODING 32
SWIDTH 333 0
DWIDTH 8 0
BBX 1 1 0 0
BITMAP
00
ENDCHAR
STARTCHAR exclam
ENCODING 33
SWIDTH 265 0
DWIDTH 7 0
BBX 3 19 2 0
BITMAP
E0
E0
E0
E0
E0
E0
E0
E0
E0
40
40
40
40
40
00
00
E0
E0
E0
ENDCHAR
STARTCHAR quotedbl
ENCODING 34
SWIDTH 386 0
DWIDTH 10 0
BBX 7 6 2 13
BITMAP
EE
EE
EE
44
44
44
ENDCHAR
STARTCHAR numbersign
ENCODING 35
SWIDTH 608 0
DWIDTH 16 0
BBX 16 19 0 0
BITMAP
018C
0318
0318
0318
0338
7FFF
7FFF
0630
0630
0C60
0C60
FFFE
FFFE
1CE0
18C0
18C0
18C0
39C0
3180
ENDCHAR
STARTCHAR dollar
ENCODING 36
SWIDTH 608 0
DWIDTH 16 0
BBX 12 22 2 -2
BITMAP
0200
0FE0
3A70
7230
7230
7200
7200
7A00
3E00
1F00
0F80
03E0
03F0
02F0
0270
0270
C270
C260
E2C0
7F80
0200
0200
ENDCHAR
STARTCHAR percent
ENCODING 37
SWIDTH 675 0
DWIDTH 18 0
BBX 17 19 0 0
BITMAP
3C0380
660300
C30600
C30E00
C31C00
C33800
C33000
666000
3CE000
01DE00
03B300
036180
066180
0E6180
1C6180
386180
306180
603300
E01E00
ENDCHAR
STARTCHAR ampersand
ENCODING 38
SWIDTH 690 0
DWIDTH 18 0
BBX 18 19 0 0
BITMAP
03E000
077000
0E3800
0E3800
0E3800
0E3000
076000
034000
0F8000
33C7C0
63C300
E1E300
E0F300
E07200
F07C00
F03C00
7C3E00
3FEF80
0F87C0
ENDCHAR
STARTCHAR quotesingle
ENCODING 39
SWIDTH 241 0
DWIDTH 6 0
BBX 3 6 2 13
BITMAP
E0
E0
E0
40
40
40
ENDCHAR
STARTCHAR parenleft
ENCODING 40
SWIDTH 316 0
DWIDTH 8 0
BBX 6 23 1 -4
BITMAP
04
08
18
30
30
70
60
60
E0
E0
E0
E0
E0
E0
E0
60
60
70
30
30
18
08
04
ENDCHAR
STARTCHAR parenright
ENCODING 41
SWIDTH 316 0
DWIDTH 8 0
BBX 6 23 1 -4
BITMAP
80
40
60
30
30
38
18
18
1C
1C
1C
1C
1C
1C
1C
18
18
38
30
30
60
40
80
ENDCHAR
STARTCHAR asterisk
ENCODING 42
SWIDTH 470 0
DWIDTH 12 0
BBX 10 9 1 10
BITMAP
0C00
0C00
4C40
EDC0
3200
0E00
1A00
7300
2180
ENDCHAR
STARTCHAR plus
ENCODING 43
SWIDTH 608 0
DWIDTH 16 0
BBX 16 16 0 0
BITMAP
0180
0180
0180
0180
0180
0180
0180
FFFF
FFFF
0180
0180
0180
0180
0180
0180
0180
ENDCHAR
STARTCHAR comma
ENCODING 44
SWIDTH 265 0
DWIDTH 7 0
BBX 3 9 2 -5
BITMAP
E0
E0
E0
E0
60
60
60
40
C0
ENDCHAR
STARTCHAR hyphen
ENCODING 45
SWIDTH 325 0
DWIDTH 8 0
BBX 6 2 1 7
BITMAP
FC
FC
ENDCHAR
STARTCHAR period
ENCODING 46
SWIDTH 265 0
DWIDTH 7 0
BBX 3 3 2 0
BITMAP
E0
E0
E0
ENDCHAR
STARTCHAR slash
ENCODING 47
SWIDTH 512 0
DWIDTH 13 0
BBX 13 23 0 -4
BITMAP
0018
0038
0030
0070
0060
00E0
00C0
01C0
0180
0380
0300
0700
0600
0E00
0C00
1C00
1800
3800
3000
7000
6000
E000
C000
ENDCHAR
STARTCHAR zero
ENCODING 48
SWIDTH 608 0
DWIDTH 16 0
BBX 13 19 1 0
BITMAP
0F80
18C0
3060
7070
6030
E038
E038
E038
E038
E038
E038
E038
E038
E038
6030
7070
3060
18C0
0F80
ENDCHAR
STARTCHAR one
ENCODING 49
SWIDTH 608 0
DWIDTH 16 0
BBX 10 19 3 0
BITMAP
FE00
1E00
0E00
0E00
0E00
0E00
0E00
0E00
0E00
0E00
0E00
0E00
0E00
0E00
0E00
0E00
0E00
1E00
FFC0
ENDCHAR
STARTCHAR two
ENCODING 50
SWIDTH 608 0
DWIDTH 16 0
BBX 11 19 2 0
BITMAP
3F00
E1C0
C1C0
C0E0
C0E0
00E0
00E0
00C0
0180
0300
0600
0800
1000
2000
6000
4000
FFE0
FFE0
FFE0
ENDCHAR
STARTCHAR three
ENCODING 51
SWIDTH 608 0
DWIDTH 16 0
BBX 11 19 2 0
BITMAP
7F00
E1C0
C0E0
C0E0
00E0
00E0
00C0
0380
3E00
0300
01C0
00E0
00E0
00E0
00E0
C0E0
C1C0
E380
FF00
ENDCHAR
STARTCHAR four
ENCODING 52
SWIDTH 608 0
DWIDTH 16 0
BBX 15 19 0 0
BITMAP
0030
0070
00F0
0170
0370
0270
0470
0870
1870
3070
2070
4070
FFFE
FFFE
0070
0070
0070
00F8
03FE
ENDCHAR
STARTCHAR five
ENCODING 53
SWIDTH 608 0
DWIDTH 16 0
BBX 10 19 3 0
BITMAP
FFC0
FFC0
FFC0
8000
8000
8000
8000
8000
FC00
0F00
0380
01C0
01C0
01C0
01C0
C1C0
C380
E700
FC00
ENDCHAR
STARTCHAR six
ENCODING 54
SWIDTH 608 0
DWIDTH 16 0
BBX 13 19 1 0
BITMAP
07E0
1870
3030
7030
7000
6000
E000
E7C0
E860
F070
E038
E038
E038
E038
6038
7030
3070
18E0
0F80
ENDCHAR
STARTCHAR seven
ENCODING 55
SWIDTH 608 0
DWIDTH 16 0
BBX 12 19 3 0
BITMAP
FFF0
FFF0
FFF0
0020
0040
00C0
0080
0100
0300
0600
0600
0C00
1C00
1800
3800
3800
3000
7000
7000
ENDCHAR
STARTCHAR eight
ENCODING 56
SWIDTH 608 0
DWIDTH 16 0
BBX 13 19 1 0
BITMAP
0FC0
3870
3038
7038
7038
7038
7830
3E40
0F80
1FC0
33F0
60F0
E078
E038
E038
E038
7070
38E0
1F80
ENDCHAR
STARTCHAR nine
ENCODING 57
SWIDTH 608 0
DWIDTH 16 0
BBX 13 19 1 0
BITMAP
0F80
38C0
7060
6070
E030
E038
E038
E038
E038
7078
30B8
1F38
0038
0030
0070
6070
6060
70C0
3F00
ENDCHAR
STARTCHAR colon
ENCODING 58
SWIDTH 265 0
DWIDTH 7 0
BBX 3 14 2 0
BITMAP
E0
E0
E0
00
00
00
00
00
00
00
00
E0
E0
E0
ENDCHAR
STARTCHAR semicolon
ENCODING 59
SWIDTH 265 0
DWIDTH 7 0
BBX 3 19 2 -5
BITMAP
E0
E0
E0
00
00
00
00
00
00
00
00
00
E0
E0
60
60
60
60
C0
ENDCHAR
STARTCHAR less
ENCODING 60
SWIDTH 608 0
DWIDTH 16 0
BBX 16 16 1 0
BITMAP
0003
0007
001E
0078
01E0
0780
1E00
FC00
7C00
1E00
0780
01E0
0078
001E
0007
0003
ENDCHAR
STARTCHAR equal
ENCODING 61
SWIDTH 608 0
DWIDTH 16 0
BBX 15 7 0 4
BITMAP
FFFE
FFFE
0000
0000
0000
FFFE
FFFE
ENDCHAR
STARTCHAR greater
ENCODING 62
SWIDTH 608 0
DWIDTH 16 0
BBX 16 16 0 0
BITMAP
C000
E000
7800
1E00
0780
01E0
0078
003E
003F
0078
01E0
0780
1E00
7800
E000
C000
ENDCHAR
STARTCHAR question
ENCODING 63
SWIDTH 480 0
DWIDTH 12 0
BBX 10 19 1 0
BITMAP
7E00
E380
C1C0
C1C0
C1C0
01C0
0180
0300
0200
0400
0C00
1C00
1C00
1C00
0000
0000
1C00
1C00
1C00
ENDCHAR
STARTCHAR at
ENCODING 64
SWIDTH 873 0
DWIDTH 23 0
BBX 20 19 1 0
BITMAP
007E00
038180
0400C0
080060
107820
20FE10
418410
430410
830410
860C10
861830
863820
866C60
87CCC0
438700
600000
300000
1C0800
07F000
ENDCHAR
STARTCHAR A
ENCODING 65
SWIDTH 744 0
DWIDTH 19 0
BBX 19 19 0 0
BITMAP
004000
00E000
00E000
00F000
017000
017000
023800
023800
023C00
041C00
041C00
080E00
0FFE00
100F00
100700
100780
200380
6003C0
F80FE0
ENDCHAR
STARTCHAR B
ENCODING 66
SWIDTH 609 0
DWIDTH 16 0
BBX 13 19 1 0
BITMAP
FFC0
38E0
3870
3870
3870
3870
3860
38E0
3980
3FC0
39E0
3870
3838
3838
3838
3838
3878
38F0
FFE0
ENDCHAR
STARTCHAR C
ENCODING 67
SWIDTH 695 0
DWIDTH 18 0
BBX 15 19 1 0
BITMAP
03F8
0E1E
3806
3006
7006
6000
E000
E000
E000
E000
E000
E000
F000
7000
7800
3C00
1E02
0FFE
03F8
ENDCHAR
STARTCHAR D
ENCODING 68
SWIDTH 768 0
DWIDTH 20 0
BBX 18 19 1 0
BITMAP
FFF800
381E00
380700
380380
380380
380180
3801C0
3801C0
3801C0
3801C0
3801C0
3801C0
3801C0
380180
380380
380300
380600
3C1C00
FFF000
ENDCHAR
STARTCHAR E
ENCODING 69
SWIDTH 566 0
DWIDTH 15 0
BBX 14 19 0 0
BITMAP
FFF8
3818
3818
3800
3800
3800
3800
3820
3820
3FE0
3820
3820
3800
3800
3800
3800
380C
381C
FFFC
ENDCHAR
STARTCHAR F
ENCODING 70
SWIDTH 548 0
DWIDTH 14 0
BBX 12 19 1 0
BITMAP
FFF0
3830
3830
3800
3800
3800
3800
3840
3840
3FC0
3840
3840
3800
3800
3800
3800
3800
3800
FE00
ENDCHAR
STARTCHAR G
ENCODING 71
SWIDTH 732 0
DWIDTH 19 0
BBX 17 19 2 0
BITMAP
03F800
0E1E00
380600
300600
700600
700000
E00000
E00000
E00000
E00000
E00000
E03F80
E00E00
700E00
700E00
380E00
180E00
0E0E00
03FC00
ENDCHAR
STARTCHAR H
ENCODING 72
SWIDTH 771 0
DWIDTH 20 0
BBX 18 19 1 0
BITMAP
FE1FC0
380700
380700
380700
380700
380700
380700
380700
380700
3FFF00
380700
380700
380700
380700
380700
380700
380700
380700
FE1FC0
ENDCHAR
STARTCHAR I
ENCODING 73
SWIDTH 325 0
DWIDTH 8 0
BBX 7 19 1 0
BITMAP
FE
3C
38
38
38
38
38
38
38
38
38
38
38
38
38
38
38
38
FE
ENDCHAR
STARTCHAR J
ENCODING 74
SWIDTH 422 0
DWIDTH 11 0
BBX 10 23 0 -4
BITMAP
1FC0
0780
0700
0700
0700
0700
0700
0700
0700
0700
0700
0700
0700
0700
0700
0700
0700
0700
0700
C700
C600
CE00
F800
ENDCHAR
STARTCHAR K
ENCODING 75
SWIDTH 708 0
DWIDTH 18 0
BBX 18 19 0 0
BITMAP
FE1F00
380E00
380800
381000
382000
384000
388000
390000
3B0000
3F8000
3BC000
3BE000
39E000
38F000
387800
383C00
381E00
380F00
FE3FC0
ENDCHAR
STARTCHAR L
ENCODING 76
SWIDTH 557 0
DWIDTH 14 0
BBX 13 19 1 0
BITMAP
FE00
3800
3800
3800
3800
3800
3800
3800
3800
3800
3800
3800
3800
3800
3800
3818
3818
3838
FFF8
ENDCHAR
STARTCHAR M
ENCODING 77
SWIDTH 860 0
DWIDTH 22 0
BBX 21 19 1 0
BITMAP
FC00F8
3C00E0
3E01E0
3E01E0
3E02E0
3702E0
3702E0
3384E0
3384E0
33CCE0
31C8E0
31C8E0
31F0E0
30F0E0
30F0E0
3060E0
3060E0
3000E0
FC03F8
ENDCHAR
STARTCHAR N
ENCODING 78
SWIDTH 751 0
DWIDTH 20 0
BBX 18 19 1 0
BITMAP
F807C0
3C0100
3C0100
3E0100
3F0100
378100
338100
33C100
31E100
30F100
307100
307900
303D00
301F00
300F00
300F00
300700
300300
FC0300
ENDCHAR
STARTCHAR O
ENCODING 79
SWIDTH 777 0
DWIDTH 20 0
BBX 18 19 1 0
BITMAP
03F000
0E1C00
380700
300300
700380
700380
E001C0
E001C0
E001C0
E001C0
E001C0
E001C0
E001C0
700380
700380
300300
180700
0E1C00
03F000
ENDCHAR
STARTCHAR P
ENCODING 80
SWIDTH 573 0
DWIDTH 15 0
BBX 13 19 1 0
BITMAP
FFC0
3870
3830
3838
3838
3838
3838
3838
3870
38E0
3FC0
3800
3800
3800
3800
3800
3800
3C00
FF00
ENDCHAR
STARTCHAR Q
ENCODING 81
SWIDTH 778 0
DWIDTH 20 0
BBX 22 23 1 -4
BITMAP
03F000
0E1C00
380700
300300
700380
700380
E001C0
E001C0
E001C0
E001C0
E001C0
E001C0
E001C0
700380
700380
300300
180700
0E1E00
03F800
000C00
0007C0
0001FC
000070
ENDCHAR
STARTCHAR R
ENCODING 82
SWIDTH 679 0
DWIDTH 18 0
BBX 16 19 1 0
BITMAP
FFC0
3870
3830
3838
3838
3838
3838
3830
3860
38C0
3FC0
39C0
38E0
38F0
3870
3878
383C
383E
FE1F
ENDCHAR
STARTCHAR S
ENCODING 83
SWIDTH 542 0
DWIDTH 14 0
BBX 11 19 2 0
BITMAP
1F80
71C0
60C0
E0C0
E000
E000
F000
7C00
3E00
1F80
07C0
03C0
01E0
00E0
C0E0
C0E0
C0C0
E180
7F00
ENDCHAR
STARTCHAR T
ENCODING 84
SWIDTH 663 0
DWIDTH 17 0
BBX 17 19 0 0
BITMAP
FFFF80
C1C180
C1C180
01C000
01C000
01C000
01C000
01C000
01C000
01C000
01C000
01C000
01C000
01C000
01C000
01C000
01C000
03E000
0FF800
ENDCHAR
STARTCHAR U
ENCODING 85
SWIDTH 719 0
DWIDTH 19 0
BBX 18 19 0 0
BITMAP
FE0FC0
380300
380300
380300
380300
380300
380300
380300
380300
380300
380300
380300
380300
380300
380300
180200
1C0600
0E0C00
03F000
ENDCHAR
STARTCHAR V
ENCODING 86
SWIDTH 699 0
DWIDTH 18 0
BBX 18 19 0 0
BITMAP
FE07C0
780180
380100
380100
1C0200
1C0200
0E0600
0E0400
0F0400
070800
070800
038800
039000
03D000
01E000
01E000
00E000
00C000
00C000
ENDCHAR
STARTCHAR W
ENCODING 87
SWIDTH 925 0
DWIDTH 24 0
BBX 24 19 0 0
BITMAP
FE081F
781C04
381C04
381C08
381C08
1C2E08
1C2E08
1C2E10
1C4710
0E4710
0E4720
0EC7A0
0E83A0
0783A0
0783C0
0701C0
0301C0
030180
020080
ENDCHAR
STARTCHAR X
ENCODING 88
SWIDTH 657 0
DWIDTH 17 0
BBX 17 19 0 0
BITMAP
FF0F80
3C0200
1C0400
1E0C00
0E0800
0F1000
07A000
03A000
03C000
01E000
01E000
02F000
047000
0C3800
083C00
101C00
301E00
600F00
F83F80
ENDCHAR
STARTCHAR Y
ENCODING 89
SWIDTH 678 0
DWIDTH 18 0
BBX 18 19 0 0
BITMAP
FE07C0
780100
380200
1C0200
1E0400
0E0800
0F0800
079000
03A000
03E000
01C000
01C000
01C000
01C000
01C000
01C000
01C000
01C000
07F000
ENDCHAR
STARTCHAR Z
ENCODING 90
SWIDTH 633 0
DWIDTH 16 0
BBX 13 19 2 0
BITMAP
FFF8
E078
C0F0
C0E0
01E0
01C0
03C0
0380
0780
0700
0E00
0E00
1C00
3C00
3800
7800
7018
E018
FFF8
ENDCHAR
STARTCHAR bracketleft
ENCODING 91
SWIDTH 316 0
DWIDTH 8 0
BBX 6 23 2 -4
BITMAP
FC
E0
E0
E0
E0
E0
E0
E0
E0
E0
E0
E0
E0
E0
E0
E0
E0
E0
E0
E0
E0
E0
FC
ENDCHAR
STARTCHAR backslash
ENCODING 92
SWIDTH 512 0
DWIDTH 13 0
BBX 13 23 0 -4
BITMAP
C000
E000
6000
7000
3000
3800
1800
1C00
0C00
0E00
0600
0700
0300
0380
0180
01C0
00C0
00E0
0060
0070
0030
0038
0018
ENDCHAR
STARTCHAR bracketright
ENCODING 93
SWIDTH 316 0
DWIDTH 8 0
BBX 6 23 1 -4
BITMAP
FC
1C
1C
1C
1C
1C
1C
1C
1C
1C
1C
1C
1C
1C
1C
1C
1C
1C
1C
1C
1C
1C
FC
ENDCHAR
STARTCHAR asciicircum
ENCODING 94
SWIDTH 608 0
DWIDTH 16 0
BBX 15 17 0 3
BITMAP
0100
0100
0100
0380
0380
06C0
06C0
0C60
0C60
1830
1830
3838
3018
701C
600C
E00E
C006
ENDCHAR
STARTCHAR underscore
ENCODING 95
SWIDTH 500 0
DWIDTH 13 0
BBX 10 2 2 -2
BITMAP
FFC0
FFC0
ENDCHAR
STARTCHAR grave
ENCODING 96
SWIDTH 602 0
DWIDTH 16 0
BBX 6 4 4 15
BITMAP
E0
30
18
0C
ENDCHAR
STARTCHAR a
ENCODING 97
SWIDTH 543 0
DWIDTH 14 0
BBX 12 14 1 0
BITMAP
3F00
7380
61C0
01C0
01C0
1FC0
79C0
61C0
E1C0
E1C0
E1C0
F3C0
7ED0
3C70
ENDCHAR
STARTCHAR b
ENCODING 98
SWIDTH 611 0
DWIDTH 16 0
BBX 14 19 0 0
BITMAP
F800
3800
3800
3800
3800
39E0
3BF8
3E38
383C
381C
381C
381C
381C
381C
381C
3818
3C38
3BF0
31E0
ENDCHAR
STARTCHAR c
ENCODING 99
SWIDTH 509 0
DWIDTH 13 0
BBX 11 14 1 0
BITMAP
0FC0
38E0
7060
7060
E000
E000
E000
E000
E000
F000
7000
7820
3FE0
0FC0
ENDCHAR
STARTCHAR d
ENCODING 100
SWIDTH 642 0
DWIDTH 17 0
BBX 14 19 2 0
BITMAP
01F0
0070
0070
0070
0070
1E70
3F70
70F0
6070
E070
E070
E070
E070
E070
E070
F070
71F0
7F78
1C7C
ENDCHAR
STARTCHAR e
ENCODING 101
SWIDTH 530 0
DWIDTH 14 0
BBX 11 14 1 0
BITMAP
0F00
31C0
70C0
60E0
E0E0
FFE0
E000
E000
E000
F000
7000
7820
3FE0
0F80
ENDCHAR
STARTCHAR f
ENCODING 102
SWIDTH 404 0
DWIDTH 10 0
BBX 10 20 1 0
BITMAP
0F80
18C0
38C0
38C0
3800
3800
FF00
3800
3800
3800
3800
3800
3800
3800
3800
3800
3800
3800
3800
FE00
ENDCHAR
STARTCHAR g
ENCODING 103
SWIDTH 571 0
DWIDTH 15 0
BBX 13 19 1 -5
BITMAP
1FF8
3980
70C0
70E0
70E0
70E0
70E0
30C0
19C0
1F80
7000
7000
7FE0
1FF0
6070
E070
E070
70E0
3F80
ENDCHAR
STARTCHAR h
ENCODING 104
SWIDTH 633 0
DWIDTH 16 0
BBX 15 19 1 0
BITMAP
F800
3800
3800
3800
3800
38E0
3BF0
3E38
3838
3838
3838
3838
3838
3838
3838
3838
3838
3838
FEFE
ENDCHAR
STARTCHAR i
ENCODING 105
SWIDTH 307 0
DWIDTH 8 0
BBX 7 19 1 0
BITMAP
38
38
38
00
00
F8
38
38
38
38
38
38
38
38
38
38
38
38
FE
ENDCHAR
STARTCHAR j
ENCODING 106
SWIDTH 346 0
DWIDTH 9 0
BBX 7 24 0 -5
BITMAP
0E
0E
0E
00
00
1E
0E
0E
0E
0E
0E
0E
0E
0E
0E
0E
0E
0E
0E
0E
CE
CE
CC
F8
ENDCHAR
STARTCHAR k
ENCODING 107
SWIDTH 599 0
DWIDTH 16 0
BBX 15 19 1 0
BITMAP
F800
3800
3800
3800
3800
387C
3830
3860
38C0
3980
3B00
3F00
3B80
3BC0
39E0
38F0
3878
383C
FE3E
ENDCHAR
STARTCHAR l
ENCODING 108
SWIDTH 313 0
DWIDTH 8 0
BBX 7 19 1 0
BITMAP
F8
38
38
38
38
38
38
38
38
38
38
38
38
38
38
38
38
38
FE
ENDCHAR
STARTCHAR m
ENCODING 109
SWIDTH 946 0
DWIDTH 25 0
BBX 23 14 1 0
BITMAP
F9F1E0
7BF3F0
3E7E78
3C3C38
383838
383838
383838
383838
383838
383838
383838
383838
383838
FEFEFE
ENDCHAR
STARTCHAR n
ENCODING 110
SWIDTH 633 0
DWIDTH 16 0
BBX 15 14 1 0
BITMAP
F8E0
7BF0
3E38
3838
3838
3838
3838
3838
3838
3838
3838
3838
3838
FEFE
ENDCHAR
STARTCHAR o
ENCODING 111
SWIDTH 602 0
DWIDTH 16 0
BBX 13 14 1 0
BITMAP
0F80
38E0
7070
7070
E038
E038
E038
E038
E038
E038
7070
7070
38E0
0F80
ENDCHAR
STARTCHAR p
ENCODING 112
SWIDTH 642 0
DWIDTH 17 0
BBX 14 19 1 -5
BITMAP
F8E0
7BF8
3E38
383C
381C
381C
381C
381C
381C
381C
3818
3C38
3BF0
39E0
3800
3800
3800
3800
FE00
ENDCHAR
STARTCHAR q
ENCODING 113
SWIDTH 617 0
DWIDTH 16 0
BBX 14 19 2 -5
BITMAP
1E70
3F70
70F0
6070
E070
E070
E070
E070
E070
E070
F070
71F0
7F70
1C70
0070
0070
0070
0070
01FC
ENDCHAR
STARTCHAR r
ENCODING 114
SWIDTH 440 0
DWIDTH 11 0
BBX 10 14 1 0
BITMAP
F9C0
3BC0
3CC0
38C0
3800
3800
3800
3800
3800
3800
3800
3800
3C00
FF00
ENDCHAR
STARTCHAR s
ENCODING 115
SWIDTH 504 0
DWIDTH 13 0
BBX 10 14 2 0
BITMAP
3F00
7380
E180
E180
F000
F800
7F00
3F80
07C0
C1C0
C1C0
C1C0
E380
3F00
ENDCHAR
STARTCHAR t
ENCODING 116
SWIDTH 392 0
DWIDTH 10 0
BBX 9 18 1 0
BITMAP
1800
3800
3800
3800
FF80
3800
3800
3800
3800
3800
3800
3800
3800
3800
3800
3800
1C00
0F80
ENDCHAR
STARTCHAR u
ENCODING 117
SWIDTH 633 0
DWIDTH 16 0
BBX 15 14 0 0
BITMAP
F8F8
3838
3838
3838
3838
3838
3838
3838
3838
3838
3838
38F8
1FBC
0E3E
ENDCHAR
STARTCHAR v
ENCODING 118
SWIDTH 545 0
DWIDTH 14 0
BBX 14 14 0 0
BITMAP
FC3C
7008
7818
3810
3830
1C20
1C20
1E40
0E40
0F80
0780
0700
0300
0300
ENDCHAR
STARTCHAR w
ENCODING 119
SWIDTH 795 0
DWIDTH 21 0
BBX 21 14 0 0
BITMAP
FC30F8
703010
703830
387820
387C20
38DC40
1C9C40
1C8E40
1D0E80
0F0F80
0F0780
0E0700
060300
040200
ENDCHAR
STARTCHAR x
ENCODING 120
SWIDTH 557 0
DWIDTH 14 0
BBX 15 14 0 0
BITMAP
FC3E
7818
3C10
1E30
0E60
0F40
0780
03C0
05E0
08E0
18F0
3078
603C
F87E
ENDCHAR
STARTCHAR y
ENCODING 121
SWIDTH 551 0
DWIDTH 14 0
BBX 14 19 0 -5
BITMAP
FC3C
7008
7818
3810
3C10
1C20
1C20
0E40
0E40
0FC0
0780
0780
0300
0300
0200
0600
0C00
1C00
3C00
ENDCHAR
STARTCHAR z
ENCODING 122
SWIDTH 595 0
DWIDTH 15 0
BBX 12 14 2 0
BITMAP
FFF0
C0E0
C1E0
03C0
0380
0780
0F00
0E00
1E00
3C00
3800
7830
F030
FFF0
ENDCHAR
STARTCHAR braceleft
ENCODING 123
SWIDTH 343 0
DWIDTH 9 0
BBX 7 23 1 -4
BITMAP
0E
18
30
30
30
38
18
18
18
18
30
C0
30
18
18
18
38
38
30
30
30
18
0E
ENDCHAR
STARTCHAR bar
ENCODING 124
SWIDTH 241 0
DWIDTH 6 0
BBX 2 23 2 -4
BITMAP
C0
C0
C0
C0
C0
C0
C0
C0
C0
C0
C0
C0
C0
C0
C0
C0
C0
C0
C0
C0
C0
C0
C0
ENDCHAR
STARTCHAR braceright
ENCODING 125
SWIDTH 343 0
DWIDTH 9 0
BBX 7 23 1 -4
BITMAP
E0
30
18
18
18
38
38
30
30
30
18
06
18
30
30
30
30
38
18
18
18
30
E0
ENDCHAR
STARTCHAR asciitilde
ENCODING 126
SWIDTH 608 0
DWIDTH 16 0
BBX 15 6 0 5
BITMAP
3800
7E02
4702
83C6
80FC
8078
ENDCHAR
STARTCHAR space
ENCODING 160
SWIDTH 333 0
DWIDTH 8 0
BBX 1 1 0 0
BITMAP
00
ENDCHAR
STARTCHAR exclamdown
ENCODING 161
SWIDTH 265 0
DWIDTH 7 0
BBX 3 19 2 -5
BITMAP
E0
E0
E0
00
00
40
40
40
40
40
E0
E0
E0
E0
E0
E0
E0
E0
E0
ENDCHAR
STARTCHAR cent
ENCODING 162
SWIDTH 608 0
DWIDTH 16 0
BBX 11 19 2 0
BITMAP
0200
0200
0FE0
1AE0
3260
7260
E200
E200
E200
E200
E200
E200
6200
7200
3A00
1E20
0FC0
0200
0200
ENDCHAR
STARTCHAR sterling
ENCODING 163
SWIDTH 608 0
DWIDTH 16 0
BBX 11 19 3 0
BITMAP
03C0
0C60
0C60
1C60
1C00
1C00
1C00
1C00
1C00
FF00
1C00
1C00
1C00
1C00
1800
1000
2000
FFE0
FFE0
ENDCHAR
STARTCHAR currency
ENCODING 164
SWIDTH 608 0
DWIDTH 16 0
BBX 15 15 0 2
BITMAP
8002
4004
37C8
1FF0
1C70
3838
3018
3018
3018
3838
1C70
1FF0
27C8
4004
C006
ENDCHAR
STARTCHAR yen
ENCODING 165
SWIDTH 608 0
DWIDTH 16 0
BBX 17 19 0 0
BITMAP
FE0F80
780700
3C0E00
1E0C00
0E1800
0F3800
07F000
03E000
03E000
1FFC00
01C000
01C000
01C000
1FFC00
01C000
01C000
01C000
01C000
07F000
ENDCHAR
STARTCHAR brokenbar
ENCODING 166
SWIDTH 241 0
DWIDTH 6 0
BBX 2 23 2 -4
BITMAP
C0
C0
C0
C0
C0
C0
C0
C0
C0
C0
C0
00
C0
C0
C0
C0
C0
C0
C0
C0
C0
C0
C0
ENDCHAR
STARTCHAR section
ENCODING 167
SWIDTH 608 0
DWIDTH 16 0
BBX 11 24 2 -5
BITMAP
1F80
71C0
E0C0
E0C0
E000
E000
F000
3C00
3F00
6F80
E3C0
E1C0
E0C0
F8C0
7C80
3F80
1F80
03C0
01E0
00E0
C0E0
C0E0
E1C0
7F00
ENDCHAR
STARTCHAR dieresis
ENCODING 168
SWIDTH 602 0
DWIDTH 16 0
BBX 7 3 4 16
BITMAP
C6
C6
C6
ENDCHAR
STARTCHAR copyright
ENCODING 169
SWIDTH 855 0
DWIDTH 22 0
BBX 20 19 1 0
BITMAP
01F800
0E0700
180180
3000C0
60FC60
438420
C30430
860010
860010
860010
860010
860010
C30030
418420
60F860
3000C0
180180
0E0700
01F800
ENDCHAR
STARTCHAR ordfeminine
ENCODING 170
SWIDTH 428 0
DWIDTH 11 0
BBX 10 10 1 9
BITMAP
1E00
2700
2700
0700
3F00
7700
E700
E700
FFC0
7980
ENDCHAR
STARTCHAR guillemotleft
ENCODING 171
SWIDTH 530 0
DWIDTH 14 0
BBX 11 12 1 1
BITMAP
0420
0860
18C0
3180
6380
E700
E700
7380
3180
18C0
0C60
0420
ENDCHAR
STARTCHAR logicalnot
ENCODING 172
SWIDTH 608 0
DWIDTH 16 0
BBX 15 7 0 4
BITMAP
FFFE
FFFE
0006
0006
0006
0006
0006
ENDCHAR
STARTCHAR hyphen
ENCODING 173
SWIDTH 325 0
DWIDTH 8 0
BBX 6 2 1 7
BITMAP
FC
FC
ENDCHAR
STARTCHAR registered
ENCODING 174
SWIDTH 608 0
DWIDTH 16 0
BBX 11 12 2 7
BITMAP
1F00
2180
4040
DF40
8920
8920
8920
8E20
4A40
59C0
3180
1F00
ENDCHAR
STARTCHAR macron
ENCODING 175
SWIDTH 602 0
DWIDTH 16 0
BBX 7 2 4 17
BITMAP
FE
FE
ENDCHAR
STARTCHAR degree
ENCODING 176
SWIDTH 259 0
DWIDTH 7 0
BBX 4 4 1 15
BITMAP
60
90
90
60
ENDCHAR
STARTCHAR plusminus
ENCODING 177
SWIDTH 608 0
DWIDTH 16 0
BBX 16 16 0 0
BITMAP
0180
0180
0180
0180
0180
FFFF
FFFF
0180
0180
0180
0180
0180
0000
0000
FFFF
FFFF
ENDCHAR
STARTCHAR twosuperior
ENCODING 178
SWIDTH 365 0
DWIDTH 9 0
BBX 7 11 -16 8
BITMAP
78
86
82
02
06
0C
18
20
40
80
FE
ENDCHAR
STARTCHAR threesuperior
ENCODING 179
SWIDTH 365 0
DWIDTH 9 0
BBX 7 11 -16 8
BITMAP
FC
86
82
02
04
7C
06
02
82
C6
F8
ENDCHAR
STARTCHAR acute
ENCODING 180
SWIDTH 602 0
DWIDTH 16 0
BBX 6 4 5 15
BITMAP
1C
30
60
C0
ENDCHAR
STARTCHAR mu
ENCODING 181
SWIDTH 626 0
DWIDTH 16 0
BBX 15 18 0 -4
BITMAP
F8F8
3838
3838
3838
3838
3838
3838
3838
3838
3838
3838
38F8
3FBC
3F3E
3800
3800
3800
3800
ENDCHAR
STARTCHAR paragraph
ENCODING 182
SWIDTH 608 0
DWIDTH 16 0
BBX 11 23 1 -4
BITMAP
3FE0
7FE0
FE20
FE20
FE20
FE20
FE20
7E20
3E20
1E20
0220
0220
0220
0220
0220
0220
0220
0220
0220
0220
0220
0220
0220
ENDCHAR
STARTCHAR periodcentered
ENCODING 183
SWIDTH 608 0
DWIDTH 16 0
BBX 3 3 6 7
BITMAP
E0
E0
E0
ENDCHAR
STARTCHAR cedilla
ENCODING 184
SWIDTH 602 0
DWIDTH 16 0
BBX 4 6 6 -5
BITMAP
60
40
60
30
30
E0
ENDCHAR
STARTCHAR onesuperior
ENCODING 185
SWIDTH 365 0
DWIDTH 9 0
BBX 5 11 -17 8
BITMAP
E0
20
20
20
20
20
20
20
20
20
F8
ENDCHAR
STARTCHAR ordmasculine
ENCODING 186
SWIDTH 428 0
DWIDTH 11 0
BBX 9 10 1 9
BITMAP
3E00
7700
6300
E380
E380
E380
E380
6300
7700
3E00
ENDCHAR
STARTCHAR guillemotright
ENCODING 187
SWIDTH 530 0
DWIDTH 14 0
BBX 11 12 2 1
BITMAP
8400
C600
6300
3180
39C0
1CE0
1CE0
38C0
3180
6300
C200
8400
ENDCHAR
STARTCHAR onequarter
ENCODING 188
SWIDTH 766 0
DWIDTH 20 0
BBX 17 19 4 0
BITMAP
E00700
200600
200E00
201C00
203800
203000
207000
20E000
21C200
218600
FB8A00
071A00
0E1200
0C2200
1C4200
387F80
700200
600200
E00F80
ENDCHAR
STARTCHAR onehalf
ENCODING 189
SWIDTH 766 0
DWIDTH 20 0
BBX 17 19 4 0
BITMAP
E00700
200600
200E00
201C00
203800
203000
207000
20E000
21DE00
21A180
FBA080
070080
0E0180
0C0300
1C0600
380800
701000
602000
E03F80
ENDCHAR
STARTCHAR threequarters
ENCODING 190
SWIDTH 766 0
DWIDTH 20 0
BBX 18 19 5 0
BITMAP
FC0380
860300
820700
020E00
041C00
7C1800
063800
027000
82E100
C6C300
F9C500
038D00
070900
061100
0E2100
1C3FC0
380100
300100
7007C0
ENDCHAR
STARTCHAR questiondown
ENCODING 191
SWIDTH 480 0
DWIDTH 12 0
BBX 10 19 1 -5
BITMAP
0E00
0E00
0E00
0000
0000
0E00
0E00
0E00
0C00
0800
1000
3000
6000
E000
E0C0
E0C0
E0C0
71C0
1F80
ENDCHAR
STARTCHAR Agrave
ENCODING 192
SWIDTH 744 0
DWIDTH 19 0
BBX 19 24 0 0
BITMAP
038000
00C000
006000
003000
000000
004000
00E000
00E000
00F000
017000
017000
023800
023800
023C00
041C00
041C00
080E00
0FFE00
100F00
100700
100780
200380
6003C0
F80FE0
ENDCHAR
STARTCHAR Aacute
ENCODING 193
SWIDTH 744 0
DWIDTH 19 0
BBX 19 24 0 0
BITMAP
003800
006000
00C000
018000
000000
004000
00E000
00E000
00F000
017000
017000
023800
023800
023C00
041C00
041C00
080E00
0FFE00
100F00
100700
100780
200380
6003C0
F80FE0
ENDCHAR
STARTCHAR Acircumflex
ENCODING 194
SWIDTH 744 0
DWIDTH 19 0
BBX 19 24 0 0
BITMAP
01E000
01E000
033000
061800
000000
004000
00E000
00E000
00F000
017000
017000
023800
023800
023C00
041C00
041C00
080E00
0FFE00
100F00
100700
100780
200380
6003C0
F80FE0
ENDCHAR
STARTCHAR Atilde
ENCODING 195
SWIDTH 744 0
DWIDTH 19 0
BBX 19 23 0 0
BITMAP
01C400
01F800
023800
000000
004000
00E000
00E000
00F000
017000
017000
023800
023800
023C00
041C00
041C00
080E00
0FFE00
100F00
100700
100780
200380
6003C0
F80FE0
ENDCHAR
STARTCHAR Adieresis
ENCODING 196
SWIDTH 744 0
DWIDTH 19 0
BBX 19 23 0 0
BITMAP
031800
031800
031800
000000
004000
00E000
00E000
00F000
017000
017000
023800
023800
023C00
041C00
041C00
080E00
0FFE00
100F00
100700
100780
200380
6003C0
F80FE0
ENDCHAR
STARTCHAR Aring
ENCODING 197
SWIDTH 744 0
DWIDTH 19 0
BBX 19 24 0 0
BITMAP
006000
009000
009000
006000
000000
004000
00E000
00E000
00F000
017000
017000
023800
023800
023C00
041C00
041C00
080E00
0FFE00
100F00
100700
100780
200380
6003C0
F80FE0
ENDCHAR
STARTCHAR AE
ENCODING 198
SWIDTH 919 0
DWIDTH 24 0
BBX 23 19 0 0
BITMAP
001FFC
001C0C
003C0C
005C00
005C00
009C00
009C00
011C10
031C10
021FF0
061C10
041C00
0FFC00
181C00
101C00
301C00
201C06
601C06
F07FFE
ENDCHAR
STARTCHAR Ccedilla
ENCODING 199
SWIDTH 695 0
DWIDTH 18 0
BBX 15 24 1 -5
BITMAP
03F8
0E1E
3806
3006
7006
6000
E000
E000
E000
E000
E000
E000
F000
7000
7800
3C00
1E02
0FFE
03F8
0100
0180
00C0
00C0
0380
ENDCHAR
STARTCHAR Egrave
ENCODING 200
SWIDTH 566 0
DWIDTH 15 0
BBX 14 24 0 0
BITMAP
0E00
0300
0180
00C0
0000
FFF8
3818
3818
3800
3800
3800
3800
3820
3820
3FE0
3820
3820
3800
3800
3800
3800
380C
381C
FFFC
ENDCHAR
STARTCHAR Eacute
ENCODING 201
SWIDTH 566 0
DWIDTH 15 0
BBX 14 24 0 0
BITMAP
01C0
0300
0600
0C00
0000
FFF8
3818
3818
3800
3800
3800
3800
3820
3820
3FE0
3820
3820
3800
3800
3800
3800
380C
381C
FFFC
ENDCHAR
STARTCHAR Ecircumflex
ENCODING 202
SWIDTH 566 0
DWIDTH 15 0
BBX 14 24 0 0
BITMAP
0780
0780
0CC0
1860
0000
FFF8
3818
3818
3800
3800
3800
3800
3820
3820
3FE0
3820
3820
3800
3800
3800
3800
380C
381C
FFFC
ENDCHAR
STARTCHAR Edieresis
ENCODING 203
SWIDTH 566 0
DWIDTH 15 0
BBX 14 23 0 0
BITMAP
0C60
0C60
0C60
0000
FFF8
3818
3818
3800
3800
3800
3800
3820
3820
3FE0
3820
3820
3800
3800
3800
3800
380C
381C
FFFC
ENDCHAR
STARTCHAR Igrave
ENCODING 204
SWIDTH 325 0
DWIDTH 8 0
BBX 7 24 1 0
BITMAP
E0
30
18
0C
00
FE
3C
38
38
38
38
38
38
38
38
38
38
38
38
38
38
38
38
FE
ENDCHAR
STARTCHAR Iacute
ENCODING 205
SWIDTH 325 0
DWIDTH 8 0
BBX 7 24 1 0
BITMAP
0E
18
30
60
00
FE
3C
38
38
38
38
38
38
38
38
38
38
38
38
38
38
38
38
FE
ENDCHAR
STARTCHAR Icircumflex
ENCODING 206
SWIDTH 325 0
DWIDTH 8 0
BBX 8 24 2 0
BITMAP
3C
3C
66
C3
00
7F
1E
1C
1C
1C
1C
1C
1C
1C
1C
1C
1C
1C
1C
1C
1C
1C
1C
7F
ENDCHAR
STARTCHAR Idieresis
ENCODING 207
SWIDTH 325 0
DWIDTH 8 0
BBX 7 23 1 0
BITMAP
C6
C6
C6
00
FE
3C
38
38
38
38
38
38
38
38
38
38
38
38
38
38
38
38
FE
ENDCHAR
STARTCHAR Eth
ENCODING 208
SWIDTH 768 0
DWIDTH 20 0
BBX 19 19 0 0
BITMAP
FFF800
3C0F00
1C0380
1C01C0
1C01C0
1C00C0
1C00E0
1C00E0
1C00E0
FFC0E0
1C00E0
1C00E0
1C00E0
1C00C0
1C01C0
1C0180
1C0300
3E0E00
FFF800
ENDCHAR
STARTCHAR Ntilde
ENCODING 209
SWIDTH 751 0
DWIDTH 20 0
BBX 18 23 1 0
BITMAP
038800
03F000
047000
000000
F807C0
3C0100
3C0100
3E0100
3F0100
378100
338100
33C100
31E100
30F100
307100
307900
303D00
301F00
300F00
300F00
300700
300300
FC0300
ENDCHAR
STARTCHAR Ograve
ENCODING 210
SWIDTH 777 0
DWIDTH 20 0
BBX 18 24 1 0
BITMAP
038000
00C000
006000
003000
000000
03F000
0E1C00
380700
300300
700380
700380
E001C0
E001C0
E001C0
E001C0
E001C0
E001C0
E001C0
700380
700380
300300
180700
0E1C00
03F000
ENDCHAR
STARTCHAR Oacute
ENCODING 211
SWIDTH 777 0
DWIDTH 20 0
BBX 18 24 1 0
BITMAP
007000
00C000
018000
030000
000000
03F000
0E1C00
380700
300300
700380
700380
E001C0
E001C0
E001C0
E001C0
E001C0
E001C0
E001C0
700380
700380
300300
180700
0E1C00
03F000
ENDCHAR
STARTCHAR Ocircumflex
ENCODING 212
SWIDTH 777 0
DWIDTH 20 0
BBX 18 24 1 0
BITMAP
01E000
01E000
033000
061800
000000
03F000
0E1C00
380700
300300
700380
700380
E001C0
E001C0
E001C0
E001C0
E001C0
E001C0
E001C0
700380
700380
300300
180700
0E1C00
03F000
ENDCHAR
STARTCHAR Otilde
ENCODING 213
SWIDTH 777 0
DWIDTH 20 0
BBX 18 23 1 0
BITMAP
038800
03F000
047000
000000
03F000
0E1C00
380700
300300
700380
700380
E001C0
E001C0
E001C0
E001C0
E001C0
E001C0
E001C0
700380
700380
300300
180700
0E1C00
03F000
ENDCHAR
STARTCHAR Odieresis
ENCODING 214
SWIDTH 777 0
DWIDTH 20 0
BBX 18 23 1 0
BITMAP
063000
063000
063000
000000
03F000
0E1C00
380700
300300
700380
700380
E001C0
E001C0
E001C0
E001C0
E001C0
E001C0
E001C0
700380
700380
300300
180700
0E1C00
03F000
ENDCHAR
STARTCHAR multiply
ENCODING 215
SWIDTH 608 0
DWIDTH 16 0
BBX 15 16 0 0
BITMAP
4004
E00E
701C
3838
1C70
0C60
06C0
0380
0380
07C0
0EE0
1C70
3838
701C
E00E
C006
ENDCHAR
STARTCHAR Oslash
ENCODING 216
SWIDTH 777 0
DWIDTH 20 0
BBX 18 19 1 0
BITMAP
03F0C0
0E1C80
180700
300300
700780
700B80
E011C0
E031C0
E061C0
E0C1C0
E081C0
E101C0
E201C0
740380
780380
380300
380600
6E1C00
C3F000
ENDCHAR
STARTCHAR Ugrave
ENCODING 217
SWIDTH 719 0
DWIDTH 19 0
BBX 18 24 0 0
BITMAP
038000
00C000
006000
003000
000000
FE0FC0
380300
380300
380300
380300
380300
380300
380300
380300
380300
380300
380300
380300
380300
380300
180200
1C0600
0E0C00
03F000
ENDCHAR
STARTCHAR Uacute
ENCODING 218
SWIDTH 719 0
DWIDTH 19 0
BBX 18 24 0 0
BITMAP
007000
00C000
018000
030000
000000
FE0FC0
380300
380300
380300
380300
380300
380300
380300
380300
380300
380300
380300
380300
380300
380300
180200
1C0600
0E0C00
03F000
ENDCHAR
STARTCHAR Ucircumflex
ENCODING 219
SWIDTH 719 0
DWIDTH 19 0
BBX 18 24 0 0
BITMAP
01E000
01E000
033000
061800
000000
FE0FC0
380300
380300
380300
380300
380300
380300
380300
380300
380300
380300
380300
380300
380300
380300
180200
1C0600
0E0C00
03F000
ENDCHAR
STARTCHAR Udieresis
ENCODING 220
SWIDTH 719 0
DWIDTH 19 0
BBX 18 23 0 0
BITMAP
031800
031800
031800
000000
FE0FC0
380300
380300
380300
380300
380300
380300
380300
380300
380300
380300
380300
380300
380300
380300
180200
1C0600
0E0C00
03F000
ENDCHAR
STARTCHAR Yacute
ENCODING 221
SWIDTH 678 0
DWIDTH 18 0
BBX 18 24 0 0
BITMAP
007000
00C000
018000
030000
000000
FE07C0
780100
380200
1C0200
1E0400
0E0800
0F0800
079000
03A000
03E000
01C000
01C000
01C000
01C000
01C000
01C000
01C000
01C000
07F000
ENDCHAR
STARTCHAR Thorn
ENCODING 222
SWIDTH 573 0
DWIDTH 15 0
BBX 14 19 0 0
BITMAP
FE00
3800
3800
3800
3FE0
3878
383C
381C
381C
381C
381C
3838
3838
38F0
3FC0
3800
3800
3800
FE00
ENDCHAR
STARTCHAR germandbls
ENCODING 223
SWIDTH 614 0
DWIDTH 16 0
BBX 13 20 1 0
BITMAP
0F80
19C0
38E0
38E0
38E0
38C0
3980
3900
3B00
3B80
3BC0
39E0
39F0
38F0
3878
3818
3818
3B18
3B30
FBE0
ENDCHAR
STARTCHAR agrave
ENCODING 224
SWIDTH 543 0
DWIDTH 14 0
BBX 12 19 1 0
BITMAP
3800
0C00
0600
0300
0000
3F00
7380
61C0
01C0
01C0
1FC0
79C0
61C0
E1C0
E1C0
E1C0
F3C0
7ED0
3C70
ENDCHAR
STARTCHAR aacute
ENCODING 225
SWIDTH 543 0
DWIDTH 14 0
BBX 12 19 1 0
BITMAP
0380
0600
0C00
1800
0000
3F00
7380
61C0
01C0
01C0
1FC0
79C0
61C0
E1C0
E1C0
E1C0
F3C0
7ED0
3C70
ENDCHAR
STARTCHAR acircumflex
ENCODING 226
SWIDTH 543 0
DWIDTH 14 0
BBX 12 19 1 0
BITMAP
0F00
0F00
1980
30C0
0000
3F00
7380
61C0
01C0
01C0
1FC0
79C0
61C0
E1C0
E1C0
E1C0
F3C0
7ED0
3C70
ENDCHAR
STARTCHAR atilde
ENCODING 227
SWIDTH 543 0
DWIDTH 14 0
BBX 12 18 1 0
BITMAP
1C40
1F80
2380
0000
3F00
7380
61C0
01C0
01C0
1FC0
79C0
61C0
E1C0
E1C0
E1C0
F3C0
7ED0
3C70
ENDCHAR
STARTCHAR adieresis
ENCODING 228
SWIDTH 543 0
DWIDTH 14 0
BBX 12 18 1 0
BITMAP
3180
3180
3180
0000
3F00
7380
61C0
01C0
01C0
1FC0
79C0
61C0
E1C0
E1C0
E1C0
F3C0
7ED0
3C70
ENDCHAR
STARTCHAR aring
ENCODING 229
SWIDTH 543 0
DWIDTH 14 0
BBX 12 19 1 0
BITMAP
0600
0900
0900
0600
0000
3F00
7380
61C0
01C0
01C0
1FC0
79C0
61C0
E1C0
E1C0
E1C0
F3C0
7ED0
3C70
ENDCHAR
STARTCHAR ae
ENCODING 230
SWIDTH 819 0
DWIDTH 21 0
BBX 19 14 1 0
BITMAP
1F1F00
71F180
60F0C0
60E0C0
00E0E0
00E0E0
1FFFE0
78E000
E0E000
E0E000
E0F000
F1F000
7F3820
3C0FC0
ENDCHAR
STARTCHAR ccedilla
ENCODING 231
SWIDTH 509 0
DWIDTH 13 0
BBX 11 19 1 -5
BITMAP
0FC0
38E0
7060
7060
E000
E000
E000
E000
E000
F000
7000
7820
3FE0
0FC0
0400
0600
0300
0300
0E00
ENDCHAR
STARTCHAR egrave
ENCODING 232
SWIDTH 530 0
DWIDTH 14 0
BBX 11 19 1 0
BITMAP
3800
0C00
0600
0300
0000
0F00
31C0
70C0
60E0
E0E0
FFE0
E000
E000
E000
F000
7000
7820
3FE0
0F80
ENDCHAR
STARTCHAR eacute
ENCODING 233
SWIDTH 530 0
DWIDTH 14 0
BBX 11 19 1 0
BITMAP
0380
0600
0C00
1800
0000
0F00
31C0
70C0
60E0
E0E0
FFE0
E000
E000
E000
F000
7000
7820
3FE0
0F80
ENDCHAR
STARTCHAR ecircumflex
ENCODING 234
SWIDTH 530 0
DWIDTH 14 0
BBX 11 19 1 0
BITMAP
0F00
0F00
1980
30C0
0000
0F00
31C0
70C0
60E0
E0E0
FFE0
E000
E000
E000
F000
7000
7820
3FE0
0F80
ENDCHAR
STARTCHAR edieresis
ENCODING 235
SWIDTH 530 0
DWIDTH 14 0
BBX 11 18 1 0
BITMAP
3180
3180
3180
0000
0F00
31C0
70C0
60E0
E0E0
FFE0
E000
E000
E000
F000
7000
7820
3FE0
0F80
ENDCHAR
STARTCHAR igrave
ENCODING 236
SWIDTH 307 0
DWIDTH 8 0
BBX 7 19 1 0
BITMAP
E0
30
18
0C
00
F8
38
38
38
38
38
38
38
38
38
38
38
38
FE
ENDCHAR
STARTCHAR iacute
ENCODING 237
SWIDTH 307 0
DWIDTH 8 0
BBX 7 19 1 0
BITMAP
0E
18
30
60
00
F8
38
38
38
38
38
38
38
38
38
38
38
38
FE
ENDCHAR
STARTCHAR icircumflex
ENCODING 238
SWIDTH 307 0
DWIDTH 8 0
BBX 8 19 2 0
BITMAP
3C
3C
66
C3
00
7C
1C
1C
1C
1C
1C
1C
1C
1C
1C
1C
1C
1C
7F
ENDCHAR
STARTCHAR idieresis
ENCODING 239
SWIDTH 307 0
DWIDTH 8 0
BBX 7 18 1 0
BITMAP
C6
C6
C6
00
F8
38
38
38
38
38
38
38
38
38
38
38
38
FE
ENDCHAR
STARTCHAR eth
ENCODING 240
SWIDTH 596 0
DWIDTH 15 0
BBX 13 19 1 0
BITMAP
FF80
1E00
0E00
7380
21C0
0FE0
38E0
7070
7070
E038
E038
E038
E038
E038
E038
7070
7070
38E0
0F80
ENDCHAR
STARTCHAR ntilde
ENCODING 241
SWIDTH 633 0
DWIDTH 16 0
BBX 15 18 1 0
BITMAP
0E20
0FC0
11C0
0000
F8E0
7BF0
3E38
3838
3838
3838
3838
3838
3838
3838
3838
3838
3838
FEFE
ENDCHAR
STARTCHAR ograve
ENCODING 242
SWIDTH 602 0
DWIDTH 16 0
BBX 13 19 1 0
BITMAP
1C00
0600
0300
0180
0000
0F80
38E0
7070
7070
E038
E038
E038
E038
E038
E038
7070
7070
38E0
0F80
ENDCHAR
STARTCHAR oacute
ENCODING 243
SWIDTH 602 0
DWIDTH 16 0
BBX 13 19 1 0
BITMAP
01C0
0300
0600
0C00
0000
0F80
38E0
7070
7070
E038
E038
E038
E038
E038
E038
7070
7070
38E0
0F80
ENDCHAR
STARTCHAR ocircumflex
ENCODING 244
SWIDTH 602 0
DWIDTH 16 0
BBX 13 19 1 0
BITMAP
0F00
0F00
1980
30C0
0000
0F80
38E0
7070
7070
E038
E038
E038
E038
E038
E038
7070
7070
38E0
0F80
ENDCHAR
STARTCHAR otilde
ENCODING 245
SWIDTH 602 0
DWIDTH 16 0
BBX 13 18 1 0
BITMAP
1C40
1F80
2380
0000
0F80
38E0
7070
7070
E038
E038
E038
E038
E038
E038
7070
7070
38E0
0F80
ENDCHAR
STARTCHAR odieresis
ENCODING 246
SWIDTH 602 0
DWIDTH 16 0
BBX 13 18 1 0
BITMAP
18C0
18C0
18C0
0000
0F80
38E0
7070
7070
E038
E038
E038
E038
E038
E038
7070
7070
38E0
0F80
ENDCHAR
STARTCHAR divide
ENCODING 247
SWIDTH 608 0
DWIDTH 16 0
BBX 15 13 0 1
BITMAP
0380
0380
0380
0000
0000
0000
FFFE
FFFE
0000
0000
0380
0380
0380
ENDCHAR
STARTCHAR oslash
ENCODING 248
SWIDTH 602 0
DWIDTH 16 0
BBX 13 14 1 0
BITMAP
0F98
38D0
7060
7070
E0B8
E138
E338
E238
E438
E838
7870
3070
38E0
CF80
ENDCHAR
STARTCHAR ugrave
ENCODING 249
SWIDTH 633 0
DWIDTH 16 0
BBX 15 19 0 0
BITMAP
0E00
0300
0180
00C0
0000
F8F8
3838
3838
3838
3838
3838
3838
3838
3838
3838
3838
38F8
1FBC
0E3E
ENDCHAR
STARTCHAR uacute
ENCODING 250
SWIDTH 633 0
DWIDTH 16 0
BBX 15 19 0 0
BITMAP
00E0
0180
0300
0600
0000
F8F8
3838
3838
3838
3838
3838
3838
3838
3838
3838
3838
38F8
1FBC
0E3E
ENDCHAR
STARTCHAR ucircumflex
ENCODING 251
SWIDTH 633 0
DWIDTH 16 0
BBX 15 19 0 0
BITMAP
03C0
03C0
0660
0C30
0000
F8F8
3838
3838
3838
3838
3838
3838
3838
3838
3838
3838
38F8
1FBC
0E3E
ENDCHAR
STARTCHAR udieresis
ENCODING 252
SWIDTH 633 0
DWIDTH 16 0
BBX 15 18 0 0
BITMAP
0C60
0C60
0C60
0000
F8F8
3838
3838
3838
3838
3838
3838
3838
3838
3838
3838
38F8
1FBC
0E3E
ENDCHAR
STARTCHAR yacute
ENCODING 253
SWIDTH 551 0
DWIDTH 14 0
BBX 14 24 0 -5
BITMAP
01C0
0300
0600
0C00
0000
FC3C
7008
7818
3810
3C10
1C20
1C20
0E40
0E40
0FC0
0780
0780
0300
0300
0200
0600
0C00
1C00
3C00
ENDCHAR
STARTCHAR thorn
ENCODING 254
SWIDTH 642 0
DWIDTH 17 0
BBX 14 23 1 -5
BITMAP
F800
3800
3800
3800
38E0
3BF8
3E38
383C
381C
381C
381C
381C
381C
381C
3818
3C38
3BF0
39E0
3800
3800
3800
3800
FE00
ENDCHAR
STARTCHAR ydieresis
ENCODING 255
SWIDTH 551 0
DWIDTH 14 0
BBX 14 23 0 -5
BITMAP
18C0
18C0
18C0
0000
FC3C
7008
7818
3810
3C10
1C20
1C20
0E40
0E40
0FC0
0780
0780
0300
0300
0200
0600
0C00
1C00
3C00
ENDCHAR
STARTCHAR Amacron
ENCODING 256
SWIDTH 744 0
DWIDTH 19 0
BBX 19 22 0 0
BITMAP
03F800
03F800
000000
004000
00E000
00E000
00F000
017000
017000
023800
023800
023C00
041C00
041C00
080E00
0FFE00
100F00
100700
100780
200380
6003C0
F80FE0
ENDCHAR
STARTCHAR amacron
ENCODING 257
SWIDTH 543 0
DWIDTH 14 0
BBX 12 17 1 0
BITMAP
3F80
3F80
0000
3F00
7380
61C0
01C0
01C0
1FC0
79C0
61C0
E1C0
E1C0
E1C0
F3C0
7ED0
3C70
ENDCHAR
STARTCHAR Abreve
ENCODING 258
SWIDTH 744 0
DWIDTH 19 0
BBX 19 24 0 0
BITMAP
020400
030C00
01F800
00F000
000000
004000
00E000
00E000
00F000
017000
017000
023800
023800
023C00
041C00
041C00
080E00
0FFE00
100F00
100700
100780
200380
6003C0
F80FE0
ENDCHAR
STARTCHAR abreve
ENCODING 259
SWIDTH 543 0
DWIDTH 14 0
BBX 12 19 1 0
BITMAP
2040
30C0
1F80
0F00
0000
3F00
7380
61C0
01C0
01C0
1FC0
79C0
61C0
E1C0
E1C0
E1C0
F3C0
7ED0
3C70
ENDCHAR
STARTCHAR Aogonek
ENCODING 260
SWIDTH 744 0
DWIDTH 19 0
BBX 19 23 0 -4
BITMAP
004000
00E000
00E000
00F000
017000
017000
023800
023800
023C00
041C00
041C00
080E00
0FFE00
100F00
100700
100780
200380
6003C0
F80FE0
003000
006000
006000
003800
ENDCHAR
STARTCHAR aogonek
ENCODING 261
SWIDTH 543 0
DWIDTH 14 0
BBX 12 18 1 -4
BITMAP
3F00
7380
61C0
01C0
01C0
1FC0
79C0
61C0
E1C0
E1C0
E1C0
F3C0
7ED0
3C70
0600
0C00
0C00
0700
ENDCHAR
STARTCHAR Cacute
ENCODING 262
SWIDTH 695 0
DWIDTH 18 0
BBX 15 24 1 0
BITMAP
0070
00C0
0180
0300
0000
03F8
0E1E
3806
3006
7006
6000
E000
E000
E000
E000
E000
E000
F000
7000
7800
3C00
1E02
0FFE
03F8
ENDCHAR
STARTCHAR cacute
ENCODING 263
SWIDTH 509 0
DWIDTH 13 0
BBX 11 19 1 0
BITMAP
01C0
0300
0600
0C00
0000
0FC0
38E0
7060
7060
E000
E000
E000
E000
E000
F000
7000
7820
3FE0
0FC0
ENDCHAR
STARTCHAR Ccircumflex
ENCODING 264
SWIDTH 695 0
DWIDTH 18 0
BBX 15 24 1 0
BITMAP
03C0
03C0
0660
0C30
0000
03F8
0E1E
3806
3006
7006
6000
E000
E000
E000
E000
E000
E000
F000
7000
7800
3C00
1E02
0FFE
03F8
ENDCHAR
STARTCHAR ccircumflex
ENCODING 265
SWIDTH 509 0
DWIDTH 13 0
BBX 11 19 1 0
BITMAP
0F00
0F00
1980
30C0
0000
0FC0
38E0
7060
7060
E000
E000
E000
E000
E000
F000
7000
7820
3FE0
0FC0
ENDCHAR
STARTCHAR Cdotaccent
ENCODING 266
SWIDTH 695 0
DWIDTH 18 0
BBX 15 23 1 0
BITMAP
01C0
01C0
01C0
0000
03F8
0E1E
3806
3006
7006
6000
E000
E000
E000
E000
E000
E000
F000
7000
7800
3C00
1E02
0FFE
03F8
ENDCHAR
STARTCHAR cdotaccent
ENCODING 267
SWIDTH 509 0
DWIDTH 13 0
BBX 11 18 1 0
BITMAP
0E00
0E00
0E00
0000
0FC0
38E0
7060
7060
E000
E000
E000
E000
E000
F000
7000
7820
3FE0
0FC0
ENDCHAR
STARTCHAR Ccaron
ENCODING 268
SWIDTH 695 0
DWIDTH 18 0
BBX 15 24 1 0
BITMAP
0C30
0660
03C0
03C0
0000
03F8
0E1E
3806
3006
7006
6000
E000
E000
E000
E000
E000
E000
F000
7000
7800
3C00
1E02
0FFE
03F8
ENDCHAR
STARTCHAR ccaron
ENCODING 269
SWIDTH 509 0
DWIDTH 13 0
BBX 11 19 1 0
BITMAP
30C0
1980
0F00
0F00
0000
0FC0
38E0
7060
7060
E000
E000
E000
E000
E000
F000
7000
7820
3FE0
0FC0
ENDCHAR
STARTCHAR Dcaron
ENCODING 270
SWIDTH 768 0
DWIDTH 20 0
BBX 18 24 1 0
BITMAP
061800
033000
01E000
01E000
000000
FFF800
381E00
380700
380380
380380
380180
3801C0
3801C0
3801C0
3801C0
3801C0
3801C0
3801C0
380180
380380
380300
380600
3C1C00
FFF000
ENDCHAR
STARTCHAR dcaron
ENCODING 271
SWIDTH 875 0
DWIDTH 23 0
BBX 19 19 2 0
BITMAP
01F0E0
0070E0
007060
007060
007060
1E70C0
3F7080
70F000
607000
E07000
E07000
E07000
E07000
E07000
E07000
F07000
71F000
7F7800
1C7C00
ENDCHAR
STARTCHAR Dcroat
ENCODING 272
SWIDTH 768 0
DWIDTH 20 0
BBX 19 19 0 0
BITMAP
FFF800
3C0F00
1C0380
1C01C0
1C01C0
1C00C0
1C00E0
1C00E0
1C00E0
FFC0E0
1C00E0
1C00E0
1C00E0
1C00C0
1C01C0
1C0180
1C0300
3E0E00
FFF800
ENDCHAR
STARTCHAR dcroat
ENCODING 273
SWIDTH 642 0
DWIDTH 17 0
BBX 14 19 2 0
BITMAP
01F0
0070
0070
01FC
01FC
1E70
3F70
70F0
6070
E070
E070
E070
E070
E070
E070
F070
71F0
7F78
1C7C
ENDCHAR
STARTCHAR Emacron
ENCODING 274
SWIDTH 566 0
DWIDTH 15 0
BBX 14 22 0 0
BITMAP
1FC0
1FC0
0000
FFF8
3818
3818
3800
3800
3800
3800
3820
3820
3FE0
3820
3820
3800
3800
3800
3800
380C
381C
FFFC
ENDCHAR
STARTCHAR emacron
ENCODING 275
SWIDTH 530 0
DWIDTH 14 0
BBX 11 17 1 0
BITMAP
3F80
3F80
0000
0F00
31C0
70C0
60E0
E0E0
FFE0
E000
E000
E000
F000
7000
7820
3FE0
0F80
ENDCHAR
STARTCHAR Ebreve
ENCODING 276
SWIDTH 566 0
DWIDTH 15 0
BBX 14 24 0 0
BITMAP
2040
30C0
1F80
0F00
0000
FFF8
3818
3818
3800
3800
3800
3800
3820
3820
3FE0
3820
3820
3800
3800
3800
3800
380C
381C
FFFC
ENDCHAR
STARTCHAR ebreve
ENCODING 277
SWIDTH 530 0
DWIDTH 14 0
BBX 11 19 1 0
BITMAP
2040
30C0
1F80
0F00
0000
0F00
31C0
70C0
60E0
E0E0
FFE0
E000
E000
E000
F000
7000
7820
3FE0
0F80
ENDCHAR
STARTCHAR Edotaccent
ENCODING 278
SWIDTH 566 0
DWIDTH 15 0
BBX 14 23 0 0
BITMAP
0700
0700
0700
0000
FFF8
3818
3818
3800
3800
3800
3800
3820
3820
3FE0
3820
3820
3800
3800
3800
3800
380C
381C
FFFC
ENDCHAR
STARTCHAR edotaccent
ENCODING 279
SWIDTH 530 0
DWIDTH 14 0
BBX 11 18 1 0
BITMAP
0E00
0E00
0E00
0000
0F00
31C0
70C0
60E0
E0E0
FFE0
E000
E000
E000
F000
7000
7820
3FE0
0F80
ENDCHAR
STARTCHAR Eogonek
ENCODING 280
SWIDTH 566 0
DWIDTH 15 0
BBX 14 23 0 -4
BITMAP
FFF8
3818
3818
3800
3800
3800
3800
3820
3820
3FE0
3820
3820
3800
3800
3800
3800
380C
381C
FFFC
0300
0600
0600
0380
ENDCHAR
STARTCHAR eogonek
ENCODING 281
SWIDTH 530 0
DWIDTH 14 0
BBX 11 18 1 -4
BITMAP
0F00
31C0
70C0
60E0
E0E0
FFE0
E000
E000
E000
F000
7000
7820
3FE0
0F80
0600
0C00
0C00
0700
ENDCHAR
STARTCHAR Ecaron
ENCODING 282
SWIDTH 566 0
DWIDTH 15 0
BBX 14 24 0 0
BITMAP
30C0
1980
0F00
0F00
0000
FFF8
3818
3818
3800
3800
3800
3800
3820
3820
3FE0
3820
3820
3800
3800
3800
3800
380C
381C
FFFC
ENDCHAR
STARTCHAR ecaron
ENCODING 283
SWIDTH 530 0
DWIDTH 14 0
BBX 11 19 1 0
BITMAP
30C0
1980
0F00
0F00
0000
0F00
31C0
70C0
60E0
E0E0
FFE0
E000
E000
E000
F000
7000
7820
3FE0
0F80
ENDCHAR
STARTCHAR Gcircumflex
ENCODING 284
SWIDTH 732 0
DWIDTH 19 0
BBX 17 24 2 0
BITMAP
01E000
01E000
033000
061800
000000
03F800
0E1E00
380600
300600
700600
700000
E00000
E00000
E00000
E00000
E00000
E03F80
E00E00
700E00
700E00
380E00
180E00
0E0E00
03FC00
ENDCHAR
STARTCHAR gcircumflex
ENCODING 285
SWIDTH 571 0
DWIDTH 15 0
BBX 13 24 1 -5
BITMAP
0F00
0F00
1980
30C0
0000
1FF8
3980
70C0
70E0
70E0
70E0
70E0
30C0
19C0
1F80
7000
7000
7FE0
1FF0
6070
E070
E070
70E0
3F80
ENDCHAR
STARTCHAR Gbreve
ENCODING 286
SWIDTH 732 0
DWIDTH 19 0
BBX 17 24 2 0
BITMAP
040800
061800
03F000
01E000
000000
03F800
0E1E00
380600
300600
700600
700000
E00000
E00000
E00000
E00000
E00000
E03F80
E00E00
700E00
700E00
380E00
180E00
0E0E00
03FC00
ENDCHAR
STARTCHAR gbreve
ENCODING 287
SWIDTH 571 0
DWIDTH 15 0
BBX 13 24 1 -5
BITMAP
2040
30C0
1F80
0F00
0000
1FF8
3980
70C0
70E0
70E0
70E0
70E0
30C0
19C0
1F80
7000
7000
7FE0
1FF0
6070
E070
E070
70E0
3F80
ENDCHAR
STARTCHAR Gdotaccent
ENCODING 288
SWIDTH 732 0
DWIDTH 19 0
BBX 17 23 2 0
BITMAP
01C000
01C000
01C000
000000
03F800
0E1E00
380600
300600
700600
700000
E00000
E00000
E00000
E00000
E00000
E03F80
E00E00
700E00
700E00
380E00
180E00
0E0E00
03FC00
ENDCHAR
STARTCHAR gdotaccent
ENCODING 289
SWIDTH 571 0
DWIDTH 15 0
BBX 13 23 1 -5
BITMAP
0700
0700
0700
0000
1FF8
3980
70C0
70E0
70E0
70E0
70E0
30C0
19C0
1F80
7000
7000
7FE0
1FF0
6070
E070
E070
70E0
3F80
ENDCHAR
STARTCHAR Gcommaaccent
ENCODING 290
SWIDTH 732 0
DWIDTH 19 0
BBX 17 29 2 -10
BITMAP
03F800
0E1E00
380600
300600
700600
700000
E00000
E00000
E00000
E00000
E00000
E03F80
E00E00
700E00
700E00
380E00
180E00
0E0E00
03FC00
000000
01C000
01C000
01C000
01C000
00C000
00C000
00C000
008000
018000
ENDCHAR
STARTCHAR gcommaaccent
ENCODING 291
SWIDTH 571 0
DWIDTH 15 0
BBX 13 27 1 -5
BITMAP
0300
0600
0600
0600
0700
0700
0700
0000
1FF8
3980
70C0
70E0
70E0
70E0
70E0
30C0
19C0
1F80
7000
7000
7FE0
1FF0
6070
E070
E070
70E0
3F80
ENDCHAR
STARTCHAR Hcircumflex
ENCODING 292
SWIDTH 771 0
DWIDTH 20 0
BBX 18 24 1 0
BITMAP
01E000
01E000
033000
061800
000000
FE1FC0
380700
380700
380700
380700
380700
380700
380700
380700
3FFF00
380700
380700
380700
380700
380700
380700
380700
380700
FE1FC0
ENDCHAR
STARTCHAR hcircumflex
ENCODING 293
SWIDTH 633 0
DWIDTH 16 0
BBX 15 24 1 0
BITMAP
1E00
1E00
3300
6180
0000
F800
3800
3800
3800
3800
38E0
3BF0
3E38
3838
3838
3838
3838
3838
3838
3838
3838
3838
3838
FEFE
ENDCHAR
STARTCHAR Hbar
ENCODING 294
SWIDTH 771 0
DWIDTH 20 0
BBX 18 19 1 0
BITMAP
FE1FC0
380700
380700
380700
FFFFC0
FFFFC0
380700
380700
380700
3FFF00
380700
380700
380700
380700
380700
380700
380700
380700
FE1FC0
ENDCHAR
STARTCHAR hbar
ENCODING 295
SWIDTH 633 0
DWIDTH 16 0
BBX 15 19 1 0
BITMAP
F800
3800
3800
7F00
7F00
38E0
3BF0
3E38
3838
3838
3838
3838
3838
3838
3838
3838
3838
3838
FEFE
ENDCHAR
STARTCHAR Itilde
ENCODING 296
SWIDTH 325 0
DWIDTH 8 0
BBX 8 23 0 0
BITMAP
71
7E
8E
00
7F
1E
1C
1C
1C
1C
1C
1C
1C
1C
1C
1C
1C
1C
1C
1C
1C
1C
7F
ENDCHAR
STARTCHAR itilde
ENCODING 297
SWIDTH 307 0
DWIDTH 8 0
BBX 8 18 0 0
BITMAP
71
7E
8E
00
7C
1C
1C
1C
1C
1C
1C
1C
1C
1C
1C
1C
1C
7F
ENDCHAR
STARTCHAR Imacron
ENCODING 298
SWIDTH 325 0
DWIDTH 8 0
BBX 7 22 1 0
BITMAP
FE
FE
00
FE
3C
38
38
38
38
38
38
38
38
38
38
38
38
38
38
38
38
FE
ENDCHAR
STARTCHAR imacron
ENCODING 299
SWIDTH 307 0
DWIDTH 8 0
BBX 7 17 1 0
BITMAP
FE
FE
00
F8
38
38
38
38
38
38
38
38
38
38
38
38
FE
ENDCHAR
STARTCHAR Ibreve
ENCODING 300
SWIDTH 325 0
DWIDTH 8 0
BBX 8 24 1 0
BITMAP
81
C3
7E
3C
00
FE
3C
38
38
38
38
38
38
38
38
38
38
38
38
38
38
38
38
FE
ENDCHAR
STARTCHAR ibreve
ENCODING 301
SWIDTH 307 0
DWIDTH 8 0
BBX 8 19 0 0
BITMAP
81
C3
7E
3C
00
7C
1C
1C
1C
1C
1C
1C
1C
1C
1C
1C
1C
1C
7F
ENDCHAR
STARTCHAR Iogonek
ENCODING 302
SWIDTH 325 0
DWIDTH 8 0
BBX 7 23 1 -4
BITMAP
FE
3C
38
38
38
38
38
38
38
38
38
38
38
38
38
38
38
38
FE
18
30
30
1C
ENDCHAR
STARTCHAR iogonek
ENCODING 303
SWIDTH 307 0
DWIDTH 8 0
BBX 7 23 1 -4
BITMAP
38
38
38
00
00
F8
38
38
38
38
38
38
38
38
38
38
38
38
FE
18
30
30
1C
ENDCHAR
STARTCHAR Idotaccent
ENCODING 304
SWIDTH 325 0
DWIDTH 8 0
BBX 7 23 1 0
BITMAP
38
38
38
00
FE
3C
38
38
38
38
38
38
38
38
38
38
38
38
38
38
38
38
FE
ENDCHAR
STARTCHAR dotlessi
ENCODING 305
SWIDTH 307 0
DWIDTH 8 0
BBX 7 14 1 0
BITMAP
F8
38
38
38
38
38
38
38
38
38
38
38
38
FE
ENDCHAR
STARTCHAR IJ
ENCODING 306
SWIDTH 731 0
DWIDTH 19 0
BBX 17 23 1 -4
BITMAP
FE3F80
3C0F00
380E00
380E00
380E00
380E00
380E00
380E00
380E00
380E00
380E00
380E00
380E00
380E00
380E00
380E00
380E00
380E00
FE0E00
018E00
018C00
019C00
01F000
ENDCHAR
STARTCHAR ij
ENCODING 307
SWIDTH 638 0
DWIDTH 17 0
BBX 14 24 1 -5
BITMAP
381C
381C
381C
0000
0000
F83C
381C
381C
381C
381C
381C
381C
381C
381C
381C
381C
381C
381C
FE1C
001C
019C
019C
0198
01F0
ENDCHAR
STARTCHAR Jcircumflex
ENCODING 308
SWIDTH 422 0
DWIDTH 11 0
BBX 10 28 0 -4
BITMAP
0F00
0F00
1980
30C0
0000
1FC0
0780
0700
0700
0700
0700
0700
0700
0700
0700
0700
0700
0700
0700
0700
0700
0700
0700
0700
C700
C600
CE00
F800
ENDCHAR
STARTCHAR jcircumflex
ENCODING 309
SWIDTH 346 0
DWIDTH 9 0
BBX 9 24 0 -5
BITMAP
1E00
1E00
3300
6180
0000
1E00
0E00
0E00
0E00
0E00
0E00
0E00
0E00
0E00
0E00
0E00
0E00
0E00
0E00
0E00
CE00
CE00
CC00
F800
ENDCHAR
STARTCHAR Kcommaaccent
ENCODING 310
SWIDTH 708 0
DWIDTH 18 0
BBX 18 29 0 -10
BITMAP
FE1F00
380E00
380800
381000
382000
384000
388000
390000
3B0000
3F8000
3BC000
3BE000
39E000
38F000
387800
383C00
381E00
380F00
FE3FC0
000000
01C000
01C000
01C000
01C000
00C000
00C000
00C000
008000
018000
ENDCHAR
STARTCHAR kcommaaccent
ENCODING 311
SWIDTH 599 0
DWIDTH 16 0
BBX 15 29 1 -10
BITMAP
F800
3800
3800
3800
3800
387C
3830
3860
38C0
3980
3B00
3F00
3B80
3BC0
39E0
38F0
3878
383C
FE3E
0000
0380
0380
0380
0380
0180
0180
0180
0100
0300
ENDCHAR
STARTCHAR kgreenlandic
ENCODING 312
SWIDTH 599 0
DWIDTH 16 0
BBX 15 14 1 0
BITMAP
387C
3830
3860
38C0
3980
3B00
3F00
3B80
3BC0
39E0
38F0
3878
383C
FE3E
ENDCHAR
STARTCHAR Lacute
ENCODING 313
SWIDTH 557 0
DWIDTH 14 0
BBX 13 24 1 0
BITMAP
0380
0600
0C00
1800
0000
FE00
3800
3800
3800
3800
3800
3800
3800
3800
3800
3800
3800
3800
3800
3800
3818
3818
3838
FFF8
ENDCHAR
STARTCHAR lacute
ENCODING 314
SWIDTH 313 0
DWIDTH 8 0
BBX 7 24 1 0
BITMAP
0E
18
30
60
00
F8
38
38
38
38
38
38
38
38
38
38
38
38
38
38
38
38
38
FE
ENDCHAR
STARTCHAR Lcommaaccent
ENCODING 315
SWIDTH 557 0
DWIDTH 14 0
BBX 13 29 1 -10
BITMAP
FE00
3800
3800
3800
3800
3800
3800
3800
3800
3800
3800
3800
3800
3800
3800
3818
3818
3838
FFF8
0000
0700
0700
0700
0700
0300
0300
0300
0200
0600
ENDCHAR
STARTCHAR lcommaaccent
ENCODING 316
SWIDTH 313 0
DWIDTH 8 0
BBX 7 29 1 -10
BITMAP
F8
38
38
38
38
38
38
38
38
38
38
38
38
38
38
38
38
38
FE
00
38
38
38
38
18
18
18
10
30
ENDCHAR
STARTCHAR Lcaron
ENCODING 317
SWIDTH 794 0
DWIDTH 20 0
BBX 17 19 1 0
BITMAP
FE0380
380380
380180
380180
380180
380300
380200
380000
380000
380000
380000
380000
380000
380000
380000
381800
381800
383800
FFF800
ENDCHAR
STARTCHAR lcaron
ENCODING 318
SWIDTH 562 0
DWIDTH 15 0
BBX 12 19 1 0
BITMAP
F870
3870
3830
3830
3830
3860
3840
3800
3800
3800
3800
3800
3800
3800
3800
3800
3800
3800
FE00
ENDCHAR
STARTCHAR Ldot
ENCODING 319
SWIDTH 1137 0
DWIDTH 29 0
BBX 21 19 1 0
BITMAP
FE0000
380000
380000
380000
380000
380000
380000
380000
380000
380038
380038
380038
380000
380000
380000
381800
381800
383800
FFF800
ENDCHAR
STARTCHAR ldot
ENCODING 320
SWIDTH 905 0
DWIDTH 24 0
BBX 16 19 1 0
BITMAP
F800
3800
3800
3800
3800
3800
3800
3800
3800
3807
3807
3807
3800
3800
3800
3800
3800
3800
FE00
ENDCHAR
STARTCHAR Lslash
ENCODING 321
SWIDTH 557 0
DWIDTH 14 0
BBX 14 19 0 0
BITMAP
FF00
3C00
1C00
1C00
1C00
1C00
1C00
1D80
1E00
1C00
7C00
9C00
1C00
1C00
1C00
1C0C
1C0C
3C1C
FFFC
ENDCHAR
STARTCHAR lslash
ENCODING 322
SWIDTH 313 0
DWIDTH 8 0
BBX 9 19 0 0
BITMAP
7C00
3C00
1C00
1C00
1C00
1C00
1C00
1D80
1F00
1C00
7C00
9C00
1C00
1C00
1C00
1C00
1C00
3E00
7F00
ENDCHAR
STARTCHAR Nacute
ENCODING 323
SWIDTH 751 0
DWIDTH 20 0
BBX 18 24 1 0
BITMAP
007000
00C000
018000
030000
000000
F807C0
3C0100
3C0100
3E0100
3F0100
378100
338100
33C100
31E100
30F100
307100
307900
303D00
301F00
300F00
300F00
300700
300300
FC0300
ENDCHAR
STARTCHAR nacute
ENCODING 324
SWIDTH 633 0
DWIDTH 16 0
BBX 15 19 1 0
BITMAP
00E0
0180
0300
0600
0000
F8E0
7BF0
3E38
3838
3838
3838
3838
3838
3838
3838
3838
3838
3838
FEFE
ENDCHAR
STARTCHAR Ncommaaccent
ENCODING 325
SWIDTH 751 0
DWIDTH 20 0
BBX 18 29 1 -10
BITMAP
F807C0
3C0100
3C0100
3E0100
3F0100
378100
338100
33C100
31E100
30F100
307100
307900
303D00
301F00
300F00
300F00
300700
300300
FC0300
000000
01C000
01C000
01C000
01C000
00C000
00C000
00C000
008000
018000
ENDCHAR
STARTCHAR ncommaaccent
ENCODING 326
SWIDTH 633 0
DWIDTH 16 0
BBX 15 24 1 -10
BITMAP
F8E0
7BF0
3E38
3838
3838
3838
3838
3838
3838
3838
3838
3838
3838
FEFE
0000
0380
0380
0380
0380
0180
0180
0180
0100
0300
ENDCHAR
STARTCHAR Ncaron
ENCODING 327
SWIDTH 751 0
DWIDTH 20 0
BBX 18 24 1 0
BITMAP
0C3000
066000
03C000
03C000
000000
F807C0
3C0100
3C0100
3E0100
3F0100
378100
338100
33C100
31E100
30F100
307100
307900
303D00
301F00
300F00
300F00
300700
300300
FC0300
ENDCHAR
STARTCHAR ncaron
ENCODING 328
SWIDTH 633 0
DWIDTH 16 0
BBX 15 19 1 0
BITMAP
1860
0CC0
0780
0780
0000
F8E0
7BF0
3E38
3838
3838
3838
3838
3838
3838
3838
3838
3838
3838
FEFE
ENDCHAR
STARTCHAR napostrophe
ENCODING 329
SWIDTH 885 0
DWIDTH 23 0
BBX 21 19 2 0
BITMAP
E00000
E00000
600000
600000
600000
C3E380
81EFC0
00F8E0
00E0E0
00E0E0
00E0E0
00E0E0
00E0E0
00E0E0
00E0E0
00E0E0
00E0E0
00E0E0
03FBF8
ENDCHAR
STARTCHAR Eng
ENCODING 330
SWIDTH 751 0
DWIDTH 20 0
BBX 18 24 1 -5
BITMAP
F807C0
3C0100
3C0100
3E0100
3F0100
378100
338100
33C100
31E100
30F100
307100
307900
303D00
301F00
300F00
300F00
300700
300700
FC0700
000700
006700
006700
006600
007C00
ENDCHAR
STARTCHAR eng
ENCODING 331
SWIDTH 633 0
DWIDTH 16 0
BBX 13 19 1 -5
BITMAP
F8E0
7BF0
3E38
3838
3838
3838
3838
3838
3838
3838
3838
3838
3838
FE38
0038
0338
0338
0330
03E0
ENDCHAR
STARTCHAR Omacron
ENCODING 332
SWIDTH 777 0
DWIDTH 20 0
BBX 18 22 1 0
BITMAP
03F800
03F800
000000
03F000
0E1C00
380700
300300
700380
700380
E001C0
E001C0
E001C0
E001C0
E001C0
E001C0
E001C0
700380
700380
300300
180700
0E1C00
03F000
ENDCHAR
STARTCHAR omacron
ENCODING 333
SWIDTH 602 0
DWIDTH 16 0
BBX 13 17 1 0
BITMAP
1FC0
1FC0
0000
0F80
38E0
7070
7070
E038
E038
E038
E038
E038
E038
7070
7070
38E0
0F80
ENDCHAR
STARTCHAR Obreve
ENCODING 334
SWIDTH 777 0
DWIDTH 20 0
BBX 18 24 1 0
BITMAP
040800
061800
03F000
01E000
000000
03F000
0E1C00
380700
300300
700380
700380
E001C0
E001C0
E001C0
E001C0
E001C0
E001C0
E001C0
700380
700380
300300
180700
0E1C00
03F000
ENDCHAR
STARTCHAR obreve
ENCODING 335
SWIDTH 602 0
DWIDTH 16 0
BBX 13 19 1 0
BITMAP
1020
1860
0FC0
0780
0000
0F80
38E0
7070
7070
E038
E038
E038
E038
E038
E038
7070
7070
38E0
0F80
ENDCHAR
STARTCHAR Ohungarumlaut
ENCODING 336
SWIDTH 777 0
DWIDTH 20 0
BBX 18 24 1 0
BITMAP
006C00
009000
012000
024000
000000
03F000
0E1C00
380700
300300
700380
700380
E001C0
E001C0
E001C0
E001C0
E001C0
E001C0
E001C0
700380
700380
300300
180700
0E1C00
03F000
ENDCHAR
STARTCHAR ohungarumlaut
ENCODING 337
SWIDTH 602 0
DWIDTH 16 0
BBX 13 19 1 0
BITMAP
01B0
0240
0480
0900
0000
0F80
38E0
7070
7070
E038
E038
E038
E038
E038
E038
7070
7070
38E0
0F80
ENDCHAR
STARTCHAR OE
ENCODING 338
SWIDTH 1014 0
DWIDTH 26 0
BBX 25 19 1 0
BITMAP
03E7FF00
0E1F0700
380F0300
30070300
70070000
70070000
E0070000
E0070400
E0070400
E007FC00
E0070400
E0070400
E0070000
70070000
70070000
30070180
380F0180
0E1F0380
03E7FF80
ENDCHAR
STARTCHAR oe
ENCODING 339
SWIDTH 908 0
DWIDTH 24 0
BBX 21 14 1 0
BITMAP
0F87C0
384C70
707C30
703838
E03838
E03FF8
E03800
E03800
E03800
E03C00
F03C00
704E08
3847F8
1F83E0
ENDCHAR
STARTCHAR Racute
ENCODING 340
SWIDTH 679 0
DWIDTH 18 0
BBX 16 24 1 0
BITMAP
00E0
0180
0300
0600
0000
FFC0
3870
3830
3838
3838
3838
3838
3830
3860
38C0
3FC0
39C0
38E0
38F0
3870
3878
383C
383E
FE1F
ENDCHAR
STARTCHAR racute
ENCODING 341
SWIDTH 440 0
DWIDTH 11 0
BBX 10 19 1 0
BITMAP
0380
0600
0C00
1800
0000
F9C0
3BC0
3CC0
38C0
3800
3800
3800
3800
3800
3800
3800
3800
3C00
FF00
ENDCHAR
STARTCHAR Rcommaaccent
ENCODING 342
SWIDTH 679 0
DWIDTH 18 0
BBX 16 29 1 -10
BITMAP
FFC0
3870
3830
3838
3838
3838
3838
3830
3860
38C0
3FC0
39C0
38E0
38F0
3870
3878
383C
383E
FE1F
0000
01C0
01C0
01C0
01C0
00C0
00C0
00C0
0080
0180
ENDCHAR
STARTCHAR rcommaaccent
ENCODING 343
SWIDTH 440 0
DWIDTH 11 0
BBX 10 24 1 -10
BITMAP
F9C0
3BC0
3CC0
38C0
3800
3800
3800
3800
3800
3800
3800
3800
3C00
FF00
0000
1C00
1C00
1C00
1C00
0C00
0C00
0C00
0800
1800
ENDCHAR
STARTCHAR Rcaron
ENCODING 344
SWIDTH 679 0
DWIDTH 18 0
BBX 16 24 1 0
BITMAP
1860
0CC0
0780
0780
0000
FFC0
3870
3830
3838
3838
3838
3838
3830
3860
38C0
3FC0
39C0
38E0
38F0
3870
3878
383C
383E
FE1F
ENDCHAR
STARTCHAR rcaron
ENCODING 345
SWIDTH 440 0
DWIDTH 11 0
BBX 10 19 1 0
BITMAP
6180
3300
1E00
1E00
0000
F9C0
3BC0
3CC0
38C0
3800
3800
3800
3800
3800
3800
3800
3800
3C00
FF00
ENDCHAR
STARTCHAR Sacute
ENCODING 346
SWIDTH 542 0
DWIDTH 14 0
BBX 11 24 2 0
BITMAP
0380
0600
0C00
1800
0000
1F80
71C0
60C0
E0C0
E000
E000
F000
7C00
3E00
1F80
07C0
03C0
01E0
00E0
C0E0
C0E0
C0C0
E180
7F00
ENDCHAR
STARTCHAR sacute
ENCODING 347
SWIDTH 504 0
DWIDTH 13 0
BBX 10 19 2 0
BITMAP
0380
0600
0C00
1800
0000
3F00
7380
E180
E180
F000
F800
7F00
3F80
07C0
C1C0
C1C0
C1C0
E380
3F00
ENDCHAR
STARTCHAR Scircumflex
ENCODING 348
SWIDTH 542 0
DWIDTH 14 0
BBX 11 24 2 0
BITMAP
1E00
1E00
3300
6180
0000
1F80
71C0
60C0
E0C0
E000
E000
F000
7C00
3E00
1F80
07C0
03C0
01E0
00E0
C0E0
C0E0
C0C0
E180
7F00
ENDCHAR
STARTCHAR scircumflex
ENCODING 349
SWIDTH 504 0
DWIDTH 13 0
BBX 10 19 2 0
BITMAP
1E00
1E00
3300
6180
0000
3F00
7380
E180
E180
F000
F800
7F00
3F80
07C0
C1C0
C1C0
C1C0
E380
3F00
ENDCHAR
STARTCHAR Scedilla
ENCODING 350
SWIDTH 542 0
DWIDTH 14 0
BBX 11 24 2 -5
BITMAP
1F80
71C0
60C0
E0C0
E000
E000
F000
7C00
3E00
1F80
07C0
03C0
01E0
00E0
C0E0
C0E0
C0C0
E180
7F00
0800
0C00
0600
0600
1C00
ENDCHAR
STARTCHAR scedilla
ENCODING 351
SWIDTH 504 0
DWIDTH 13 0
BBX 10 19 2 -5
BITMAP
3F00
7380
E180
E180
F000
F800
7F00
3F80
07C0
C1C0
C1C0
C1C0
E380
3F00
0800
0C00
0600
0600
1C00
ENDCHAR
STARTCHAR Scaron
ENCODING 352
SWIDTH 542 0
DWIDTH 14 0
BBX 11 24 2 0
BITMAP
6180
3300
1E00
1E00
0000
1F80
71C0
60C0
E0C0
E000
E000
F000
7C00
3E00
1F80
07C0
03C0
01E0
00E0
C0E0
C0E0
C0C0
E180
7F00
ENDCHAR
STARTCHAR scaron
ENCODING 353
SWIDTH 504 0
DWIDTH 13 0
BBX 10 19 2 0
BITMAP
6180
3300
1E00
1E00
0000
3F00
7380
E180
E180
F000
F800
7F00
3F80
07C0
C1C0
C1C0
C1C0
E380
3F00
ENDCHAR
STARTCHAR Tcommaaccent
ENCODING 354
SWIDTH 663 0
DWIDTH 17 0
BBX 17 24 0 -5
BITMAP
FFFF80
C1C180
C1C180
01C000
01C000
01C000
01C000
01C000
01C000
01C000
01C000
01C000
01C000
01C000
01C000
01C000
01C000
03E000
0FF800
008000
00C000
006000
006000
01C000
ENDCHAR
STARTCHAR tcommaaccent
ENCODING 355
SWIDTH 392 0
DWIDTH 10 0
BBX 9 23 1 -5
BITMAP
1800
3800
3800
3800
FF80
3800
3800
3800
3800
3800
3800
3800
3800
3800
3800
3800
1C00
0F80
0800
0C00
0600
0600
1C00
ENDCHAR
STARTCHAR Tcaron
ENCODING 356
SWIDTH 663 0
DWIDTH 17 0
BBX 17 24 0 0
BITMAP
061800
033000
01E000
01E000
000000
FFFF80
C1C180
C1C180
01C000
01C000
01C000
01C000
01C000
01C000
01C000
01C000
01C000
01C000
01C000
01C000
01C000
01C000
03E000
0FF800
ENDCHAR
STARTCHAR tcaron
ENCODING 357
SWIDTH 637 0
DWIDTH 17 0
BBX 14 19 1 0
BITMAP
001C
181C
380C
380C
380C
FF98
3810
3800
3800
3800
3800
3800
3800
3800
3800
3800
3800
1C00
0F80
ENDCHAR
STARTCHAR Tbar
ENCODING 358
SWIDTH 663 0
DWIDTH 17 0
BBX 17 19 0 0
BITMAP
FFFF80
C1C180
C1C180
01C000
01C000
01C000
01C000
01C000
07F000
07F000
01C000
01C000
01C000
01C000
01C000
01C000
01C000
03E000
0FF800
ENDCHAR
STARTCHAR tbar
ENCODING 359
SWIDTH 392 0
DWIDTH 10 0
BBX 9 18 1 0
BITMAP
1800
3800
3800
3800
FF80
3800
3800
3800
3800
3800
7F00
7F00
3800
3800
3800
3800
1C00
0F80
ENDCHAR
STARTCHAR Utilde
ENCODING 360
SWIDTH 719 0
DWIDTH 19 0
BBX 18 23 0 0
BITMAP
071000
07E000
08E000
000000
FE0FC0
380300
380300
380300
380300
380300
380300
380300
380300
380300
380300
380300
380300
380300
380300
180200
1C0600
0E0C00
03F000
ENDCHAR
STARTCHAR utilde
ENCODING 361
SWIDTH 633 0
DWIDTH 16 0
BBX 15 18 0 0
BITMAP
0E20
0FC0
11C0
0000
F8F8
3838
3838
3838
3838
3838
3838
3838
3838
3838
3838
38F8
1FBC
0E3E
ENDCHAR
STARTCHAR Umacron
ENCODING 362
SWIDTH 719 0
DWIDTH 19 0
BBX 18 22 0 0
BITMAP
07F000
07F000
000000
FE0FC0
380300
380300
380300
380300
380300
380300
380300
380300
380300
380300
380300
380300
380300
380300
180200
1C0600
0E0C00
03F000
ENDCHAR
STARTCHAR umacron
ENCODING 363
SWIDTH 633 0
DWIDTH 16 0
BBX 15 17 0 0
BITMAP
0FE0
0FE0
0000
F8F8
3838
3838
3838
3838
3838
3838
3838
3838
3838
3838
38F8
1FBC
0E3E
ENDCHAR
STARTCHAR Ubreve
ENCODING 364
SWIDTH 719 0
DWIDTH 19 0
BBX 18 24 0 0
BITMAP
040800
061800
03F000
01E000
000000
FE0FC0
380300
380300
380300
380300
380300
380300
380300
380300
380300
380300
380300
380300
380300
380300
180200
1C0600
0E0C00
03F000
ENDCHAR
STARTCHAR ubreve
ENCODING 365
SWIDTH 633 0
DWIDTH 16 0
BBX 15 19 0 0
BITMAP
1020
1860
0FC0
0780
0000
F8F8
3838
3838
3838
3838
3838
3838
3838
3838
3838
3838
38F8
1FBC
0E3E
ENDCHAR
STARTCHAR Uring
ENCODING 366
SWIDTH 719 0
DWIDTH 19 0
BBX 18 24 0 0
BITMAP
00C000
012000
012000
00C000
000000
FE0FC0
380300
380300
380300
380300
380300
380300
380300
380300
380300
380300
380300
380300
380300
380300
180200
1C0600
0E0C00
03F000
ENDCHAR
STARTCHAR uring
ENCODING 367
SWIDTH 633 0
DWIDTH 16 0
BBX 15 19 0 0
BITMAP
0300
0480
0480
0300
0000
F8F8
3838
3838
3838
3838
3838
3838
3838
3838
3838
3838
38F8
1FBC
0E3E
ENDCHAR
STARTCHAR Uhungarumlaut
ENCODING 368
SWIDTH 719 0
DWIDTH 19 0
BBX 18 24 0 0
BITMAP
006C00
009000
012000
024000
000000
FE0FC0
380300
380300
380300
380300
380300
380300
380300
380300
380300
380300
380300
380300
380300
380300
180200
1C0600
0E0C00
03F000
ENDCHAR
STARTCHAR uhungarumlaut
ENCODING 369
SWIDTH 633 0
DWIDTH 16 0
BBX 15 19 0 0
BITMAP
01B0
0240
0480
0900
0000
F8F8
3838
3838
3838
3838
3838
3838
3838
3838
3838
3838
38F8
1FBC
0E3E
ENDCHAR
STARTCHAR Uogonek
ENCODING 370
SWIDTH 719 0
DWIDTH 19 0
BBX 18 23 0 -4
BITMAP
FE0FC0
380300
380300
380300
380300
380300
380300
380300
380300
380300
380300
380300
380300
380300
380300
180200
1C0600
0E0C00
03F000
00C000
018000
018000
00E000
ENDCHAR
STARTCHAR uogonek
ENCODING 371
SWIDTH 633 0
DWIDTH 16 0
BBX 15 18 0 -4
BITMAP
F8F8
3838
3838
3838
3838
3838
3838
3838
3838
3838
3838
38F8
1FBC
0E3E
0180
0300
0300
01C0
ENDCHAR
STARTCHAR Wcircumflex
ENCODING 372
SWIDTH 925 0
DWIDTH 24 0
BBX 24 24 0 0
BITMAP
007800
007800
00CC00
018600
000000
FE081F
781C04
381C04
381C08
381C08
1C2E08
1C2E08
1C2E10
1C4710
0E4710
0E4720
0EC7A0
0E83A0
0783A0
0783C0
0701C0
0301C0
030180
020080
ENDCHAR
STARTCHAR wcircumflex
ENCODING 373
SWIDTH 795 0
DWIDTH 21 0
BBX 21 19 0 0
BITMAP
00F000
00F000
019800
030C00
000000
FC30F8
703010
703830
387820
387C20
38DC40
1C9C40
1C8E40
1D0E80
0F0F80
0F0780
0E0700
060300
040200
ENDCHAR
STARTCHAR Ycircumflex
ENCODING 374
SWIDTH 678 0
DWIDTH 18 0
BBX 18 24 0 0
BITMAP
03C000
03C000
066000
0C3000
000000
FE07C0
780100
380200
1C0200
1E0400
0E0800
0F0800
079000
03A000
03E000
01C000
01C000
01C000
01C000
01C000
01C000
01C000
01C000
07F000
ENDCHAR
STARTCHAR ycircumflex
ENCODING 375
SWIDTH 551 0
DWIDTH 14 0
BBX 14 24 0 -5
BITMAP
0F00
0F00
1980
30C0
0000
FC3C
7008
7818
3810
3C10
1C20
1C20
0E40
0E40
0FC0
0780
0780
0300
0300
0200
0600
0C00
1C00
3C00
ENDCHAR
STARTCHAR Ydieresis
ENCODING 376
SWIDTH 678 0
DWIDTH 18 0
BBX 18 23 0 0
BITMAP
063000
063000
063000
000000
FE07C0
780100
380200
1C0200
1E0400
0E0800
0F0800
079000
03A000
03E000
01C000
01C000
01C000
01C000
01C000
01C000
01C000
01C000
07F000
ENDCHAR
STARTCHAR Zacute
ENCODING 377
SWIDTH 633 0
DWIDTH 16 0
BBX 13 24 2 0
BITMAP
00E0
0180
0300
0600
0000
FFF8
E078
C0F0
C0E0
01E0
01C0
03C0
0380
0780
0700
0E00
0E00
1C00
3C00
3800
7800
7018
E018
FFF8
ENDCHAR
STARTCHAR zacute
ENCODING 378
SWIDTH 595 0
DWIDTH 15 0
BBX 12 19 2 0
BITMAP
01C0
0300
0600
0C00
0000
FFF0
C0E0
C1E0
03C0
0380
0780
0F00
0E00
1E00
3C00
3800
7830
F030
FFF0
ENDCHAR
STARTCHAR Zdotaccent
ENCODING 379
SWIDTH 633 0
DWIDTH 16 0
BBX 13 23 2 0
BITMAP
0700
0700
0700
0000
FFF8
E078
C0F0
C0E0
01E0
01C0
03C0
0380
0780
0700
0E00
0E00
1C00
3C00
3800
7800
7018
E018
FFF8
ENDCHAR
STARTCHAR zdotaccent
ENCODING 380
SWIDTH 595 0
DWIDTH 15 0
BBX 12 18 2 0
BITMAP
0700
0700
0700
0000
FFF0
C0E0
C1E0
03C0
0380
0780
0F00
0E00
1E00
3C00
3800
7830
F030
FFF0
ENDCHAR
STARTCHAR Zcaron
ENCODING 381
SWIDTH 633 0
DWIDTH 16 0
BBX 13 24 2 0
BITMAP
1860
0CC0
0780
0780
0000
FFF8
E078
C0F0
C0E0
01E0
01C0
03C0
0380
0780
0700
0E00
0E00
1C00
3C00
3800
7800
7018
E018
FFF8
ENDCHAR
STARTCHAR zcaron
ENCODING 382
SWIDTH 595 0
DWIDTH 15 0
BBX 12 19 2 0
BITMAP
30C0
1980
0F00
0F00
0000
FFF0
C0E0
C1E0
03C0
0380
0780
0F00
0E00
1E00
3C00
3800
7830
F030
FFF0
ENDCHAR
STARTCHAR uni0186
ENCODING 390
SWIDTH 695 0
DWIDTH 18 0
BBX 15 19 1 0
BITMAP
3F80
FFE0
80F0
0078
003C
001C
001E
000E
000E
000E
000E
000E
000E
000C
C01C
C018
C038
F0E0
3F80
ENDCHAR
STARTCHAR uni0189
ENCODING 393
SWIDTH 768 0
DWIDTH 20 0
BBX 19 19 0 0
BITMAP
FFF800
3C0F00
1C0380
1C01C0
1C01C0
1C00C0
1C00E0
1C00E0
1C00E0
FFC0E0
1C00E0
1C00E0
1C00E0
1C00C0
1C01C0
1C0180
1C0300
3E0E00
FFF800
ENDCHAR
STARTCHAR uni018E
ENCODING 398
SWIDTH 566 0
DWIDTH 15 0
BBX 14 19 0 0
BITMAP
FFFC
E070
C070
0070
0070
0070
0070
1070
1070
1FF0
1070
1070
0070
0070
0070
0070
6070
6070
7FFC
ENDCHAR
STARTCHAR florin
ENCODING 402
SWIDTH 608 0
DWIDTH 16 0
BBX 12 23 3 -4
BITMAP
01F0
0230
0430
0430
0C00
0C00
1C00
1C00
1C00
FE00
3800
3000
3000
3000
3000
7000
6000
6000
6000
6000
E000
E000
C000
ENDCHAR
STARTCHAR uni0197
ENCODING 407
SWIDTH 325 0
DWIDTH 8 0
BBX 7 19 1 0
BITMAP
FE
3C
38
38
38
38
38
38
FE
FE
38
38
38
38
38
38
38
38
FE
ENDCHAR
STARTCHAR uni019A
ENCODING 410
SWIDTH 313 0
DWIDTH 8 0
BBX 7 19 1 0
BITMAP
F8
38
38
38
38
38
38
38
FE
FE
38
38
38
38
38
38
38
38
FE
ENDCHAR
STARTCHAR uni019D
ENCODING 413
SWIDTH 751 0
DWIDTH 20 0
BBX 20 24 -1 -5
BITMAP
3E01F0
0F0040
0F0040
0F8040
0FC040
0DE040
0CE040
0CF040
0C7840
0C3C40
0C1C40
0C1E40
0C0F40
0E07C0
0E03C0
0E03C0
0E01C0
0E00C0
0E00C0
0E0000
CE0000
CE0000
CC0000
F80000
ENDCHAR
STARTCHAR uni019F
ENCODING 415
SWIDTH 777 0
DWIDTH 20 0
BBX 18 19 1 0
BITMAP
03F000
0E1C00
380700
300300
700380
700380
E001C0
E001C0
FFFFC0
FFFFC0
E001C0
E001C0
E001C0
700380
700380
300300
180700
0E1C00
03F000
ENDCHAR
STARTCHAR Ohorn
ENCODING 416
SWIDTH 777 0
DWIDTH 20 0
BBX 19 19 1 0
BITMAP
03F0E0
0E1CE0
380760
300360
7003E0
7003C0
E001C0
E001C0
E001C0
E001C0
E001C0
E001C0
E001C0
700380
700380
300300
180700
0E1C00
03F000
ENDCHAR
STARTCHAR ohorn
ENCODING 417
SWIDTH 602 0
DWIDTH 16 0
BBX 15 14 1 0
BITMAP
0F8E
38EE
7076
7076
E03E
E03C
E038
E038
E038
E038
7070
7070
38E0
0F80
ENDCHAR
STARTCHAR uni01A7
ENCODING 423
SWIDTH 542 0
DWIDTH 14 0
BBX 11 19 2 0
BITMAP
3F00
71C0
60C0
60E0
00E0
00E0
01E0
07C0
0F80
3F00
7C00
7800
F000
E000
E060
E060
6060
30E0
1FC0
ENDCHAR
STARTCHAR uni01A8
ENCODING 424
SWIDTH 504 0
DWIDTH 13 0
BBX 10 14 2 0
BITMAP
3F00
7380
61C0
61C0
03C0
07C0
3F80
7F00
F800
E0C0
E0C0
E0C0
71C0
3F00
ENDCHAR
STARTCHAR uni01AE
ENCODING 430
SWIDTH 663 0
DWIDTH 17 0
BBX 17 24 0 -5
BITMAP
FFFF80
C1C180
C1C180
01C000
01C000
01C000
01C000
01C000
01C000
01C000
01C000
01C000
01C000
01C000
01C000
01C000
01C000
01C000
01C000
01C000
01CC00
01CC00
00CC00
007C00
ENDCHAR
STARTCHAR Uhorn
ENCODING 431
SWIDTH 719 0
DWIDTH 19 0
BBX 19 19 0 0
BITMAP
FE0FE0
3803E0
380360
380360
380360
3803C0
380380
380300
380300
380300
380300
380300
380300
380300
380300
180200
1C0600
0E0C00
03F000
ENDCHAR
STARTCHAR uhorn
ENCODING 432
SWIDTH 633 0
DWIDTH 16 0
BBX 17 14 0 0
BITMAP
F8FB80
383B80
383980
383980
383980
383B00
383A00
383800
383800
383800
383800
38F800
1FBC00
0E3E00
ENDCHAR
STARTCHAR uni01B5
ENCODING 437
SWIDTH 633 0
DWIDTH 16 0
BBX 13 19 2 0
BITMAP
FFF8
E078
C0F0
C0E0
01E0
01C0
03C0
0380
1FC0
1FC0
0E00
0E00
1C00
3C00
3800
7800
7018
E018
FFF8
ENDCHAR
STARTCHAR uni01B6
ENCODING 438
SWIDTH 595 0
DWIDTH 15 0
BBX 12 14 2 0
BITMAP
FFF0
C0E0
C1E0
03C0
0380
0780
1FC0
1FC0
1E00
3C00
3800
7830
F030
FFF0
ENDCHAR
STARTCHAR uni01BB
ENCODING 443
SWIDTH 608 0
DWIDTH 16 0
BBX 11 19 2 0
BITMAP
3F00
E1C0
C1C0
C0E0
C0E0
00E0
00E0
00C0
FFE0
FFE0
0600
0800
1000
2000
6000
4000
FFE0
FFE0
FFE0
ENDCHAR
STARTCHAR uni01BC
ENCODING 444
SWIDTH 608 0
DWIDTH 16 0
BBX 10 19 3 0
BITMAP
FFC0
FFC0
FFC0
8000
8000
8000
8000
8000
FC00
0F00
0380
01C0
01C0
01C0
01C0
C1C0
C380
E700
FC00
ENDCHAR
STARTCHAR uni01C0
ENCODING 448
SWIDTH 241 0
DWIDTH 6 0
BBX 2 23 2 -4
BITMAP
C0
C0
C0
C0
C0
C0
C0
C0
C0
C0
C0
C0
C0
C0
C0
C0
C0
C0
C0
C0
C0
C0
C0
ENDCHAR
STARTCHAR uni01C2
ENCODING 450
SWIDTH 608 0
DWIDTH 16 0
BBX 15 23 0 -4
BITMAP
0180
0180
0180
0180
0180
0180
0180
0180
FFFE
FFFE
0180
0180
0180
FFFE
FFFE
0180
0180
0180
0180
0180
0180
0180
0180
ENDCHAR
STARTCHAR uni01C3
ENCODING 451
SWIDTH 265 0
DWIDTH 7 0
BBX 3 19 2 0
BITMAP
E0
E0
E0
E0
E0
E0
E0
E0
E0
40
40
40
40
40
00
00
E0
E0
E0
ENDCHAR
STARTCHAR uni01CD
ENCODING 461
SWIDTH 744 0
DWIDTH 19 0
BBX 19 24 0 0
BITMAP
030C00
019800
00F000
00F000
000000
004000
00E000
00E000
00F000
017000
017000
023800
023800
023C00
041C00
041C00
080E00
0FFE00
100F00
100700
100780
200380
6003C0
F80FE0
ENDCHAR
STARTCHAR uni01CE
ENCODING 462
SWIDTH 543 0
DWIDTH 14 0
BBX 12 19 1 0
BITMAP
30C0
1980
0F00
0F00
0000
3F00
7380
61C0
01C0
01C0
1FC0
79C0
61C0
E1C0
E1C0
E1C0
F3C0
7ED0
3C70
ENDCHAR
STARTCHAR uni01CF
ENCODING 463
SWIDTH 325 0
DWIDTH 8 0
BBX 8 24 1 0
BITMAP
C3
66
3C
3C
00
FE
3C
38
38
38
38
38
38
38
38
38
38
38
38
38
38
38
38
FE
ENDCHAR
STARTCHAR uni01D0
ENCODING 464
SWIDTH 307 0
DWIDTH 8 0
BBX 8 19 0 0
BITMAP
C3
66
3C
3C
00
7C
1C
1C
1C
1C
1C
1C
1C
1C
1C
1C
1C
1C
7F
ENDCHAR
STARTCHAR uni01D1
ENCODING 465
SWIDTH 777 0
DWIDTH 20 0
BBX 18 24 1 0
BITMAP
061800
033000
01E000
01E000
000000
03F000
0E1C00
380700
300300
700380
700380
E001C0
E001C0
E001C0
E001C0
E001C0
E001C0
E001C0
700380
700380
300300
180700
0E1C00
03F000
ENDCHAR
STARTCHAR uni01D2
ENCODING 466
SWIDTH 602 0
DWIDTH 16 0
BBX 13 19 1 0
BITMAP
1860
0CC0
0780
0780
0000
0F80
38E0
7070
7070
E038
E038
E038
E038
E038
E038
7070
7070
38E0
0F80
ENDCHAR
STARTCHAR uni01D3
ENCODING 467
SWIDTH 719 0
DWIDTH 19 0
BBX 18 24 0 0
BITMAP
061800
033000
01E000
01E000
000000
FE0FC0
380300
380300
380300
380300
380300
380300
380300
380300
380300
380300
380300
380300
380300
380300
180200
1C0600
0E0C00
03F000
ENDCHAR
STARTCHAR uni01D4
ENCODING 468
SWIDTH 633 0
DWIDTH 16 0
BBX 15 19 0 0
BITMAP
1860
0CC0
0780
0780
0000
F8F8
3838
3838
3838
3838
3838
3838
3838
3838
3838
3838
38F8
1FBC
0E3E
ENDCHAR
STARTCHAR uni01D5
ENCODING 469
SWIDTH 719 0
DWIDTH 19 0
BBX 18 26 0 0
BITMAP
07F000
07F000
000000
031800
031800
031800
000000
FE0FC0
380300
380300
380300
380300
380300
380300
380300
380300
380300
380300
380300
380300
380300
380300
180200
1C0600
0E0C00
03F000
ENDCHAR
STARTCHAR uni01D6
ENCODING 470
SWIDTH 633 0
DWIDTH 16 0
BBX 15 21 0 0
BITMAP
0FE0
0FE0
0000
0C60
0C60
0C60
0000
F8F8
3838
3838
3838
3838
3838
3838
3838
3838
3838
3838
38F8
1FBC
0E3E
ENDCHAR
STARTCHAR uni01D7
ENCODING 471
SWIDTH 719 0
DWIDTH 19 0
BBX 18 28 0 0
BITMAP
003800
006000
00C000
018000
000000
031800
031800
031800
000000
FE0FC0
380300
380300
380300
380300
380300
380300
380300
380300
380300
380300
380300
380300
380300
380300
180200
1C0600
0E0C00
03F000
ENDCHAR
STARTCHAR uni01D8
ENCODING 472
SWIDTH 633 0
DWIDTH 16 0
BBX 15 23 0 0
BITMAP
00E0
0180
0300
0600
0000
0C60
0C60
0C60
0000
F8F8
3838
3838
3838
3838
3838
3838
3838
3838
3838
3838
38F8
1FBC
0E3E
ENDCHAR
STARTCHAR uni01D9
ENCODING 473
SWIDTH 719 0
DWIDTH 19 0
BBX 18 28 0 0
BITMAP
061800
033000
01E000
01E000
000000
031800
031800
031800
000000
FE0FC0
380300
380300
380300
380300
380300
380300
380300
380300
380300
380300
380300
380300
380300
380300
180200
1C0600
0E0C00
03F000
ENDCHAR
STARTCHAR uni01DA
ENCODING 474
SWIDTH 633 0
DWIDTH 16 0
BBX 15 23 0 0
BITMAP
1860
0CC0
0780
0780
0000
0C60
0C60
0C60
0000
F8F8
3838
3838
3838
3838
3838
3838
3838
3838
3838
3838
38F8
1FBC
0E3E
ENDCHAR
STARTCHAR uni01DB
ENCODING 475
SWIDTH 719 0
DWIDTH 19 0
BBX 18 28 0 0
BITMAP
070000
018000
00C000
006000
000000
031800
031800
031800
000000
FE0FC0
380300
380300
380300
380300
380300
380300
380300
380300
380300
380300
380300
380300
380300
380300
180200
1C0600
0E0C00
03F000
ENDCHAR
STARTCHAR uni01DC
ENCODING 476
SWIDTH 633 0
DWIDTH 16 0
BBX 15 23 0 0
BITMAP
1C00
0600
0300
0180
0000
0C60
0C60
0C60
0000
F8F8
3838
3838
3838
3838
3838
3838
3838
3838
3838
3838
38F8
1FBC
0E3E
ENDCHAR
STARTCHAR uni01DD
ENCODING 477
SWIDTH 530 0
DWIDTH 14 0
BBX 11 14 1 0
BITMAP
3E00
FF80
83C0
01C0
01E0
00E0
00E0
00E0
FFE0
E0E0
E0C0
61C0
7180
1E00
ENDCHAR
STARTCHAR uni01DE
ENCODING 478
SWIDTH 744 0
DWIDTH 19 0
BBX 19 26 0 0
BITMAP
03F800
03F800
000000
031800
031800
031800
000000
004000
00E000
00E000
00F000
017000
017000
023800
023800
023C00
041C00
041C00
080E00
0FFE00
100F00
100700
100780
200380
6003C0
F80FE0
ENDCHAR
STARTCHAR uni01DF
ENCODING 479
SWIDTH 543 0
DWIDTH 14 0
BBX 12 21 1 0
BITMAP
3F80
3F80
0000
3180
3180
3180
0000
3F00
7380
61C0
01C0
01C0
1FC0
79C0
61C0
E1C0
E1C0
E1C0
F3C0
7ED0
3C70
ENDCHAR
STARTCHAR uni01E0
ENCODING 480
SWIDTH 744 0
DWIDTH 19 0
BBX 19 26 0 0
BITMAP
03F800
03F800
000000
00E000
00E000
00E000
000000
004000
00E000
00E000
00F000
017000
017000
023800
023800
023C00
041C00
041C00
080E00
0FFE00
100F00
100700
100780
200380
6003C0
F80FE0
ENDCHAR
STARTCHAR uni01E1
ENCODING 481
SWIDTH 543 0
DWIDTH 14 0
BBX 12 21 1 0
BITMAP
3F80
3F80
0000
0E00
0E00
0E00
0000
3F00
7380
61C0
01C0
01C0
1FC0
79C0
61C0
E1C0
E1C0
E1C0
F3C0
7ED0
3C70
ENDCHAR
STARTCHAR uni01E2
ENCODING 482
SWIDTH 919 0
DWIDTH 24 0
BBX 23 22 0 0
BITMAP
003F80
003F80
000000
001FFC
001C0C
003C0C
005C00
005C00
009C00
009C00
011C10
031C10
021FF0
061C10
041C00
0FFC00
181C00
101C00
301C00
201C06
601C06
F07FFE
ENDCHAR
STARTCHAR uni01E3
ENCODING 483
SWIDTH 819 0
DWIDTH 21 0
BBX 19 17 1 0
BITMAP
03F800
03F800
000000
1F1F00
71F180
60F0C0
60E0C0
00E0E0
00E0E0
1FFFE0
78E000
E0E000
E0E000
E0F000
F1F000
7F3820
3C0FC0
ENDCHAR
STARTCHAR uni01E4
ENCODING 484
SWIDTH 732 0
DWIDTH 19 0
BBX 18 19 2 0
BITMAP
03F800
0E1E00
380600
300600
700600
700000
E00000
E00000
E00000
E00000
E00000
E03F80
E00E00
701FC0
701FC0
380E00
180E00
0E0E00
03FC00
ENDCHAR
STARTCHAR uni01E5
ENCODING 485
SWIDTH 571 0
DWIDTH 15 0
BBX 13 19 1 -5
BITMAP
1FF8
3980
70C0
70E0
70E0
70E0
70E0
30C0
19C0
1F80
7000
7000
7FE0
FFF8
FFF8
E070
E070
70E0
3F80
ENDCHAR
STARTCHAR Gcaron
ENCODING 486
SWIDTH 732 0
DWIDTH 19 0
BBX 17 24 2 0
BITMAP
061800
033000
01E000
01E000
000000
03F800
0E1E00
380600
300600
700600
700000
E00000
E00000
E00000
E00000
E00000
E03F80
E00E00
700E00
700E00
380E00
180E00
0E0E00
03FC00
ENDCHAR
STARTCHAR gcaron
ENCODING 487
SWIDTH 571 0
DWIDTH 15 0
BBX 13 24 1 -5
BITMAP
30C0
1980
0F00
0F00
0000
1FF8
3980
70C0
70E0
70E0
70E0
70E0
30C0
19C0
1F80
7000
7000
7FE0
1FF0
6070
E070
E070
70E0
3F80
ENDCHAR
STARTCHAR uni01E8
ENCODING 488
SWIDTH 708 0
DWIDTH 18 0
BBX 18 24 0 0
BITMAP
0C3000
066000
03C000
03C000
000000
FE1F00
380E00
380800
381000
382000
384000
388000
390000
3B0000
3F8000
3BC000
3BE000
39E000
38F000
387800
383C00
381E00
380F00
FE3FC0
ENDCHAR
STARTCHAR uni01E9
ENCODING 489
SWIDTH 599 0
DWIDTH 16 0
BBX 15 24 1 0
BITMAP
6180
3300
1E00
1E00
0000
F800
3800
3800
3800
3800
387C
3830
3860
38C0
3980
3B00
3F00
3B80
3BC0
39E0
38F0
3878
383C
FE3E
ENDCHAR
STARTCHAR uni01EA
ENCODING 490
SWIDTH 777 0
DWIDTH 20 0
BBX 18 23 1 -4
BITMAP
03F000
0E1C00
380700
300300
700380
700380
E001C0
E001C0
E001C0
E001C0
E001C0
E001C0
E001C0
700380
700380
300300
180700
0E1C00
03F000
00C000
018000
018000
00E000
ENDCHAR
STARTCHAR uni01EB
ENCODING 491
SWIDTH 602 0
DWIDTH 16 0
BBX 13 18 1 -4
BITMAP
0F80
38E0
7070
7070
E038
E038
E038
E038
E038
E038
7070
7070
38E0
0F80
0300
0600
0600
0380
ENDCHAR
STARTCHAR uni01EC
ENCODING 492
SWIDTH 777 0
DWIDTH 20 0
BBX 18 26 1 -4
BITMAP
03F800
03F800
000000
03F000
0E1C00
380700
300300
700380
700380
E001C0
E001C0
E001C0
E001C0
E001C0
E001C0
E001C0
700380
700380
300300
180700
0E1C00
03F000
00C000
018000
018000
00E000
ENDCHAR
STARTCHAR uni01ED
ENCODING 493
SWIDTH 602 0
DWIDTH 16 0
BBX 13 21 1 -4
BITMAP
1FC0
1FC0
0000
0F80
38E0
7070
7070
E038
E038
E038
E038
E038
E038
7070
7070
38E0
0F80
0300
0600
0600
0380
ENDCHAR
STARTCHAR uni01F0
ENCODING 496
SWIDTH 346 0
DWIDTH 9 0
BBX 9 24 0 -5
BITMAP
6180
3300
1E00
1E00
0000
1E00
0E00
0E00
0E00
0E00
0E00
0E00
0E00
0E00
0E00
0E00
0E00
0E00
0E00
0E00
CE00
CE00
CC00
F800
ENDCHAR
STARTCHAR uni01F4
ENCODING 500
SWIDTH 732 0
DWIDTH 19 0
BBX 17 24 2 0
BITMAP
003800
006000
00C000
018000
000000
03F800
0E1E00
380600
300600
700600
700000
E00000
E00000
E00000
E00000
E00000
E03F80
E00E00
700E00
700E00
380E00
180E00
0E0E00
03FC00
ENDCHAR
STARTCHAR uni01F5
ENCODING 501
SWIDTH 571 0
DWIDTH 15 0
BBX 13 24 1 -5
BITMAP
01C0
0300
0600
0C00
0000
1FF8
3980
70C0
70E0
70E0
70E0
70E0
30C0
19C0
1F80
7000
7000
7FE0
1FF0
6070
E070
E070
70E0
3F80
ENDCHAR
STARTCHAR uni01F8
ENCODING 504
SWIDTH 751 0
DWIDTH 20 0
BBX 18 24 1 0
BITMAP
0E0000
030000
018000
00C000
000000
F807C0
3C0100
3C0100
3E0100
3F0100
378100
338100
33C100
31E100
30F100
307100
307900
303D00
301F00
300F00
300F00
300700
300300
FC0300
ENDCHAR
STARTCHAR uni01F9
ENCODING 505
SWIDTH 633 0
DWIDTH 16 0
BBX 15 19 1 0
BITMAP
1C00
0600
0300
0180
0000
F8E0
7BF0
3E38
3838
3838
3838
3838
3838
3838
3838
3838
3838
3838
FEFE
ENDCHAR
STARTCHAR Aringacute
ENCODING 506
SWIDTH 744 0
DWIDTH 19 0
BBX 19 29 0 0
BITMAP
001C00
003000
006000
00C000
000000
006000
009000
009000
006000
000000
004000
00E000
00E000
00F000
017000
017000
023800
023800
023C00
041C00
041C00
080E00
0FFE00
100F00
100700
100780
200380
6003C0
F80FE0
ENDCHAR
STARTCHAR aringacute
ENCODING 507
SWIDTH 543 0
DWIDTH 14 0
BBX 12 24 1 0
BITMAP
01C0
0300
0600
0C00
0000
0600
0900
0900
0600
0000
3F00
7380
61C0
01C0
01C0
1FC0
79C0
61C0
E1C0
E1C0
E1C0
F3C0
7ED0
3C70
ENDCHAR
STARTCHAR AEacute
ENCODING 508
SWIDTH 919 0
DWIDTH 24 0
BBX 23 24 0 0
BITMAP
0001C0
000300
000600
000C00
000000
001FFC
001C0C
003C0C
005C00
005C00
009C00
009C00
011C10
031C10
021FF0
061C10
041C00
0FFC00
181C00
101C00
301C00
201C06
601C06
F07FFE
ENDCHAR
STARTCHAR aeacute
ENCODING 509
SWIDTH 819 0
DWIDTH 21 0
BBX 19 19 1 0
BITMAP
003800
006000
00C000
018000
000000
1F1F00
71F180
60F0C0
60E0C0
00E0E0
00E0E0
1FFFE0
78E000
E0E000
E0E000
E0F000
F1F000
7F3820
3C0FC0
ENDCHAR
STARTCHAR Oslashacute
ENCODING 510
SWIDTH 777 0
DWIDTH 20 0
BBX 18 24 1 0
BITMAP
001C00
003000
006000
00C000
000000
03F0C0
0E1C80
180700
300300
700780
700B80
E011C0
E031C0
E061C0
E0C1C0
E081C0
E101C0
E201C0
740380
780380
380300
380600
6E1C00
C3F000
ENDCHAR
STARTCHAR oslashacute
ENCODING 511
SWIDTH 602 0
DWIDTH 16 0
BBX 13 19 1 0
BITMAP
00E0
0180
0300
0600
0000
0F98
38D0
7060
7070
E0B8
E138
E338
E238
E438
E838
7870
3070
38E0
CF80
ENDCHAR
STARTCHAR uni0200
ENCODING 512
SWIDTH 744 0
DWIDTH 19 0
BBX 19 24 0 0
BITMAP
06C000
012000
009000
004800
000000
004000
00E000
00E000
00F000
017000
017000
023800
023800
023C00
041C00
041C00
080E00
0FFE00
100F00
100700
100780
200380
6003C0
F80FE0
ENDCHAR
STARTCHAR uni0201
ENCODING 513
SWIDTH 543 0
DWIDTH 14 0
BBX 12 19 1 0
BITMAP
6C00
1200
0900
0480
0000
3F00
7380
61C0
01C0
01C0
1FC0
79C0
61C0
E1C0
E1C0
E1C0
F3C0
7ED0
3C70
ENDCHAR
STARTCHAR uni0202
ENCODING 514
SWIDTH 744 0
DWIDTH 19 0
BBX 19 24 0 0
BITMAP
00F000
01F800
030C00
020400
000000
004000
00E000
00E000
00F000
017000
017000
023800
023800
023C00
041C00
041C00
080E00
0FFE00
100F00
100700
100780
200380
6003C0
F80FE0
ENDCHAR
STARTCHAR uni0203
ENCODING 515
SWIDTH 543 0
DWIDTH 14 0
BBX 12 19 1 0
BITMAP
0F00
1F80
30C0
2040
0000
3F00
7380
61C0
01C0
01C0
1FC0
79C0
61C0
E1C0
E1C0
E1C0
F3C0
7ED0
3C70
ENDCHAR
STARTCHAR uni0204
ENCODING 516
SWIDTH 566 0
DWIDTH 15 0
BBX 14 24 0 0
BITMAP
6C00
1200
0900
0480
0000
FFF8
3818
3818
3800
3800
3800
3800
3820
3820
3FE0
3820
3820
3800
3800
3800
3800
380C
381C
FFFC
ENDCHAR
STARTCHAR uni0205
ENCODING 517
SWIDTH 530 0
DWIDTH 14 0
BBX 11 19 1 0
BITMAP
6C00
1200
0900
0480
0000
0F00
31C0
70C0
60E0
E0E0
FFE0
E000
E000
E000
F000
7000
7820
3FE0
0F80
ENDCHAR
STARTCHAR uni0206
ENCODING 518
SWIDTH 566 0
DWIDTH 15 0
BBX 14 24 0 0
BITMAP
0F00
1F80
30C0
2040
0000
FFF8
3818
3818
3800
3800
3800
3800
3820
3820
3FE0
3820
3820
3800
3800
3800
3800
380C
381C
FFFC
ENDCHAR
STARTCHAR uni0207
ENCODING 519
SWIDTH 530 0
DWIDTH 14 0
BBX 11 19 1 0
BITMAP
0F00
1F80
30C0
2040
0000
0F00
31C0
70C0
60E0
E0E0
FFE0
E000
E000
E000
F000
7000
7820
3FE0
0F80
ENDCHAR
STARTCHAR uni0208
ENCODING 520
SWIDTH 325 0
DWIDTH 8 0
BBX 8 24 0 0
BITMAP
D8
24
12
09
00
7F
1E
1C
1C
1C
1C
1C
1C
1C
1C
1C
1C
1C
1C
1C
1C
1C
1C
7F
ENDCHAR
STARTCHAR uni0209
ENCODING 521
SWIDTH 307 0
DWIDTH 8 0
BBX 9 19 -1 0
BITMAP
D800
2400
1200
0900
0000
3E00
0E00
0E00
0E00
0E00
0E00
0E00
0E00
0E00
0E00
0E00
0E00
0E00
3F80
ENDCHAR
STARTCHAR uni020A
ENCODING 522
SWIDTH 325 0
DWIDTH 8 0
BBX 8 24 1 0
BITMAP
3C
7E
C3
81
00
FE
3C
38
38
38
38
38
38
38
38
38
38
38
38
38
38
38
38
FE
ENDCHAR
STARTCHAR uni020B
ENCODING 523
SWIDTH 307 0
DWIDTH 8 0
BBX 8 19 0 0
BITMAP
3C
7E
C3
81
00
7C
1C
1C
1C
1C
1C
1C
1C
1C
1C
1C
1C
1C
7F
ENDCHAR
STARTCHAR uni020C
ENCODING 524
SWIDTH 777 0
DWIDTH 20 0
BBX 18 24 1 0
BITMAP
0D8000
024000
012000
009000
000000
03F000
0E1C00
380700
300300
700380
700380
E001C0
E001C0
E001C0
E001C0
E001C0
E001C0
E001C0
700380
700380
300300
180700
0E1C00
03F000
ENDCHAR
STARTCHAR uni020D
ENCODING 525
SWIDTH 602 0
DWIDTH 16 0
BBX 13 19 1 0
BITMAP
3600
0900
0480
0240
0000
0F80
38E0
7070
7070
E038
E038
E038
E038
E038
E038
7070
7070
38E0
0F80
ENDCHAR
STARTCHAR uni020E
ENCODING 526
SWIDTH 777 0
DWIDTH 20 0
BBX 18 24 1 0
BITMAP
01E000
03F000
061800
040800
000000
03F000
0E1C00
380700
300300
700380
700380
E001C0
E001C0
E001C0
E001C0
E001C0
E001C0
E001C0
700380
700380
300300
180700
0E1C00
03F000
ENDCHAR
STARTCHAR uni020F
ENCODING 527
SWIDTH 602 0
DWIDTH 16 0
BBX 13 19 1 0
BITMAP
0780
0FC0
1860
1020
0000
0F80
38E0
7070
7070
E038
E038
E038
E038
E038
E038
7070
7070
38E0
0F80
ENDCHAR
STARTCHAR uni0210
ENCODING 528
SWIDTH 679 0
DWIDTH 18 0
BBX 16 24 1 0
BITMAP
3600
0900
0480
0240
0000
FFC0
3870
3830
3838
3838
3838
3838
3830
3860
38C0
3FC0
39C0
38E0
38F0
3870
3878
383C
383E
FE1F
ENDCHAR
STARTCHAR uni0211
ENCODING 529
SWIDTH 440 0
DWIDTH 11 0
BBX 10 19 1 0
BITMAP
D800
2400
1200
0900
0000
F9C0
3BC0
3CC0
38C0
3800
3800
3800
3800
3800
3800
3800
3800
3C00
FF00
ENDCHAR
STARTCHAR uni0212
ENCODING 530
SWIDTH 679 0
DWIDTH 18 0
BBX 16 24 1 0
BITMAP
0780
0FC0
1860
1020
0000
FFC0
3870
3830
3838
3838
3838
3838
3830
3860
38C0
3FC0
39C0
38E0
38F0
3870
3878
383C
383E
FE1F
ENDCHAR
STARTCHAR uni0213
ENCODING 531
SWIDTH 440 0
DWIDTH 11 0
BBX 10 19 1 0
BITMAP
1E00
3F00
6180
4080
0000
F9C0
3BC0
3CC0
38C0
3800
3800
3800
3800
3800
3800
3800
3800
3C00
FF00
ENDCHAR
STARTCHAR uni0214
ENCODING 532
SWIDTH 719 0
DWIDTH 19 0
BBX 18 24 0 0
BITMAP
0D8000
024000
012000
009000
000000
FE0FC0
380300
380300
380300
380300
380300
380300
380300
380300
380300
380300
380300
380300
380300
380300
180200
1C0600
0E0C00
03F000
ENDCHAR
STARTCHAR uni0215
ENCODING 533
SWIDTH 633 0
DWIDTH 16 0
BBX 15 19 0 0
BITMAP
3600
0900
0480
0240
0000
F8F8
3838
3838
3838
3838
3838
3838
3838
3838
3838
3838
38F8
1FBC
0E3E
ENDCHAR
STARTCHAR uni0216
ENCODING 534
SWIDTH 719 0
DWIDTH 19 0
BBX 18 24 0 0
BITMAP
01E000
03F000
061800
040800
000000
FE0FC0
380300
380300
380300
380300
380300
380300
380300
380300
380300
380300
380300
380300
380300
380300
180200
1C0600
0E0C00
03F000
ENDCHAR
STARTCHAR uni0217
ENCODING 535
SWIDTH 633 0
DWIDTH 16 0
BBX 15 19 0 0
BITMAP
0780
0FC0
1860
1020
0000
F8F8
3838
3838
3838
3838
3838
3838
3838
3838
3838
3838
38F8
1FBC
0E3E
ENDCHAR
STARTCHAR Scommaaccent
ENCODING 536
SWIDTH 542 0
DWIDTH 14 0
BBX 11 29 2 -10
BITMAP
1F80
71C0
60C0
E0C0
E000
E000
F000
7C00
3E00
1F80
07C0
03C0
01E0
00E0
C0E0
C0E0
C0C0
E180
7F00
0000
0E00
0E00
0E00
0E00
0600
0600
0600
0400
0C00
ENDCHAR
STARTCHAR scommaaccent
ENCODING 537
SWIDTH 504 0
DWIDTH 13 0
BBX 10 24 2 -10
BITMAP
3F00
7380
E180
E180
F000
F800
7F00
3F80
07C0
C1C0
C1C0
C1C0
E380
3F00
0000
0E00
0E00
0E00
0E00
0600
0600
0600
0400
0C00
ENDCHAR
STARTCHAR Tcommaaccent
ENCODING 538
SWIDTH 663 0
DWIDTH 17 0
BBX 17 29 0 -10
BITMAP
FFFF80
C1C180
C1C180
01C000
01C000
01C000
01C000
01C000
01C000
01C000
01C000
01C000
01C000
01C000
01C000
01C000
01C000
03E000
0FF800
000000
01C000
01C000
01C000
01C000
00C000
00C000
00C000
008000
018000
ENDCHAR
STARTCHAR tcommaaccent
ENCODING 539
SWIDTH 392 0
DWIDTH 10 0
BBX 9 28 1 -10
BITMAP
1800
3800
3800
3800
FF80
3800
3800
3800
3800
3800
3800
3800
3800
3800
3800
3800
1C00
0F80
0000
1C00
1C00
1C00
1C00
0C00
0C00
0C00
0800
1800
ENDCHAR
STARTCHAR uni021E
ENCODING 542
SWIDTH 771 0
DWIDTH 20 0
BBX 18 24 1 0
BITMAP
061800
033000
01E000
01E000
000000
FE1FC0
380700
380700
380700
380700
380700
380700
380700
380700
3FFF00
380700
380700
380700
380700
380700
380700
380700
380700
FE1FC0
ENDCHAR
STARTCHAR uni021F
ENCODING 543
SWIDTH 633 0
DWIDTH 16 0
BBX 15 24 1 0
BITMAP
6180
3300
1E00
1E00
0000
F800
3800
3800
3800
3800
38E0
3BF0
3E38
3838
3838
3838
3838
3838
3838
3838
3838
3838
3838
FEFE
ENDCHAR
STARTCHAR uni0226
ENCODING 550
SWIDTH 744 0
DWIDTH 19 0
BBX 19 23 0 0
BITMAP
00E000
00E000
00E000
000000
004000
00E000
00E000
00F000
017000
017000
023800
023800
023C00
041C00
041C00
080E00
0FFE00
100F00
100700
100780
200380
6003C0
F80FE0
ENDCHAR
STARTCHAR uni0227
ENCODING 551
SWIDTH 543 0
DWIDTH 14 0
BBX 12 18 1 0
BITMAP
0E00
0E00
0E00
0000
3F00
7380
61C0
01C0
01C0
1FC0
79C0
61C0
E1C0
E1C0
E1C0
F3C0
7ED0
3C70
ENDCHAR
STARTCHAR uni0228
ENCODING 552
SWIDTH 566 0
DWIDTH 15 0
BBX 14 24 0 -5
BITMAP
FFF8
3818
3818
3800
3800
3800
3800
3820
3820
3FE0
3820
3820
3800
3800
3800
3800
380C
381C
FFFC
0200
0300
0180
0180
0700
ENDCHAR
STARTCHAR uni0229
ENCODING 553
SWIDTH 530 0
DWIDTH 14 0
BBX 11 19 1 -5
BITMAP
0F00
31C0
70C0
60E0
E0E0
FFE0
E000
E000
E000
F000
7000
7820
3FE0
0F80
0400
0600
0300
0300
0E00
ENDCHAR
STARTCHAR uni022A
ENCODING 554
SWIDTH 777 0
DWIDTH 20 0
BBX 18 26 1 0
BITMAP
07F000
07F000
000000
063000
063000
063000
000000
03F000
0E1C00
380700
300300
700380
700380
E001C0
E001C0
E001C0
E001C0
E001C0
E001C0
E001C0
700380
700380
300300
180700
0E1C00
03F000
ENDCHAR
STARTCHAR uni022B
ENCODING 555
SWIDTH 602 0
DWIDTH 16 0
BBX 13 21 1 0
BITMAP
1FC0
1FC0
0000
18C0
18C0
18C0
0000
0F80
38E0
7070
7070
E038
E038
E038
E038
E038
E038
7070
7070
38E0
0F80
ENDCHAR
STARTCHAR uni022C
ENCODING 556
SWIDTH 777 0
DWIDTH 20 0
BBX 18 26 1 0
BITMAP
03F800
03F800
000000
038800
03F000
047000
000000
03F000
0E1C00
380700
300300
700380
700380
E001C0
E001C0
E001C0
E001C0
E001C0
E001C0
E001C0
700380
700380
300300
180700
0E1C00
03F000
ENDCHAR
STARTCHAR uni022D
ENCODING 557
SWIDTH 602 0
DWIDTH 16 0
BBX 13 21 1 0
BITMAP
1FC0
1FC0
0000
1C40
1F80
2380
0000
0F80
38E0
7070
7070
E038
E038
E038
E038
E038
E038
7070
7070
38E0
0F80
ENDCHAR
STARTCHAR uni022E
ENCODING 558
SWIDTH 777 0
DWIDTH 20 0
BBX 18 23 1 0
BITMAP
00E000
00E000
00E000
000000
03F000
0E1C00
380700
300300
700380
700380
E001C0
E001C0
E001C0
E001C0
E001C0
E001C0
E001C0
700380
700380
300300
180700
0E1C00
03F000
ENDCHAR
STARTCHAR uni022F
ENCODING 559
SWIDTH 602 0
DWIDTH 16 0
BBX 13 18 1 0
BITMAP
0700
0700
0700
0000
0F80
38E0
7070
7070
E038
E038
E038
E038
E038
E038
7070
7070
38E0
0F80
ENDCHAR
STARTCHAR uni0230
ENCODING 560
SWIDTH 777 0
DWIDTH 20 0
BBX 18 26 1 0
BITMAP
03F800
03F800
000000
00E000
00E000
00E000
000000
03F000
0E1C00
380700
300300
700380
700380
E001C0
E001C0
E001C0
E001C0
E001C0
E001C0
E001C0
700380
700380
300300
180700
0E1C00
03F000
ENDCHAR
STARTCHAR uni0231
ENCODING 561
SWIDTH 602 0
DWIDTH 16 0
BBX 13 21 1 0
BITMAP
1FC0
1FC0
0000
0700
0700
0700
0000
0F80
38E0
7070
7070
E038
E038
E038
E038
E038
E038
7070
7070
38E0
0F80
ENDCHAR
STARTCHAR uni0232
ENCODING 562
SWIDTH 678 0
DWIDTH 18 0
BBX 18 22 0 0
BITMAP
0FE000
0FE000
000000
FE07C0
780100
380200
1C0200
1E0400
0E0800
0F0800
079000
03A000
03E000
01C000
01C000
01C000
01C000
01C000
01C000
01C000
01C000
07F000
ENDCHAR
STARTCHAR uni0233
ENCODING 563
SWIDTH 551 0
DWIDTH 14 0
BBX 14 22 0 -5
BITMAP
1FC0
1FC0
0000
FC3C
7008
7818
3810
3C10
1C20
1C20
0E40
0E40
0FC0
0780
0780
0300
0300
0200
0600
0C00
1C00
3C00
ENDCHAR
STARTCHAR uni0250
ENCODING 592
SWIDTH 543 0
DWIDTH 14 0
BBX 12 14 1 0
BITMAP
E3C0
B7E0
3CF0
3870
3870
3870
3860
39E0
3F80
3800
3800
3860
1CE0
0FC0
ENDCHAR
STARTCHAR uni0254
ENCODING 596
SWIDTH 509 0
DWIDTH 13 0
BBX 11 14 1 0
BITMAP
7E00
E380
C1C0
C1C0
00E0
00E0
00E0
00E0
00E0
01E0
01C0
83C0
FF80
7E00
ENDCHAR
STARTCHAR uni0258
ENCODING 600
SWIDTH 530 0
DWIDTH 14 0
BBX 11 14 1 0
BITMAP
1E00
7180
61C0
E0C0
E0E0
FFE0
00E0
00E0
00E0
01E0
01C0
83C0
FF80
3E00
ENDCHAR
STARTCHAR uni0259
ENCODING 601
SWIDTH 530 0
DWIDTH 14 0
BBX 11 14 1 0
BITMAP
3E00
FF80
83C0
01C0
01E0
00E0
00E0
00E0
FFE0
E0E0
E0C0
61C0
7180
1E00
ENDCHAR
STARTCHAR uni025F
ENCODING 607
SWIDTH 404 0
DWIDTH 10 0
BBX 10 20 1 -6
BITMAP
1FC0
0700
0700
0700
0700
0700
0700
0700
0700
0700
0700
0700
0700
3FC0
0700
0700
C700
C700
C600
7C00
ENDCHAR
STARTCHAR uni0265
ENCODING 613
SWIDTH 633 0
DWIDTH 16 0
BBX 15 19 1 -5
BITMAP
FEFE
3838
3838
3838
3838
3838
3838
3838
3838
3838
3838
38F8
1FB8
0E38
0038
0038
0038
0038
003E
ENDCHAR
STARTCHAR uni0275
ENCODING 629
SWIDTH 602 0
DWIDTH 16 0
BBX 13 14 1 0
BITMAP
0F80
38E0
7070
7070
E038
E038
FFF8
FFF8
E038
E038
7070
7070
38E0
0F80
ENDCHAR
STARTCHAR uni0279
ENCODING 633
SWIDTH 440 0
DWIDTH 11 0
BBX 10 14 1 0
BITMAP
3FC0
0F00
0700
0700
0700
0700
0700
0700
0700
0700
C700
CF00
F700
E7C0
ENDCHAR
STARTCHAR uni0287
ENCODING 647
SWIDTH 392 0
DWIDTH 10 0
BBX 9 18 1 0
BITMAP
F800
1C00
0E00
0E00
0E00
0E00
0E00
0E00
0E00
0E00
0E00
0E00
0E00
FF80
0E00
0E00
0E00
0C00
ENDCHAR
STARTCHAR uni0288
ENCODING 648
SWIDTH 392 0
DWIDTH 10 0
BBX 9 23 1 -5
BITMAP
1800
3800
3800
3800
FF80
3800
3800
3800
3800
3800
3800
3800
3800
3800
3800
3800
3800
3800
3800
3980
3980
1980
0F80
ENDCHAR
STARTCHAR uni0289
ENCODING 649
SWIDTH 633 0
DWIDTH 16 0
BBX 15 14 0 0
BITMAP
F8F8
3838
3838
3838
3838
3838
FFFE
FFFE
3838
3838
3838
38F8
1FBC
0E3E
ENDCHAR
STARTCHAR uni028C
ENCODING 652
SWIDTH 545 0
DWIDTH 14 0
BBX 14 14 0 0
BITMAP
0300
0300
0380
0780
07C0
09C0
09E0
10E0
10E0
3070
2070
6078
4038
F0FC
ENDCHAR
STARTCHAR uni028D
ENCODING 653
SWIDTH 795 0
DWIDTH 21 0
BBX 21 14 0 0
BITMAP
020100
060300
070380
0F0780
0F8780
0B85C0
1389C0
11C9C0
11D8E0
21F0E0
20F0E0
60E070
406070
F861F8
ENDCHAR
STARTCHAR uni028E
ENCODING 654
SWIDTH 551 0
DWIDTH 14 0
BBX 14 19 0 0
BITMAP
00F0
00E0
00C0
0180
0100
0300
0300
0780
0780
0FC0
09C0
09C0
10E0
10E0
20F0
2070
6078
4038
F0FC
ENDCHAR
STARTCHAR uni029E
ENCODING 670
SWIDTH 599 0
DWIDTH 16 0
BBX 15 19 1 -5
BITMAP
F8FE
7838
3C38
1E38
0F38
07B8
03B8
01F8
01B8
0338
0638
0C38
1838
7C38
0038
0038
0038
0038
003E
ENDCHAR
STARTCHAR uni02BB
ENCODING 699
SWIDTH 265 0
DWIDTH 7 0
BBX 3 7 2 12
BITMAP
60
C0
C0
C0
E0
E0
E0
ENDCHAR
STARTCHAR afii57929
ENCODING 700
SWIDTH 265 0
DWIDTH 7 0
BBX 3 7 2 12
BITMAP
E0
E0
60
60
60
C0
80
ENDCHAR
STARTCHAR afii64937
ENCODING 701
SWIDTH 265 0
DWIDTH 7 0
BBX 3 7 2 12
BITMAP
E0
E0
C0
C0
C0
60
20
ENDCHAR
STARTCHAR circumflex
ENCODING 710
SWIDTH 602 0
DWIDTH 16 0
BBX 8 4 4 15
BITMAP
3C
3C
66
C3
ENDCHAR
STARTCHAR caron
ENCODING 711
SWIDTH 602 0
DWIDTH 16 0
BBX 8 4 4 15
BITMAP
C3
66
3C
3C
ENDCHAR
STARTCHAR uni02C8
ENCODING 712
SWIDTH 241 0
DWIDTH 6 0
BBX 3 6 2 13
BITMAP
E0
E0
E0
40
40
40
ENDCHAR
STARTCHAR macron
ENCODING 713
SWIDTH 602 0
DWIDTH 16 0
BBX 7 2 4 17
BITMAP
FE
FE
ENDCHAR
STARTCHAR uni02CA
ENCODING 714
SWIDTH 602 0
DWIDTH 16 0
BBX 6 4 5 15
BITMAP
1C
30
60
C0
ENDCHAR
STARTCHAR uni02CB
ENCODING 715
SWIDTH 602 0
DWIDTH 16 0
BBX 6 4 4 15
BITMAP
E0
30
18
0C
ENDCHAR
STARTCHAR uni02CD
ENCODING 717
SWIDTH 602 0
DWIDTH 16 0
BBX 7 2 4 -3
BITMAP
FE
FE
ENDCHAR
STARTCHAR uni02CE
ENCODING 718
SWIDTH 602 0
DWIDTH 16 0
BBX 6 4 4 -5
BITMAP
E0
30
18
0C
ENDCHAR
STARTCHAR uni02CF
ENCODING 719
SWIDTH 602 0
DWIDTH 16 0
BBX 6 4 5 -5
BITMAP
1C
30
60
C0
ENDCHAR
STARTCHAR breve
ENCODING 728
SWIDTH 602 0
DWIDTH 16 0
BBX 8 4 4 15
BITMAP
81
C3
7E
3C
ENDCHAR
STARTCHAR dotaccent
ENCODING 729
SWIDTH 602 0
DWIDTH 16 0
BBX 3 3 6 16
BITMAP
E0
E0
E0
ENDCHAR
STARTCHAR ring
ENCODING 730
SWIDTH 602 0
DWIDTH 16 0
BBX 4 4 6 16
BITMAP
60
90
90
60
ENDCHAR
STARTCHAR ogonek
ENCODING 731
SWIDTH 602 0
DWIDTH 16 0
BBX 4 4 6 -4
BITMAP
60
C0
C0
70
ENDCHAR
STARTCHAR tilde
ENCODING 732
SWIDTH 602 0
DWIDTH 16 0
BBX 8 3 4 16
BITMAP
71
7E
8E
ENDCHAR
STARTCHAR hungarumlaut
ENCODING 733
SWIDTH 602 0
DWIDTH 16 0
BBX 8 4 5 15
BITMAP
1B
24
48
90
ENDCHAR
STARTCHAR uni02EE
ENCODING 750
SWIDTH 458 0
DWIDTH 12 0
BBX 8 7 2 12
BITMAP
E7
E7
E7
63
63
C6
84
ENDCHAR
STARTCHAR uni037E
ENCODING 894
SWIDTH 265 0
DWIDTH 7 0
BBX 3 19 2 -5
BITMAP
E0
E0
E0
00
00
00
00
00
00
00
00
00
E0
E0
60
60
60
60
C0
ENDCHAR
STARTCHAR tonos
ENCODING 900
SWIDTH 602 0
DWIDTH 16 0
BBX 6 4 5 15
BITMAP
1C
30
60
C0
ENDCHAR
STARTCHAR dieresistonos
ENCODING 901
SWIDTH 602 0
DWIDTH 16 0
BBX 8 8 4 16
BITMAP
07
0C
18
30
00
C6
C6
C6
ENDCHAR
STARTCHAR anoteleia
ENCODING 903
SWIDTH 608 0
DWIDTH 16 0
BBX 3 3 6 7
BITMAP
E0
E0
E0
ENDCHAR
STARTCHAR mu
ENCODING 956
SWIDTH 626 0
DWIDTH 16 0
BBX 15 18 0 -4
BITMAP
F8F8
3838
3838
3838
3838
3838
3838
3838
3838
3838
3838
38F8
3FBC
3F3E
3800
3800
3800
3800
ENDCHAR
STARTCHAR uni1E00
ENCODING 7680
SWIDTH 744 0
DWIDTH 19 0
BBX 19 24 0 -5
BITMAP
004000
00E000
00E000
00F000
017000
017000
023800
023800
023C00
041C00
041C00
080E00
0FFE00
100F00
100700
100780
200380
6003C0
F80FE0
000000
003000
004800
004800
003000
ENDCHAR
STARTCHAR uni1E01
ENCODING 7681
SWIDTH 543 0
DWIDTH 14 0
BBX 12 19 1 -5
BITMAP
3F00
7380
61C0
01C0
01C0
1FC0
79C0
61C0
E1C0
E1C0
E1C0
F3C0
7ED0
3C70
0000
0600
0900
0900
0600
ENDCHAR
STARTCHAR uni1E02
ENCODING 7682
SWIDTH 609 0
DWIDTH 16 0
BBX 13 23 1 0
BITMAP
0700
0700
0700
0000
FFC0
38E0
3870
3870
3870
3870
3860
38E0
3980
3FC0
39E0
3870
3838
3838
3838
3838
3878
38F0
FFE0
ENDCHAR
STARTCHAR uni1E03
ENCODING 7683
SWIDTH 611 0
DWIDTH 16 0
BBX 14 23 0 0
BITMAP
1C00
1C00
1C00
0000
F800
3800
3800
3800
3800
39E0
3BF8
3E38
383C
381C
381C
381C
381C
381C
381C
3818
3C38
3BF0
31E0
ENDCHAR
STARTCHAR uni1E04
ENCODING 7684
SWIDTH 609 0
DWIDTH 16 0
BBX 13 23 1 -4
BITMAP
FFC0
38E0
3870
3870
3870
3870
3860
38E0
3980
3FC0
39E0
3870
3838
3838
3838
3838
3878
38F0
FFE0
0000
0700
0700
0700
ENDCHAR
STARTCHAR uni1E05
ENCODING 7685
SWIDTH 611 0
DWIDTH 16 0
BBX 14 23 0 -4
BITMAP
F800
3800
3800
3800
3800
39E0
3BF8
3E38
383C
381C
381C
381C
381C
381C
381C
3818
3C38
3BF0
31E0
0000
0380
0380
0380
ENDCHAR
STARTCHAR uni1E06
ENCODING 7686
SWIDTH 609 0
DWIDTH 16 0
BBX 13 22 1 -3
BITMAP
FFC0
38E0
3870
3870
3870
3870
3860
38E0
3980
3FC0
39E0
3870
3838
3838
3838
3838
3878
38F0
FFE0
0000
1FC0
1FC0
ENDCHAR
STARTCHAR uni1E07
ENCODING 7687
SWIDTH 611 0
DWIDTH 16 0
BBX 14 22 0 -3
BITMAP
F800
3800
3800
3800
3800
39E0
3BF8
3E38
383C
381C
381C
381C
381C
381C
381C
3818
3C38
3BF0
31E0
0000
0FE0
0FE0
ENDCHAR
STARTCHAR uni1E08
ENCODING 7688
SWIDTH 695 0
DWIDTH 18 0
BBX 15 29 1 -5
BITMAP
0070
00C0
0180
0300
0000
03F8
0E1E
3806
3006
7006
6000
E000
E000
E000
E000
E000
E000
F000
7000
7800
3C00
1E02
0FFE
03F8
0100
0180
00C0
00C0
0380
ENDCHAR
STARTCHAR uni1E09
ENCODING 7689
SWIDTH 509 0
DWIDTH 13 0
BBX 11 24 1 -5
BITMAP
01C0
0300
0600
0C00
0000
0FC0
38E0
7060
7060
E000
E000
E000
E000
E000
F000
7000
7820
3FE0
0FC0
0400
0600
0300
0300
0E00
ENDCHAR
STARTCHAR uni1E0A
ENCODING 7690
SWIDTH 768 0
DWIDTH 20 0
BBX 18 23 1 0
BITMAP
01C000
01C000
01C000
000000
FFF800
381E00
380700
380380
380380
380180
3801C0
3801C0
3801C0
3801C0
3801C0
3801C0
3801C0
380180
380380
380300
380600
3C1C00
FFF000
ENDCHAR
STARTCHAR uni1E0B
ENCODING 7691
SWIDTH 642 0
DWIDTH 17 0
BBX 14 23 2 0
BITMAP
00E0
00E0
00E0
0000
01F0
0070
0070
0070
0070
1E70
3F70
70F0
6070
E070
E070
E070
E070
E070
E070
F070
71F0
7F78
1C7C
ENDCHAR
STARTCHAR uni1E0C
ENCODING 7692
SWIDTH 768 0
DWIDTH 20 0
BBX 18 23 1 -4
BITMAP
FFF800
381E00
380700
380380
380380
380180
3801C0
3801C0
3801C0
3801C0
3801C0
3801C0
3801C0
380180
380380
380300
380600
3C1C00
FFF000
000000
038000
038000
038000
ENDCHAR
STARTCHAR uni1E0D
ENCODING 7693
SWIDTH 642 0
DWIDTH 17 0
BBX 14 23 2 -4
BITMAP
01F0
0070
0070
0070
0070
1E70
3F70
70F0
6070
E070
E070
E070
E070
E070
E070
F070
71F0
7F78
1C7C
0000
0700
0700
0700
ENDCHAR
STARTCHAR uni1E0E
ENCODING 7694
SWIDTH 768 0
DWIDTH 20 0
BBX 18 22 1 -3
BITMAP
FFF800
381E00
380700
380380
380380
380180
3801C0
3801C0
3801C0
3801C0
3801C0
3801C0
3801C0
380180
380380
380300
380600
3C1C00
FFF000
000000
0FE000
0FE000
ENDCHAR
STARTCHAR uni1E0F
ENCODING 7695
SWIDTH 642 0
DWIDTH 17 0
BBX 14 22 2 -3
BITMAP
01F0
0070
0070
0070
0070
1E70
3F70
70F0
6070
E070
E070
E070
E070
E070
E070
F070
71F0
7F78
1C7C
0000
1FC0
1FC0
ENDCHAR
STARTCHAR uni1E10
ENCODING 7696
SWIDTH 768 0
DWIDTH 20 0
BBX 18 24 1 -5
BITMAP
FFF800
381E00
380700
380380
380380
380180
3801C0
3801C0
3801C0
3801C0
3801C0
3801C0
3801C0
380180
380380
380300
380600
3C1C00
FFF000
010000
018000
00C000
00C000
038000
ENDCHAR
STARTCHAR uni1E11
ENCODING 7697
SWIDTH 642 0
DWIDTH 17 0
BBX 14 24 2 -5
BITMAP
01F0
0070
0070
0070
0070
1E70
3F70
70F0
6070
E070
E070
E070
E070
E070
E070
F070
71F0
7F78
1F7C
0200
0300
0180
0180
0700
ENDCHAR
STARTCHAR uni1E12
ENCODING 7698
SWIDTH 768 0
DWIDTH 20 0
BBX 18 24 1 -5
BITMAP
FFF800
381E00
380700
380380
380380
380180
3801C0
3801C0
3801C0
3801C0
3801C0
3801C0
3801C0
380180
380380
380300
380600
3C1C00
FFF000
000000
03C000
03C000
066000
0C3000
ENDCHAR
STARTCHAR uni1E13
ENCODING 7699
SWIDTH 642 0
DWIDTH 17 0
BBX 14 24 2 -5
BITMAP
01F0
0070
0070
0070
0070
1E70
3F70
70F0
6070
E070
E070
E070
E070
E070
E070
F070
71F0
7F78
1C7C
0000
0780
0780
0CC0
1860
ENDCHAR
STARTCHAR uni1E14
ENCODING 7700
SWIDTH 566 0
DWIDTH 15 0
BBX 14 27 0 0
BITMAP
1C00
0600
0300
0180
0000
1FC0
1FC0
0000
FFF8
3818
3818
3800
3800
3800
3800
3820
3820
3FE0
3820
3820
3800
3800
3800
3800
380C
381C
FFFC
ENDCHAR
STARTCHAR uni1E15
ENCODING 7701
SWIDTH 530 0
DWIDTH 14 0
BBX 11 22 1 0
BITMAP
3800
0C00
0600
0300
0000
3F80
3F80
0000
0F00
31C0
70C0
60E0
E0E0
FFE0
E000
E000
E000
F000
7000
7820
3FE0
0F80
ENDCHAR
STARTCHAR uni1E16
ENCODING 7702
SWIDTH 566 0
DWIDTH 15 0
BBX 14 27 0 0
BITMAP
00E0
0180
0300
0600
0000
1FC0
1FC0
0000
FFF8
3818
3818
3800
3800
3800
3800
3820
3820
3FE0
3820
3820
3800
3800
3800
3800
380C
381C
FFFC
ENDCHAR
STARTCHAR uni1E17
ENCODING 7703
SWIDTH 530 0
DWIDTH 14 0
BBX 11 22 1 0
BITMAP
01C0
0300
0600
0C00
0000
3F80
3F80
0000
0F00
31C0
70C0
60E0
E0E0
FFE0
E000
E000
E000
F000
7000
7820
3FE0
0F80
ENDCHAR
STARTCHAR uni1E18
ENCODING 7704
SWIDTH 566 0
DWIDTH 15 0
BBX 14 24 0 -5
BITMAP
FFF8
3818
3818
3800
3800
3800
3800
3820
3820
3FE0
3820
3820
3800
3800
3800
3800
380C
381C
FFFC
0000
0780
0780
0CC0
1860
ENDCHAR
STARTCHAR uni1E19
ENCODING 7705
SWIDTH 530 0
DWIDTH 14 0
BBX 11 19 1 -5
BITMAP
0F00
31C0
70C0
60E0
E0E0
FFE0
E000
E000
E000
F000
7000
7820
3FE0
0F80
0000
0F00
0F00
1980
30C0
ENDCHAR
STARTCHAR uni1E1A
ENCODING 7706
SWIDTH 566 0
DWIDTH 15 0
BBX 14 23 0 -4
BITMAP
FFF8
3818
3818
3800
3800
3800
3800
3820
3820
3FE0
3820
3820
3800
3800
3800
3800
380C
381C
FFFC
0000
0E20
0FC0
11C0
ENDCHAR
STARTCHAR uni1E1B
ENCODING 7707
SWIDTH 530 0
DWIDTH 14 0
BBX 11 18 1 -4
BITMAP
0F00
31C0
70C0
60E0
E0E0
FFE0
E000
E000
E000
F000
7000
7820
3FE0
0F80
0000
1C40
1F80
2380
ENDCHAR
STARTCHAR uni1E1C
ENCODING 7708
SWIDTH 566 0
DWIDTH 15 0
BBX 14 29 0 -5
BITMAP
2040
30C0
1F80
0F00
0000
FFF8
3818
3818
3800
3800
3800
3800
3820
3820
3FE0
3820
3820
3800
3800
3800
3800
380C
381C
FFFC
0200
0300
0180
0180
0700
ENDCHAR
STARTCHAR uni1E1D
ENCODING 7709
SWIDTH 530 0
DWIDTH 14 0
BBX 11 24 1 -5
BITMAP
2040
30C0
1F80
0F00
0000
0F00
31C0
70C0
60E0
E0E0
FFE0
E000
E000
E000
F000
7000
7820
3FE0
0F80
0400
0600
0300
0300
0E00
ENDCHAR
STARTCHAR uni1E1E
ENCODING 7710
SWIDTH 548 0
DWIDTH 14 0
BBX 12 23 1 0
BITMAP
0E00
0E00
0E00
0000
FFF0
3830
3830
3800
3800
3800
3800
3840
3840
3FC0
3840
3840
3800
3800
3800
3800
3800
3800
FE00
ENDCHAR
STARTCHAR uni1E1F
ENCODING 7711
SWIDTH 404 0
DWIDTH 10 0
BBX 10 24 1 0
BITMAP
0E00
0E00
0E00
0000
0F80
18C0
38C0
38C0
3800
3800
FF00
3800
3800
3800
3800
3800
3800
3800
3800
3800
3800
3800
3800
FE00
ENDCHAR
STARTCHAR uni1E20
ENCODING 7712
SWIDTH 732 0
DWIDTH 19 0
BBX 17 22 2 0
BITMAP
07F000
07F000
000000
03F800
0E1E00
380600
300600
700600
700000
E00000
E00000
E00000
E00000
E00000
E03F80
E00E00
700E00
700E00
380E00
180E00
0E0E00
03FC00
ENDCHAR
STARTCHAR uni1E21
ENCODING 7713
SWIDTH 571 0
DWIDTH 15 0
BBX 13 22 1 -5
BITMAP
1FC0
1FC0
0000
1FF8
3980
70C0
70E0
70E0
70E0
70E0
30C0
19C0
1F80
7000
7000
7FE0
1FF0
6070
E070
E070
70E0
3F80
ENDCHAR
STARTCHAR uni1E22
ENCODING 7714
SWIDTH 771 0
DWIDTH 20 0
BBX 18 23 1 0
BITMAP
00E000
00E000
00E000
000000
FE1FC0
380700
380700
380700
380700
380700
380700
380700
380700
3FFF00
380700
380700
380700
380700
380700
380700
380700
380700
FE1FC0
ENDCHAR
STARTCHAR uni1E23
ENCODING 7715
SWIDTH 633 0
DWIDTH 16 0
BBX 15 23 1 0
BITMAP
1C00
1C00
1C00
0000
F800
3800
3800
3800
3800
38E0
3BF0
3E38
3838
3838
3838
3838
3838
3838
3838
3838
3838
3838
FEFE
ENDCHAR
STARTCHAR uni1E24
ENCODING 7716
SWIDTH 771 0
DWIDTH 20 0
BBX 18 23 1 -4
BITMAP
FE1FC0
380700
380700
380700
380700
380700
380700
380700
380700
3FFF00
380700
380700
380700
380700
380700
380700
380700
380700
FE1FC0
000000
00E000
00E000
00E000
ENDCHAR
STARTCHAR uni1E25
ENCODING 7717
SWIDTH 633 0
DWIDTH 16 0
BBX 15 23 1 -4
BITMAP
F800
3800
3800
3800
3800
38E0
3BF0
3E38
3838
3838
3838
3838
3838
3838
3838
3838
3838
3838
FEFE
0000
0380
0380
0380
ENDCHAR
STARTCHAR uni1E26
ENCODING 7718
SWIDTH 771 0
DWIDTH 20 0
BBX 18 23 1 0
BITMAP
031800
031800
031800
000000
FE1FC0
380700
380700
380700
380700
380700
380700
380700
380700
3FFF00
380700
380700
380700
380700
380700
380700
380700
380700
FE1FC0
ENDCHAR
STARTCHAR uni1E27
ENCODING 7719
SWIDTH 633 0
DWIDTH 16 0
BBX 15 23 1 0
BITMAP
6300
6300
6300
0000
F800
3800
3800
3800
3800
38E0
3BF0
3E38
3838
3838
3838
3838
3838
3838
3838
3838
3838
3838
FEFE
ENDCHAR
STARTCHAR uni1E28
ENCODING 7720
SWIDTH 771 0
DWIDTH 20 0
BBX 18 24 1 -5
BITMAP
FE1FC0
380700
380700
380700
380700
380700
380700
380700
380700
3FFF00
380700
380700
380700
380700
380700
380700
380700
380700
FEDFC0
008000
00C000
006000
006000
01C000
ENDCHAR
STARTCHAR uni1E29
ENCODING 7721
SWIDTH 633 0
DWIDTH 16 0
BBX 15 24 1 -5
BITMAP
F800
3800
3800
3800
3800
38E0
3BF0
3E38
3838
3838
3838
3838
3838
3838
3838
3838
3838
3838
FFFE
0100
0180
00C0
00C0
0380
ENDCHAR
STARTCHAR uni1E2A
ENCODING 7722
SWIDTH 771 0
DWIDTH 20 0
BBX 18 24 1 -5
BITMAP
FE1FC0
380700
380700
380700
380700
380700
380700
380700
380700
3FFF00
380700
380700
380700
380700
380700
380700
380700
380700
FE1FC0
000000
040800
061800
03F000
01E000
ENDCHAR
STARTCHAR uni1E2B
ENCODING 7723
SWIDTH 633 0
DWIDTH 16 0
BBX 15 24 1 -5
BITMAP
F800
3800
3800
3800
3800
38E0
3BF0
3E38
3838
3838
3838
3838
3838
3838
3838
3838
3838
3838
FEFE
0000
0810
0C30
07E0
03C0
ENDCHAR
STARTCHAR uni1E2C
ENCODING 7724
SWIDTH 325 0
DWIDTH 8 0
BBX 8 23 1 -4
BITMAP
FE
3C
38
38
38
38
38
38
38
38
38
38
38
38
38
38
38
38
FE
00
71
7E
8E
ENDCHAR
STARTCHAR uni1E2D
ENCODING 7725
SWIDTH 307 0
DWIDTH 8 0
BBX 8 23 1 -4
BITMAP
38
38
38
00
00
F8
38
38
38
38
38
38
38
38
38
38
38
38
FE
00
71
7E
8E
ENDCHAR
STARTCHAR uni1E2E
ENCODING 7726
SWIDTH 325 0
DWIDTH 8 0
BBX 8 28 1 0
BITMAP
07
0C
18
30
00
C6
C6
C6
00
FE
3C
38
38
38
38
38
38
38
38
38
38
38
38
38
38
38
38
FE
ENDCHAR
STARTCHAR uni1E2F
ENCODING 7727
SWIDTH 307 0
DWIDTH 8 0
BBX 7 23 1 0
BITMAP
0E
18
30
60
00
C6
C6
C6
00
F8
38
38
38
38
38
38
38
38
38
38
38
38
FE
ENDCHAR
STARTCHAR uni1E30
ENCODING 7728
SWIDTH 708 0
DWIDTH 18 0
BBX 18 24 0 0
BITMAP
007000
00C000
018000
030000
000000
FE1F00
380E00
380800
381000
382000
384000
388000
390000
3B0000
3F8000
3BC000
3BE000
39E000
38F000
387800
383C00
381E00
380F00
FE3FC0
ENDCHAR
STARTCHAR uni1E31
ENCODING 7729
SWIDTH 599 0
DWIDTH 16 0
BBX 15 24 1 0
BITMAP
0380
0600
0C00
1800
0000
F800
3800
3800
3800
3800
387C
3830
3860
38C0
3980
3B00
3F00
3B80
3BC0
39E0
38F0
3878
383C
FE3E
ENDCHAR
STARTCHAR uni1E32
ENCODING 7730
SWIDTH 708 0
DWIDTH 18 0
BBX 18 23 0 -4
BITMAP
FE1F00
380E00
380800
381000
382000
384000
388000
390000
3B0000
3F8000
3BC000
3BE000
39E000
38F000
387800
383C00
381E00
380F00
FE3FC0
000000
01C000
01C000
01C000
ENDCHAR
STARTCHAR uni1E33
ENCODING 7731
SWIDTH 599 0
DWIDTH 16 0
BBX 15 23 1 -4
BITMAP
F800
3800
3800
3800
3800
387C
3830
3860
38C0
3980
3B00
3F00
3B80
3BC0
39E0
38F0
3878
383C
FE3E
0000
0380
0380
0380
ENDCHAR
STARTCHAR uni1E34
ENCODING 7732
SWIDTH 708 0
DWIDTH 18 0
BBX 18 22 0 -3
BITMAP
FE1F00
380E00
380800
381000
382000
384000
388000
390000
3B0000
3F8000
3BC000
3BE000
39E000
38F000
387800
383C00
381E00
380F00
FE3FC0
000000
07F000
07F000
ENDCHAR
STARTCHAR uni1E35
ENCODING 7733
SWIDTH 599 0
DWIDTH 16 0
BBX 15 22 1 -3
BITMAP
F800
3800
3800
3800
3800
387C
3830
3860
38C0
3980
3B00
3F00
3B80
3BC0
39E0
38F0
3878
383C
FE3E
0000
0FE0
0FE0
ENDCHAR
STARTCHAR uni1E36
ENCODING 7734
SWIDTH 557 0
DWIDTH 14 0
BBX 13 23 1 -4
BITMAP
FE00
3800
3800
3800
3800
3800
3800
3800
3800
3800
3800
3800
3800
3800
3800
3818
3818
3838
FFF8
0000
0700
0700
0700
ENDCHAR
STARTCHAR uni1E37
ENCODING 7735
SWIDTH 313 0
DWIDTH 8 0
BBX 7 23 1 -4
BITMAP
F8
38
38
38
38
38
38
38
38
38
38
38
38
38
38
38
38
38
FE
00
38
38
38
ENDCHAR
STARTCHAR uni1E38
ENCODING 7736
SWIDTH 557 0
DWIDTH 14 0
BBX 13 26 1 -4
BITMAP
7F00
7F00
0000
FE00
3800
3800
3800
3800
3800
3800
3800
3800
3800
3800
3800
3800
3800
3800
3818
3818
3838
FFF8
0000
0700
0700
0700
ENDCHAR
STARTCHAR uni1E39
ENCODING 7737
SWIDTH 313 0
DWIDTH 8 0
BBX 7 26 1 -4
BITMAP
FE
FE
00
F8
38
38
38
38
38
38
38
38
38
38
38
38
38
38
38
38
38
FE
00
38
38
38
ENDCHAR
STARTCHAR uni1E3A
ENCODING 7738
SWIDTH 557 0
DWIDTH 14 0
BBX 13 22 1 -3
BITMAP
FE00
3800
3800
3800
3800
3800
3800
3800
3800
3800
3800
3800
3800
3800
3800
3818
3818
3838
FFF8
0000
1FC0
1FC0
ENDCHAR
STARTCHAR uni1E3B
ENCODING 7739
SWIDTH 313 0
DWIDTH 8 0
BBX 7 22 1 -3
BITMAP
F8
38
38
38
38
38
38
38
38
38
38
38
38
38
38
38
38
38
FE
00
FE
FE
ENDCHAR
STARTCHAR uni1E3C
ENCODING 7740
SWIDTH 557 0
DWIDTH 14 0
BBX 13 24 1 -5
BITMAP
FE00
3800
3800
3800
3800
3800
3800
3800
3800
3800
3800
3800
3800
3800
3800
3818
3818
3838
FFF8
0000
0780
0780
0CC0
1860
ENDCHAR
STARTCHAR uni1E3D
ENCODING 7741
SWIDTH 313 0
DWIDTH 8 0
BBX 8 24 1 -5
BITMAP
F8
38
38
38
38
38
38
38
38
38
38
38
38
38
38
38
38
38
FE
00
3C
3C
66
C3
ENDCHAR
STARTCHAR uni1E3E
ENCODING 7742
SWIDTH 860 0
DWIDTH 22 0
BBX 21 24 1 0
BITMAP
001C00
003000
006000
00C000
000000
FC00F8
3C00E0
3E01E0
3E01E0
3E02E0
3702E0
3702E0
3384E0
3384E0
33CCE0
31C8E0
31C8E0
31F0E0
30F0E0
30F0E0
3060E0
3060E0
3000E0
FC03F8
ENDCHAR
STARTCHAR uni1E3F
ENCODING 7743
SWIDTH 946 0
DWIDTH 25 0
BBX 23 19 1 0
BITMAP
000E00
001800
003000
006000
000000
F9F1E0
7BF3F0
3E7E78
3C3C38
383838
383838
383838
383838
383838
383838
383838
383838
383838
FEFEFE
ENDCHAR
STARTCHAR uni1E40
ENCODING 7744
SWIDTH 860 0
DWIDTH 22 0
BBX 21 23 1 0
BITMAP
007000
007000
007000
000000
FC00F8
3C00E0
3E01E0
3E01E0
3E02E0
3702E0
3702E0
3384E0
3384E0
33CCE0
31C8E0
31C8E0
31F0E0
30F0E0
30F0E0
3060E0
3060E0
3000E0
FC03F8
ENDCHAR
STARTCHAR uni1E41
ENCODING 7745
SWIDTH 946 0
DWIDTH 25 0
BBX 23 18 1 0
BITMAP
007000
007000
007000
000000
F9F1E0
7BF3F0
3E7E78
3C3C38
383838
383838
383838
383838
383838
383838
383838
383838
383838
FEFEFE
ENDCHAR
STARTCHAR uni1E42
ENCODING 7746
SWIDTH 860 0
DWIDTH 22 0
BBX 21 23 1 -4
BITMAP
FC00F8
3C00E0
3E01E0
3E01E0
3E02E0
3702E0
3702E0
3384E0
3384E0
33CCE0
31C8E0
31C8E0
31F0E0
30F0E0
30F0E0
3060E0
3060E0
3000E0
FC03F8
000000
007000
007000
007000
ENDCHAR
STARTCHAR uni1E43
ENCODING 7747
SWIDTH 946 0
DWIDTH 25 0
BBX 23 18 1 -4
BITMAP
F9F1E0
7BF3F0
3E7E78
3C3C38
383838
383838
383838
383838
383838
383838
383838
383838
383838
FEFEFE
000000
003800
003800
003800
ENDCHAR
STARTCHAR uni1E44
ENCODING 7748
SWIDTH 751 0
DWIDTH 20 0
BBX 18 23 1 0
BITMAP
038000
038000
038000
000000
F807C0
3C0100
3C0100
3E0100
3F0100
378100
338100
33C100
31E100
30F100
307100
307900
303D00
301F00
300F00
300F00
300700
300300
FC0300
ENDCHAR
STARTCHAR uni1E45
ENCODING 7749
SWIDTH 633 0
DWIDTH 16 0
BBX 15 18 1 0
BITMAP
0700
0700
0700
0000
F8E0
7BF0
3E38
3838
3838
3838
3838
3838
3838
3838
3838
3838
3838
FEFE
ENDCHAR
STARTCHAR uni1E46
ENCODING 7750
SWIDTH 751 0
DWIDTH 20 0
BBX 18 23 1 -4
BITMAP
F807C0
3C0100
3C0100
3E0100
3F0100
378100
338100
33C100
31E100
30F100
307100
307900
303D00
301F00
300F00
300F00
300700
300300
FC0300
000000
01C000
01C000
01C000
ENDCHAR
STARTCHAR uni1E47
ENCODING 7751
SWIDTH 633 0
DWIDTH 16 0
BBX 15 18 1 -4
BITMAP
F8E0
7BF0
3E38
3838
3838
3838
3838
3838
3838
3838
3838
3838
3838
FEFE
0000
0380
0380
0380
ENDCHAR
STARTCHAR uni1E48
ENCODING 7752
SWIDTH 751 0
DWIDTH 20 0
BBX 18 22 1 -3
BITMAP
F807C0
3C0100
3C0100
3E0100
3F0100
378100
338100
33C100
31E100
30F100
307100
307900
303D00
301F00
300F00
300F00
300700
300300
FC0300
000000
07F000
07F000
ENDCHAR
STARTCHAR uni1E49
ENCODING 7753
SWIDTH 633 0
DWIDTH 16 0
BBX 15 17 1 -3
BITMAP
F8E0
7BF0
3E38
3838
3838
3838
3838
3838
3838
3838
3838
3838
3838
FEFE
0000
0FE0
0FE0
ENDCHAR
STARTCHAR uni1E4A
ENCODING 7754
SWIDTH 751 0
DWIDTH 20 0
BBX 18 24 1 -5
BITMAP
F807C0
3C0100
3C0100
3E0100
3F0100
378100
338100
33C100
31E100
30F100
307100
307900
303D00
301F00
300F00
300F00
300700
300300
FC0300
000000
01E000
01E000
033000
061800
ENDCHAR
STARTCHAR uni1E4B
ENCODING 7755
SWIDTH 633 0
DWIDTH 16 0
BBX 15 19 1 -5
BITMAP
F8E0
7BF0
3E38
3838
3838
3838
3838
3838
3838
3838
3838
3838
3838
FEFE
0000
03C0
03C0
0660
0C30
ENDCHAR
STARTCHAR uni1E4C
ENCODING 7756
SWIDTH 777 0
DWIDTH 20 0
BBX 18 28 1 0
BITMAP
003800
006000
00C000
018000
000000
038800
03F000
047000
000000
03F000
0E1C00
380700
300300
700380
700380
E001C0
E001C0
E001C0
E001C0
E001C0
E001C0
E001C0
700380
700380
300300
180700
0E1C00
03F000
ENDCHAR
STARTCHAR uni1E4D
ENCODING 7757
SWIDTH 602 0
DWIDTH 16 0
BBX 13 23 1 0
BITMAP
01C0
0300
0600
0C00
0000
1C40
1F80
2380
0000
0F80
38E0
7070
7070
E038
E038
E038
E038
E038
E038
7070
7070
38E0
0F80
ENDCHAR
STARTCHAR uni1E4E
ENCODING 7758
SWIDTH 777 0
DWIDTH 20 0
BBX 18 27 1 0
BITMAP
031800
031800
031800
000000
038800
03F000
047000
000000
03F000
0E1C00
380700
300300
700380
700380
E001C0
E001C0
E001C0
E001C0
E001C0
E001C0
E001C0
700380
700380
300300
180700
0E1C00
03F000
ENDCHAR
STARTCHAR uni1E4F
ENCODING 7759
SWIDTH 602 0
DWIDTH 16 0
BBX 13 22 1 0
BITMAP
18C0
18C0
18C0
0000
1C40
1F80
2380
0000
0F80
38E0
7070
7070
E038
E038
E038
E038
E038
E038
7070
7070
38E0
0F80
ENDCHAR
STARTCHAR uni1E50
ENCODING 7760
SWIDTH 777 0
DWIDTH 20 0
BBX 18 27 1 0
BITMAP
070000
018000
00C000
006000
000000
03F800
03F800
000000
03F000
0E1C00
380700
300300
700380
700380
E001C0
E001C0
E001C0
E001C0
E001C0
E001C0
E001C0
700380
700380
300300
180700
0E1C00
03F000
ENDCHAR
STARTCHAR uni1E51
ENCODING 7761
SWIDTH 602 0
DWIDTH 16 0
BBX 13 22 1 0
BITMAP
1C00
0600
0300
0180
0000
1FC0
1FC0
0000
0F80
38E0
7070
7070
E038
E038
E038
E038
E038
E038
7070
7070
38E0
0F80
ENDCHAR
STARTCHAR uni1E52
ENCODING 7762
SWIDTH 777 0
DWIDTH 20 0
BBX 18 27 1 0
BITMAP
003800
006000
00C000
018000
000000
03F800
03F800
000000
03F000
0E1C00
380700
300300
700380
700380
E001C0
E001C0
E001C0
E001C0
E001C0
E001C0
E001C0
700380
700380
300300
180700
0E1C00
03F000
ENDCHAR
STARTCHAR uni1E53
ENCODING 7763
SWIDTH 602 0
DWIDTH 16 0
BBX 13 22 1 0
BITMAP
00E0
0180
0300
0600
0000
1FC0
1FC0
0000
0F80
38E0
7070
7070
E038
E038
E038
E038
E038
E038
7070
7070
38E0
0F80
ENDCHAR
STARTCHAR uni1E54
ENCODING 7764
SWIDTH 573 0
DWIDTH 15 0
BBX 13 24 1 0
BITMAP
00E0
0180
0300
0600
0000
FFC0
3870
3830
3838
3838
3838
3838
3838
3870
38E0
3FC0
3800
3800
3800
3800
3800
3800
3C00
FF00
ENDCHAR
STARTCHAR uni1E55
ENCODING 7765
SWIDTH 642 0
DWIDTH 17 0
BBX 14 24 1 -5
BITMAP
00E0
0180
0300
0600
0000
F8E0
7BF8
3E38
383C
381C
381C
381C
381C
381C
381C
3818
3C38
3BF0
39E0
3800
3800
3800
3800
FE00
ENDCHAR
STARTCHAR uni1E56
ENCODING 7766
SWIDTH 573 0
DWIDTH 15 0
BBX 13 23 1 0
BITMAP
0700
0700
0700
0000
FFC0
3870
3830
3838
3838
3838
3838
3838
3870
38E0
3FC0
3800
3800
3800
3800
3800
3800
3C00
FF00
ENDCHAR
STARTCHAR uni1E57
ENCODING 7767
SWIDTH 642 0
DWIDTH 17 0
BBX 14 23 1 -5
BITMAP
0380
0380
0380
0000
F8E0
7BF8
3E38
383C
381C
381C
381C
381C
381C
381C
3818
3C38
3BF0
39E0
3800
3800
3800
3800
FE00
ENDCHAR
STARTCHAR uni1E58
ENCODING 7768
SWIDTH 679 0
DWIDTH 18 0
BBX 16 23 1 0
BITMAP
0380
0380
0380
0000
FFC0
3870
3830
3838
3838
3838
3838
3830
3860
38C0
3FC0
39C0
38E0
38F0
3870
3878
383C
383E
FE1F
ENDCHAR
STARTCHAR uni1E59
ENCODING 7769
SWIDTH 440 0
DWIDTH 11 0
BBX 10 18 1 0
BITMAP
0E00
0E00
0E00
0000
F9C0
3BC0
3CC0
38C0
3800
3800
3800
3800
3800
3800
3800
3800
3C00
FF00
ENDCHAR
STARTCHAR uni1E5A
ENCODING 7770
SWIDTH 679 0
DWIDTH 18 0
BBX 16 23 1 -4
BITMAP
FFC0
3870
3830
3838
3838
3838
3838
3830
3860
38C0
3FC0
39C0
38E0
38F0
3870
3878
383C
383E
FE1F
0000
01C0
01C0
01C0
ENDCHAR
STARTCHAR uni1E5B
ENCODING 7771
SWIDTH 440 0
DWIDTH 11 0
BBX 10 18 1 -4
BITMAP
F9C0
3BC0
3CC0
38C0
3800
3800
3800
3800
3800
3800
3800
3800
3C00
FF00
0000
1C00
1C00
1C00
ENDCHAR
STARTCHAR uni1E5C
ENCODING 7772
SWIDTH 679 0
DWIDTH 18 0
BBX 16 26 1 -4
BITMAP
0FE0
0FE0
0000
FFC0
3870
3830
3838
3838
3838
3838
3830
3860
38C0
3FC0
39C0
38E0
38F0
3870
3878
383C
383E
FE1F
0000
01C0
01C0
01C0
ENDCHAR
STARTCHAR uni1E5D
ENCODING 7773
SWIDTH 440 0
DWIDTH 11 0
BBX 10 21 1 -4
BITMAP
3F80
3F80
0000
F9C0
3BC0
3CC0
38C0
3800
3800
3800
3800
3800
3800
3800
3800
3C00
FF00
0000
1C00
1C00
1C00
ENDCHAR
STARTCHAR uni1E5E
ENCODING 7774
SWIDTH 679 0
DWIDTH 18 0
BBX 16 22 1 -3
BITMAP
FFC0
3870
3830
3838
3838
3838
3838
3830
3860
38C0
3FC0
39C0
38E0
38F0
3870
3878
383C
383E
FE1F
0000
07F0
07F0
ENDCHAR
STARTCHAR uni1E5F
ENCODING 7775
SWIDTH 440 0
DWIDTH 11 0
BBX 10 17 1 -3
BITMAP
F9C0
3BC0
3CC0
38C0
3800
3800
3800
3800
3800
3800
3800
3800
3C00
FF00
0000
7F00
7F00
ENDCHAR
STARTCHAR uni1E60
ENCODING 7776
SWIDTH 542 0
DWIDTH 14 0
BBX 11 23 2 0
BITMAP
0E00
0E00
0E00
0000
1F80
71C0
60C0
E0C0
E000
E000
F000
7C00
3E00
1F80
07C0
03C0
01E0
00E0
C0E0
C0E0
C0C0
E180
7F00
ENDCHAR
STARTCHAR uni1E61
ENCODING 7777
SWIDTH 504 0
DWIDTH 13 0
BBX 10 18 2 0
BITMAP
1C00
1C00
1C00
0000
3F00
7380
E180
E180
F000
F800
7F00
3F80
07C0
C1C0
C1C0
C1C0
E380
3F00
ENDCHAR
STARTCHAR uni1E62
ENCODING 7778
SWIDTH 542 0
DWIDTH 14 0
BBX 11 23 2 -4
BITMAP
1F80
71C0
60C0
E0C0
E000
E000
F000
7C00
3E00
1F80
07C0
03C0
01E0
00E0
C0E0
C0E0
C0C0
E180
7F00
0000
0E00
0E00
0E00
ENDCHAR
STARTCHAR uni1E63
ENCODING 7779
SWIDTH 504 0
DWIDTH 13 0
BBX 10 18 2 -4
BITMAP
3F00
7380
E180
E180
F000
F800
7F00
3F80
07C0
C1C0
C1C0
C1C0
E380
3F00
0000
0E00
0E00
0E00
ENDCHAR
STARTCHAR uni1E64
ENCODING 7780
SWIDTH 542 0
DWIDTH 14 0
BBX 11 28 2 0
BITMAP
0E00
0E00
0E00
0000
0380
0600
0C00
1800
0000
1F80
71C0
60C0
E0C0
E000
E000
F000
7C00
3E00
1F80
07C0
03C0
01E0
00E0
C0E0
C0E0
C0C0
E180
7F00
ENDCHAR
STARTCHAR uni1E65
ENCODING 7781
SWIDTH 504 0
DWIDTH 13 0
BBX 10 23 2 0
BITMAP
0E00
0E00
0E00
0000
0380
0600
0C00
1800
0000
3F00
7380
E180
E180
F000
F800
7F00
3F80
07C0
C1C0
C1C0
C1C0
E380
3F00
ENDCHAR
STARTCHAR uni1E66
ENCODING 7782
SWIDTH 542 0
DWIDTH 14 0
BBX 11 28 2 0
BITMAP
0E00
0E00
0E00
0000
6180
3300
1E00
1E00
0000
1F80
71C0
60C0
E0C0
E000
E000
F000
7C00
3E00
1F80
07C0
03C0
01E0
00E0
C0E0
C0E0
C0C0
E180
7F00
ENDCHAR
STARTCHAR uni1E67
ENCODING 7783
SWIDTH 504 0
DWIDTH 13 0
BBX 10 23 2 0
BITMAP
0E00
0E00
0E00
0000
6180
3300
1E00
1E00
0000
3F00
7380
E180
E180
F000
F800
7F00
3F80
07C0
C1C0
C1C0
C1C0
E380
3F00
ENDCHAR
STARTCHAR uni1E68
ENCODING 7784
SWIDTH 542 0
DWIDTH 14 0
BBX 11 27 2 -4
BITMAP
1C00
1C00
1C00
0000
1F80
71C0
60C0
E0C0
E000
E000
F000
7C00
3E00
1F80
07C0
03C0
01E0
00E0
C0E0
C0E0
C0C0
E180
7F00
0000
0E00
0E00
0E00
ENDCHAR
STARTCHAR uni1E69
ENCODING 7785
SWIDTH 504 0
DWIDTH 13 0
BBX 10 22 2 -4
BITMAP
1C00
1C00
1C00
0000
3F00
7380
E180
E180
F000
F800
7F00
3F80
07C0
C1C0
C1C0
C1C0
E380
3F00
0000
0E00
0E00
0E00
ENDCHAR
STARTCHAR uni1E6A
ENCODING 7786
SWIDTH 663 0
DWIDTH 17 0
BBX 17 23 0 0
BITMAP
01C000
01C000
01C000
000000
FFFF80
C1C180
C1C180
01C000
01C000
01C000
01C000
01C000
01C000
01C000
01C000
01C000
01C000
01C000
01C000
01C000
01C000
03E000
0FF800
ENDCHAR
STARTCHAR uni1E6B
ENCODING 7787
SWIDTH 392 0
DWIDTH 10 0
BBX 9 22 1 0
BITMAP
1C00
1C00
1C00
0000
1800
3800
3800
3800
FF80
3800
3800
3800
3800
3800
3800
3800
3800
3800
3800
3800
1C00
0F80
ENDCHAR
STARTCHAR uni1E6C
ENCODING 7788
SWIDTH 663 0
DWIDTH 17 0
BBX 17 23 0 -4
BITMAP
FFFF80
C1C180
C1C180
01C000
01C000
01C000
01C000
01C000
01C000
01C000
01C000
01C000
01C000
01C000
01C000
01C000
01C000
03E000
0FF800
000000
01C000
01C000
01C000
ENDCHAR
STARTCHAR uni1E6D
ENCODING 7789
SWIDTH 392 0
DWIDTH 10 0
BBX 9 22 1 -4
BITMAP
1800
3800
3800
3800
FF80
3800
3800
3800
3800
3800
3800
3800
3800
3800
3800
3800
1C00
0F80
0000
1C00
1C00
1C00
ENDCHAR
STARTCHAR uni1E6E
ENCODING 7790
SWIDTH 663 0
DWIDTH 17 0
BBX 17 22 0 -3
BITMAP
FFFF80
C1C180
C1C180
01C000
01C000
01C000
01C000
01C000
01C000
01C000
01C000
01C000
01C000
01C000
01C000
01C000
01C000
03E000
0FF800
000000
07F000
07F000
ENDCHAR
STARTCHAR uni1E6F
ENCODING 7791
SWIDTH 392 0
DWIDTH 10 0
BBX 9 21 1 -3
BITMAP
1800
3800
3800
3800
FF80
3800
3800
3800
3800
3800
3800
3800
3800
3800
3800
3800
1C00
0F80
0000
7F00
7F00
ENDCHAR
STARTCHAR uni1E70
ENCODING 7792
SWIDTH 663 0
DWIDTH 17 0
BBX 17 24 0 -5
BITMAP
FFFF80
C1C180
C1C180
01C000
01C000
01C000
01C000
01C000
01C000
01C000
01C000
01C000
01C000
01C000
01C000
01C000
01C000
03E000
0FF800
000000
01E000
01E000
033000
061800
ENDCHAR
STARTCHAR uni1E71
ENCODING 7793
SWIDTH 392 0
DWIDTH 10 0
BBX 9 23 1 -5
BITMAP
1800
3800
3800
3800
FF80
3800
3800
3800
3800
3800
3800
3800
3800
3800
3800
3800
1C00
0F80
0000
1E00
1E00
3300
6180
ENDCHAR
STARTCHAR uni1E72
ENCODING 7794
SWIDTH 719 0
DWIDTH 19 0
BBX 18 23 0 -4
BITMAP
FE0FC0
380300
380300
380300
380300
380300
380300
380300
380300
380300
380300
380300
380300
380300
380300
180200
1C0600
0E0C00
03F000
000000
063000
063000
063000
ENDCHAR
STARTCHAR uni1E73
ENCODING 7795
SWIDTH 633 0
DWIDTH 16 0
BBX 15 18 0 -4
BITMAP
F8F8
3838
3838
3838
3838
3838
3838
3838
3838
3838
3838
38F8
1FBC
0E3E
0000
0630
0630
0630
ENDCHAR
STARTCHAR uni1E74
ENCODING 7796
SWIDTH 719 0
DWIDTH 19 0
BBX 18 23 0 -4
BITMAP
FE0FC0
380300
380300
380300
380300
380300
380300
380300
380300
380300
380300
380300
380300
380300
380300
180200
1C0600
0E0C00
03F000
000000
038800
03F000
047000
ENDCHAR
STARTCHAR uni1E75
ENCODING 7797
SWIDTH 633 0
DWIDTH 16 0
BBX 15 18 0 -4
BITMAP
F8F8
3838
3838
3838
3838
3838
3838
3838
3838
3838
3838
38F8
1FBC
0E3E
0000
0710
07E0
08E0
ENDCHAR
STARTCHAR uni1E76
ENCODING 7798
SWIDTH 719 0
DWIDTH 19 0
BBX 18 24 0 -5
BITMAP
FE0FC0
380300
380300
380300
380300
380300
380300
380300
380300
380300
380300
380300
380300
380300
380300
180200
1C0600
0E0C00
03F000
000000
01E000
01E000
033000
061800
ENDCHAR
STARTCHAR uni1E77
ENCODING 7799
SWIDTH 633 0
DWIDTH 16 0
BBX 15 19 0 -5
BITMAP
F8F8
3838
3838
3838
3838
3838
3838
3838
3838
3838
3838
38F8
1FBC
0E3E
0000
03C0
03C0
0660
0C30
ENDCHAR
STARTCHAR uni1E78
ENCODING 7800
SWIDTH 719 0
DWIDTH 19 0
BBX 18 28 0 0
BITMAP
003800
006000
00C000
018000
000000
071000
07E000
08E000
000000
FE0FC0
380300
380300
380300
380300
380300
380300
380300
380300
380300
380300
380300
380300
380300
380300
180200
1C0600
0E0C00
03F000
ENDCHAR
STARTCHAR uni1E79
ENCODING 7801
SWIDTH 633 0
DWIDTH 16 0
BBX 15 23 0 0
BITMAP
00E0
0180
0300
0600
0000
0E20
0FC0
11C0
0000
F8F8
3838
3838
3838
3838
3838
3838
3838
3838
3838
3838
38F8
1FBC
0E3E
ENDCHAR
STARTCHAR uni1E7A
ENCODING 7802
SWIDTH 719 0
DWIDTH 19 0
BBX 18 26 0 0
BITMAP
063000
063000
063000
000000
07F000
07F000
000000
FE0FC0
380300
380300
380300
380300
380300
380300
380300
380300
380300
380300
380300
380300
380300
380300
180200
1C0600
0E0C00
03F000
ENDCHAR
STARTCHAR uni1E7B
ENCODING 7803
SWIDTH 633 0
DWIDTH 16 0
BBX 15 21 0 0
BITMAP
0C60
0C60
0C60
0000
0FE0
0FE0
0000
F8F8
3838
3838
3838
3838
3838
3838
3838
3838
3838
3838
38F8
1FBC
0E3E
ENDCHAR
STARTCHAR uni1E7C
ENCODING 7804
SWIDTH 699 0
DWIDTH 18 0
BBX 18 23 0 0
BITMAP
071000
07E000
08E000
000000
FE07C0
780180
380100
380100
1C0200
1C0200
0E0600
0E0400
0F0400
070800
070800
038800
039000
03D000
01E000
01E000
00E000
00C000
00C000
ENDCHAR
STARTCHAR uni1E7D
ENCODING 7805
SWIDTH 545 0
DWIDTH 14 0
BBX 14 18 0 0
BITMAP
1C40
1F80
2380
0000
FC3C
7008
7818
3810
3830
1C20
1C20
1E40
0E40
0F80
0780
0700
0300
0300
ENDCHAR
STARTCHAR uni1E7E
ENCODING 7806
SWIDTH 699 0
DWIDTH 18 0
BBX 18 23 0 -4
BITMAP
FE07C0
780180
380100
380100
1C0200
1C0200
0E0600
0E0400
0F0400
070800
070800
038800
039000
03D000
01E000
01E000
00E000
00C000
00C000
000000
00E000
00E000
00E000
ENDCHAR
STARTCHAR uni1E7F
ENCODING 7807
SWIDTH 545 0
DWIDTH 14 0
BBX 14 18 0 -4
BITMAP
FC3C
7008
7818
3810
3830
1C20
1C20
1E40
0E40
0F80
0780
0700
0300
0300
0000
0700
0700
0700
ENDCHAR
STARTCHAR Wgrave
ENCODING 7808
SWIDTH 925 0
DWIDTH 24 0
BBX 24 24 0 0
BITMAP
01C000
006000
003000
001800
000000
FE081F
781C04
381C04
381C08
381C08
1C2E08
1C2E08
1C2E10
1C4710
0E4710
0E4720
0EC7A0
0E83A0
0783A0
0783C0
0701C0
0301C0
030180
020080
ENDCHAR
STARTCHAR wgrave
ENCODING 7809
SWIDTH 795 0
DWIDTH 21 0
BBX 21 19 0 0
BITMAP
038000
00C000
006000
003000
000000
FC30F8
703010
703830
387820
387C20
38DC40
1C9C40
1C8E40
1D0E80
0F0F80
0F0780
0E0700
060300
040200
ENDCHAR
STARTCHAR Wacute
ENCODING 7810
SWIDTH 925 0
DWIDTH 24 0
BBX 24 24 0 0
BITMAP
000E00
001800
003000
006000
000000
FE081F
781C04
381C04
381C08
381C08
1C2E08
1C2E08
1C2E10
1C4710
0E4710
0E4720
0EC7A0
0E83A0
0783A0
0783C0
0701C0
0301C0
030180
020080
ENDCHAR
STARTCHAR wacute
ENCODING 7811
SWIDTH 795 0
DWIDTH 21 0
BBX 21 19 0 0
BITMAP
001C00
003000
006000
00C000
000000
FC30F8
703010
703830
387820
387C20
38DC40
1C9C40
1C8E40
1D0E80
0F0F80
0F0780
0E0700
060300
040200
ENDCHAR
STARTCHAR Wdieresis
ENCODING 7812
SWIDTH 925 0
DWIDTH 24 0
BBX 24 23 0 0
BITMAP
018C00
018C00
018C00
000000
FE081F
781C04
381C04
381C08
381C08
1C2E08
1C2E08
1C2E10
1C4710
0E4710
0E4720
0EC7A0
0E83A0
0783A0
0783C0
0701C0
0301C0
030180
020080
ENDCHAR
STARTCHAR wdieresis
ENCODING 7813
SWIDTH 795 0
DWIDTH 21 0
BBX 21 18 0 0
BITMAP
031800
031800
031800
000000
FC30F8
703010
703830
387820
387C20
38DC40
1C9C40
1C8E40
1D0E80
0F0F80
0F0780
0E0700
060300
040200
ENDCHAR
STARTCHAR uni1E86
ENCODING 7814
SWIDTH 925 0
DWIDTH 24 0
BBX 24 23 0 0
BITMAP
007000
007000
007000
000000
FE081F
781C04
381C04
381C08
381C08
1C2E08
1C2E08
1C2E10
1C4710
0E4710
0E4720
0EC7A0
0E83A0
0783A0
0783C0
0701C0
0301C0
030180
020080
ENDCHAR
STARTCHAR uni1E87
ENCODING 7815
SWIDTH 795 0
DWIDTH 21 0
BBX 21 18 0 0
BITMAP
00E000
00E000
00E000
000000
FC30F8
703010
703830
387820
387C20
38DC40
1C9C40
1C8E40
1D0E80
0F0F80
0F0780
0E0700
060300
040200
ENDCHAR
STARTCHAR uni1E88
ENCODING 7816
SWIDTH 925 0
DWIDTH 24 0
BBX 24 23 0 -4
BITMAP
FE081F
781C04
381C04
381C08
381C08
1C2E08
1C2E08
1C2E10
1C4710
0E4710
0E4720
0EC7A0
0E83A0
0783A0
0783C0
0701C0
0301C0
030180
020080
000000
003800
003800
003800
ENDCHAR
STARTCHAR uni1E89
ENCODING 7817
SWIDTH 795 0
DWIDTH 21 0
BBX 21 18 0 -4
BITMAP
FC30F8
703010
703830
387820
387C20
38DC40
1C9C40
1C8E40
1D0E80
0F0F80
0F0780
0E0700
060300
040200
000000
007000
007000
007000
ENDCHAR
STARTCHAR uni1E8A
ENCODING 7818
SWIDTH 657 0
DWIDTH 17 0
BBX 17 23 0 0
BITMAP
038000
038000
038000
000000
FF0F80
3C0200
1C0400
1E0C00
0E0800
0F1000
07A000
03A000
03C000
01E000
01E000
02F000
047000
0C3800
083C00
101C00
301E00
600F00
F83F80
ENDCHAR
STARTCHAR uni1E8B
ENCODING 7819
SWIDTH 557 0
DWIDTH 14 0
BBX 15 18 0 0
BITMAP
0700
0700
0700
0000
FC3E
7818
3C10
1E30
0E60
0F40
0780
03C0
05E0
08E0
18F0
3078
603C
F87E
ENDCHAR
STARTCHAR uni1E8C
ENCODING 7820
SWIDTH 657 0
DWIDTH 17 0
BBX 17 23 0 0
BITMAP
0C6000
0C6000
0C6000
000000
FF0F80
3C0200
1C0400
1E0C00
0E0800
0F1000
07A000
03A000
03C000
01E000
01E000
02F000
047000
0C3800
083C00
101C00
301E00
600F00
F83F80
ENDCHAR
STARTCHAR uni1E8D
ENCODING 7821
SWIDTH 557 0
DWIDTH 14 0
BBX 15 18 0 0
BITMAP
18C0
18C0
18C0
0000
FC3E
7818
3C10
1E30
0E60
0F40
0780
03C0
05E0
08E0
18F0
3078
603C
F87E
ENDCHAR
STARTCHAR uni1E8E
ENCODING 7822
SWIDTH 678 0
DWIDTH 18 0
BBX 18 23 0 0
BITMAP
038000
038000
038000
000000
FE07C0
780100
380200
1C0200
1E0400
0E0800
0F0800
079000
03A000
03E000
01C000
01C000
01C000
01C000
01C000
01C000
01C000
01C000
07F000
ENDCHAR
STARTCHAR uni1E8F
ENCODING 7823
SWIDTH 551 0
DWIDTH 14 0
BBX 14 23 0 -5
BITMAP
0700
0700
0700
0000
FC3C
7008
7818
3810
3C10
1C20
1C20
0E40
0E40
0FC0
0780
0780
0300
0300
0200
0600
0C00
1C00
3C00
ENDCHAR
STARTCHAR uni1E90
ENCODING 7824
SWIDTH 633 0
DWIDTH 16 0
BBX 13 24 2 0
BITMAP
0780
0780
0CC0
1860
0000
FFF8
E078
C0F0
C0E0
01E0
01C0
03C0
0380
0780
0700
0E00
0E00
1C00
3C00
3800
7800
7018
E018
FFF8
ENDCHAR
STARTCHAR uni1E91
ENCODING 7825
SWIDTH 595 0
DWIDTH 15 0
BBX 12 19 2 0
BITMAP
0F00
0F00
1980
30C0
0000
FFF0
C0E0
C1E0
03C0
0380
0780
0F00
0E00
1E00
3C00
3800
7830
F030
FFF0
ENDCHAR
STARTCHAR uni1E92
ENCODING 7826
SWIDTH 633 0
DWIDTH 16 0
BBX 13 23 2 -4
BITMAP
FFF8
E078
C0F0
C0E0
01E0
01C0
03C0
0380
0780
0700
0E00
0E00
1C00
3C00
3800
7800
7018
E018
FFF8
0000
0E00
0E00
0E00
ENDCHAR
STARTCHAR uni1E93
ENCODING 7827
SWIDTH 595 0
DWIDTH 15 0
BBX 12 18 2 -4
BITMAP
FFF0
C0E0
C1E0
03C0
0380
0780
0F00
0E00
1E00
3C00
3800
7830
F030
FFF0
0000
0E00
0E00
0E00
ENDCHAR
STARTCHAR uni1E94
ENCODING 7828
SWIDTH 633 0
DWIDTH 16 0
BBX 13 22 2 -3
BITMAP
FFF8
E078
C0F0
C0E0
01E0
01C0
03C0
0380
0780
0700
0E00
0E00
1C00
3C00
3800
7800
7018
E018
FFF8
0000
3F80
3F80
ENDCHAR
STARTCHAR uni1E95
ENCODING 7829
SWIDTH 595 0
DWIDTH 15 0
BBX 12 17 2 -3
BITMAP
FFF0
C0E0
C1E0
03C0
0380
0780
0F00
0E00
1E00
3C00
3800
7830
F030
FFF0
0000
3F80
3F80
ENDCHAR
STARTCHAR uni1E96
ENCODING 7830
SWIDTH 633 0
DWIDTH 16 0
BBX 15 22 1 -3
BITMAP
F800
3800
3800
3800
3800
38E0
3BF0
3E38
3838
3838
3838
3838
3838
3838
3838
3838
3838
3838
FEFE
0000
0FE0
0FE0
ENDCHAR
STARTCHAR uni1E97
ENCODING 7831
SWIDTH 392 0
DWIDTH 10 0
BBX 9 22 1 0
BITMAP
6300
6300
6300
0000
1800
3800
3800
3800
FF80
3800
3800
3800
3800
3800
3800
3800
3800
3800
3800
3800
1C00
0F80
ENDCHAR
STARTCHAR uni1E98
ENCODING 7832
SWIDTH 795 0
DWIDTH 21 0
BBX 21 19 0 0
BITMAP
006000
009000
009000
006000
000000
FC30F8
703010
703830
387820
387C20
38DC40
1C9C40
1C8E40
1D0E80
0F0F80
0F0780
0E0700
060300
040200
ENDCHAR
STARTCHAR uni1E99
ENCODING 7833
SWIDTH 551 0
DWIDTH 14 0
BBX 14 24 0 -5
BITMAP
0600
0900
0900
0600
0000
FC3C
7008
7818
3810
3C10
1C20
1C20
0E40
0E40
0FC0
0780
0780
0300
0300
0200
0600
0C00
1C00
3C00
ENDCHAR
STARTCHAR uni1EA0
ENCODING 7840
SWIDTH 744 0
DWIDTH 19 0
BBX 19 23 0 -4
BITMAP
004000
00E000
00E000
00F000
017000
017000
023800
023800
023C00
041C00
041C00
080E00
0FFE00
100F00
100700
100780
200380
6003C0
F80FE0
000000
007000
007000
007000
ENDCHAR
STARTCHAR uni1EA1
ENCODING 7841
SWIDTH 543 0
DWIDTH 14 0
BBX 12 18 1 -4
BITMAP
3F00
7380
61C0
01C0
01C0
1FC0
79C0
61C0
E1C0
E1C0
E1C0
F3C0
7ED0
3C70
0000
0E00
0E00
0E00
ENDCHAR
STARTCHAR uni1EA4
ENCODING 7844
SWIDTH 744 0
DWIDTH 19 0
BBX 19 29 0 0
BITMAP
003800
006000
00C000
018000
000000
01E000
01E000
033000
061800
000000
004000
00E000
00E000
00F000
017000
017000
023800
023800
023C00
041C00
041C00
080E00
0FFE00
100F00
100700
100780
200380
6003C0
F80FE0
ENDCHAR
STARTCHAR uni1EA5
ENCODING 7845
SWIDTH 543 0
DWIDTH 14 0
BBX 12 24 1 0
BITMAP
01C0
0300
0600
0C00
0000
0F00
0F00
1980
30C0
0000
3F00
7380
61C0
01C0
01C0
1FC0
79C0
61C0
E1C0
E1C0
E1C0
F3C0
7ED0
3C70
ENDCHAR
STARTCHAR uni1EA6
ENCODING 7846
SWIDTH 744 0
DWIDTH 19 0
BBX 19 29 0 0
BITMAP
070000
018000
00C000
006000
000000
01E000
01E000
033000
061800
000000
004000
00E000
00E000
00F000
017000
017000
023800
023800
023C00
041C00
041C00
080E00
0FFE00
100F00
100700
100780
200380
6003C0
F80FE0
ENDCHAR
STARTCHAR uni1EA7
ENCODING 7847
SWIDTH 543 0
DWIDTH 14 0
BBX 12 24 1 0
BITMAP
3800
0C00
0600
0300
0000
0F00
0F00
1980
30C0
0000
3F00
7380
61C0
01C0
01C0
1FC0
79C0
61C0
E1C0
E1C0
E1C0
F3C0
7ED0
3C70
ENDCHAR
STARTCHAR uni1EAA
ENCODING 7850
SWIDTH 744 0
DWIDTH 19 0
BBX 19 28 0 0
BITMAP
038800
03F000
047000
000000
01E000
01E000
033000
061800
000000
004000
00E000
00E000
00F000
017000
017000
023800
023800
023C00
041C00
041C00
080E00
0FFE00
100F00
100700
100780
200380
6003C0
F80FE0
ENDCHAR
STARTCHAR uni1EAB
ENCODING 7851
SWIDTH 543 0
DWIDTH 14 0
BBX 12 23 1 0
BITMAP
1C40
1F80
2380
0000
0F00
0F00
1980
30C0
0000
3F00
7380
61C0
01C0
01C0
1FC0
79C0
61C0
E1C0
E1C0
E1C0
F3C0
7ED0
3C70
ENDCHAR
STARTCHAR uni1EAC
ENCODING 7852
SWIDTH 744 0
DWIDTH 19 0
BBX 19 28 0 -4
BITMAP
00F000
00F000
019800
030C00
000000
004000
00E000
00E000
00F000
017000
017000
023800
023800
023C00
041C00
041C00
080E00
0FFE00
100F00
100700
100780
200380
6003C0
F80FE0
000000
007000
007000
007000
ENDCHAR
STARTCHAR uni1EAD
ENCODING 7853
SWIDTH 543 0
DWIDTH 14 0
BBX 12 23 1 -4
BITMAP
0F00
0F00
1980
30C0
0000
3F00
7380
61C0
01C0
01C0
1FC0
79C0
61C0
E1C0
E1C0
E1C0
F3C0
7ED0
3C70
0000
0E00
0E00
0E00
ENDCHAR
STARTCHAR uni1EAE
ENCODING 7854
SWIDTH 744 0
DWIDTH 19 0
BBX 19 29 0 0
BITMAP
001C00
003000
006000
00C000
000000
020400
030C00
01F800
00F000
000000
004000
00E000
00E000
00F000
017000
017000
023800
023800
023C00
041C00
041C00
080E00
0FFE00
100F00
100700
100780
200380
6003C0
F80FE0
ENDCHAR
STARTCHAR uni1EAF
ENCODING 7855
SWIDTH 543 0
DWIDTH 14 0
BBX 12 24 1 0
BITMAP
01C0
0300
0600
0C00
0000
2040
30C0
1F80
0F00
0000
3F00
7380
61C0
01C0
01C0
1FC0
79C0
61C0
E1C0
E1C0
E1C0
F3C0
7ED0
3C70
ENDCHAR
STARTCHAR uni1EB0
ENCODING 7856
SWIDTH 744 0
DWIDTH 19 0
BBX 19 29 0 0
BITMAP
038000
00C000
006000
003000
000000
020400
030C00
01F800
00F000
000000
004000
00E000
00E000
00F000
017000
017000
023800
023800
023C00
041C00
041C00
080E00
0FFE00
100F00
100700
100780
200380
6003C0
F80FE0
ENDCHAR
STARTCHAR uni1EB1
ENCODING 7857
SWIDTH 543 0
DWIDTH 14 0
BBX 12 24 1 0
BITMAP
3800
0C00
0600
0300
0000
2040
30C0
1F80
0F00
0000
3F00
7380
61C0
01C0
01C0
1FC0
79C0
61C0
E1C0
E1C0
E1C0
F3C0
7ED0
3C70
ENDCHAR
STARTCHAR uni1EB4
ENCODING 7860
SWIDTH 744 0
DWIDTH 19 0
BBX 19 28 0 0
BITMAP
01C400
01F800
023800
000000
020400
030C00
01F800
00F000
000000
004000
00E000
00E000
00F000
017000
017000
023800
023800
023C00
041C00
041C00
080E00
0FFE00
100F00
100700
100780
200380
6003C0
F80FE0
ENDCHAR
STARTCHAR uni1EB5
ENCODING 7861
SWIDTH 543 0
DWIDTH 14 0
BBX 12 23 1 0
BITMAP
1C40
1F80
2380
0000
2040
30C0
1F80
0F00
0000
3F00
7380
61C0
01C0
01C0
1FC0
79C0
61C0
E1C0
E1C0
E1C0
F3C0
7ED0
3C70
ENDCHAR
STARTCHAR uni1EB6
ENCODING 7862
SWIDTH 744 0
DWIDTH 19 0
BBX 19 28 0 -4
BITMAP
020400
030C00
01F800
00F000
000000
004000
00E000
00E000
00F000
017000
017000
023800
023800
023C00
041C00
041C00
080E00
0FFE00
100F00
100700
100780
200380
6003C0
F80FE0
000000
007000
007000
007000
ENDCHAR
STARTCHAR uni1EB7
ENCODING 7863
SWIDTH 543 0
DWIDTH 14 0
BBX 12 23 1 -4
BITMAP
2040
30C0
1F80
0F00
0000
3F00
7380
61C0
01C0
01C0
1FC0
79C0
61C0
E1C0
E1C0
E1C0
F3C0
7ED0
3C70
0000
0E00
0E00
0E00
ENDCHAR
STARTCHAR uni1EB8
ENCODING 7864
SWIDTH 566 0
DWIDTH 15 0
BBX 14 23 0 -4
BITMAP
FFF8
3818
3818
3800
3800
3800
3800
3820
3820
3FE0
3820
3820
3800
3800
3800
3800
380C
381C
FFFC
0000
0700
0700
0700
ENDCHAR
STARTCHAR uni1EB9
ENCODING 7865
SWIDTH 530 0
DWIDTH 14 0
BBX 11 18 1 -4
BITMAP
0F00
31C0
70C0
60E0
E0E0
FFE0
E000
E000
E000
F000
7000
7820
3FE0
0F80
0000
0E00
0E00
0E00
ENDCHAR
STARTCHAR uni1EBC
ENCODING 7868
SWIDTH 566 0
DWIDTH 15 0
BBX 14 23 0 0
BITMAP
1C40
1F80
2380
0000
FFF8
3818
3818
3800
3800
3800
3800
3820
3820
3FE0
3820
3820
3800
3800
3800
3800
380C
381C
FFFC
ENDCHAR
STARTCHAR uni1EBD
ENCODING 7869
SWIDTH 530 0
DWIDTH 14 0
BBX 11 18 1 0
BITMAP
1C40
1F80
2380
0000
0F00
31C0
70C0
60E0
E0E0
FFE0
E000
E000
E000
F000
7000
7820
3FE0
0F80
ENDCHAR
STARTCHAR uni1EBE
ENCODING 7870
SWIDTH 566 0
DWIDTH 15 0
BBX 14 29 0 0
BITMAP
00E0
0180
0300
0600
0000
0780
0780
0CC0
1860
0000
FFF8
3818
3818
3800
3800
3800
3800
3820
3820
3FE0
3820
3820
3800
3800
3800
3800
380C
381C
FFFC
ENDCHAR
STARTCHAR uni1EBF
ENCODING 7871
SWIDTH 530 0
DWIDTH 14 0
BBX 11 24 1 0
BITMAP
01C0
0300
0600
0C00
0000
0F00
0F00
1980
30C0
0000
0F00
31C0
70C0
60E0
E0E0
FFE0
E000
E000
E000
F000
7000
7820
3FE0
0F80
ENDCHAR
STARTCHAR uni1EC0
ENCODING 7872
SWIDTH 566 0
DWIDTH 15 0
BBX 14 29 0 0
BITMAP
1C00
0600
0300
0180
0000
0780
0780
0CC0
1860
0000
FFF8
3818
3818
3800
3800
3800
3800
3820
3820
3FE0
3820
3820
3800
3800
3800
3800
380C
381C
FFFC
ENDCHAR
STARTCHAR uni1EC1
ENCODING 7873
SWIDTH 530 0
DWIDTH 14 0
BBX 11 24 1 0
BITMAP
3800
0C00
0600
0300
0000
0F00
0F00
1980
30C0
0000
0F00
31C0
70C0
60E0
E0E0
FFE0
E000
E000
E000
F000
7000
7820
3FE0
0F80
ENDCHAR
STARTCHAR uni1EC4
ENCODING 7876
SWIDTH 566 0
DWIDTH 15 0
BBX 14 28 0 0
BITMAP
0E20
0FC0
11C0
0000
0780
0780
0CC0
1860
0000
FFF8
3818
3818
3800
3800
3800
3800
3820
3820
3FE0
3820
3820
3800
3800
3800
3800
380C
381C
FFFC
ENDCHAR
STARTCHAR uni1EC5
ENCODING 7877
SWIDTH 530 0
DWIDTH 14 0
BBX 11 23 1 0
BITMAP
1C40
1F80
2380
0000
0F00
0F00
1980
30C0
0000
0F00
31C0
70C0
60E0
E0E0
FFE0
E000
E000
E000
F000
7000
7820
3FE0
0F80
ENDCHAR
STARTCHAR uni1EC6
ENCODING 7878
SWIDTH 566 0
DWIDTH 15 0
BBX 14 28 0 -4
BITMAP
0F00
0F00
1980
30C0
0000
FFF8
3818
3818
3800
3800
3800
3800
3820
3820
3FE0
3820
3820
3800
3800
3800
3800
380C
381C
FFFC
0000
0700
0700
0700
ENDCHAR
STARTCHAR uni1EC7
ENCODING 7879
SWIDTH 530 0
DWIDTH 14 0
BBX 11 23 1 -4
BITMAP
0F00
0F00
1980
30C0
0000
0F00
31C0
70C0
60E0
E0E0
FFE0
E000
E000
E000
F000
7000
7820
3FE0
0F80
0000
0E00
0E00
0E00
ENDCHAR
STARTCHAR uni1ECA
ENCODING 7882
SWIDTH 325 0
DWIDTH 8 0
BBX 7 23 1 -4
BITMAP
FE
3C
38
38
38
38
38
38
38
38
38
38
38
38
38
38
38
38
FE
00
38
38
38
ENDCHAR
STARTCHAR uni1ECB
ENCODING 7883
SWIDTH 307 0
DWIDTH 8 0
BBX 7 23 1 -4
BITMAP
38
38
38
00
00
F8
38
38
38
38
38
38
38
38
38
38
38
38
FE
00
38
38
38
ENDCHAR
STARTCHAR uni1ECC
ENCODING 7884
SWIDTH 777 0
DWIDTH 20 0
BBX 18 23 1 -4
BITMAP
03F000
0E1C00
380700
300300
700380
700380
E001C0
E001C0
E001C0
E001C0
E001C0
E001C0
E001C0
700380
700380
300300
180700
0E1C00
03F000
000000
00E000
00E000
00E000
ENDCHAR
STARTCHAR uni1ECD
ENCODING 7885
SWIDTH 602 0
DWIDTH 16 0
BBX 13 18 1 -4
BITMAP
0F80
38E0
7070
7070
E038
E038
E038
E038
E038
E038
7070
7070
38E0
0F80
0000
0700
0700
0700
ENDCHAR
STARTCHAR uni1ED0
ENCODING 7888
SWIDTH 777 0
DWIDTH 20 0
BBX 18 29 1 0
BITMAP
003800
006000
00C000
018000
000000
01E000
01E000
033000
061800
000000
03F000
0E1C00
380700
300300
700380
700380
E001C0
E001C0
E001C0
E001C0
E001C0
E001C0
E001C0
700380
700380
300300
180700
0E1C00
03F000
ENDCHAR
STARTCHAR uni1ED1
ENCODING 7889
SWIDTH 602 0
DWIDTH 16 0
BBX 13 24 1 0
BITMAP
01C0
0300
0600
0C00
0000
0F00
0F00
1980
30C0
0000
0F80
38E0
7070
7070
E038
E038
E038
E038
E038
E038
7070
7070
38E0
0F80
ENDCHAR
STARTCHAR uni1ED2
ENCODING 7890
SWIDTH 777 0
DWIDTH 20 0
BBX 18 29 1 0
BITMAP
070000
018000
00C000
006000
000000
01E000
01E000
033000
061800
000000
03F000
0E1C00
380700
300300
700380
700380
E001C0
E001C0
E001C0
E001C0
E001C0
E001C0
E001C0
700380
700380
300300
180700
0E1C00
03F000
ENDCHAR
STARTCHAR uni1ED3
ENCODING 7891
SWIDTH 602 0
DWIDTH 16 0
BBX 13 24 1 0
BITMAP
3800
0C00
0600
0300
0000
0F00
0F00
1980
30C0
0000
0F80
38E0
7070
7070
E038
E038
E038
E038
E038
E038
7070
7070
38E0
0F80
ENDCHAR
STARTCHAR uni1ED6
ENCODING 7894
SWIDTH 777 0
DWIDTH 20 0
BBX 18 28 1 0
BITMAP
038800
03F000
047000
000000
01E000
01E000
033000
061800
000000
03F000
0E1C00
380700
300300
700380
700380
E001C0
E001C0
E001C0
E001C0
E001C0
E001C0
E001C0
700380
700380
300300
180700
0E1C00
03F000
ENDCHAR
STARTCHAR uni1ED7
ENCODING 7895
SWIDTH 602 0
DWIDTH 16 0
BBX 13 23 1 0
BITMAP
1C40
1F80
2380
0000
0F00
0F00
1980
30C0
0000
0F80
38E0
7070
7070
E038
E038
E038
E038
E038
E038
7070
7070
38E0
0F80
ENDCHAR
STARTCHAR uni1ED8
ENCODING 7896
SWIDTH 777 0
DWIDTH 20 0
BBX 18 28 1 -4
BITMAP
01E000
01E000
033000
061800
000000
03F000
0E1C00
380700
300300
700380
700380
E001C0
E001C0
E001C0
E001C0
E001C0
E001C0
E001C0
700380
700380
300300
180700
0E1C00
03F000
000000
00E000
00E000
00E000
ENDCHAR
STARTCHAR uni1ED9
ENCODING 7897
SWIDTH 602 0
DWIDTH 16 0
BBX 13 23 1 -4
BITMAP
0780
0780
0CC0
1860
0000
0F80
38E0
7070
7070
E038
E038
E038
E038
E038
E038
7070
7070
38E0
0F80
0000
0700
0700
0700
ENDCHAR
STARTCHAR uni1EDA
ENCODING 7898
SWIDTH 777 0
DWIDTH 20 0
BBX 19 24 1 0
BITMAP
000E00
001800
003000
006000
000000
03F0E0
0E1CE0
380760
300360
7003E0
7003C0
E001C0
E001C0
E001C0
E001C0
E001C0
E001C0
E001C0
700380
700380
300300
180700
0E1C00
03F000
ENDCHAR
STARTCHAR uni1EDB
ENCODING 7899
SWIDTH 602 0
DWIDTH 16 0
BBX 15 19 1 0
BITMAP
0070
00C0
0180
0300
0000
0F8E
38EE
7076
7076
E03E
E03C
E038
E038
E038
E038
7070
7070
38E0
0F80
ENDCHAR
STARTCHAR uni1EDC
ENCODING 7900
SWIDTH 777 0
DWIDTH 20 0
BBX 19 24 1 0
BITMAP
01C000
006000
003000
001800
000000
03F0E0
0E1CE0
380760
300360
7003E0
7003C0
E001C0
E001C0
E001C0
E001C0
E001C0
E001C0
E001C0
700380
700380
300300
180700
0E1C00
03F000
ENDCHAR
STARTCHAR uni1EDD
ENCODING 7901
SWIDTH 602 0
DWIDTH 16 0
BBX 15 19 1 0
BITMAP
0E00
0300
0180
00C0
0000
0F8E
38EE
7076
7076
E03E
E03C
E038
E038
E038
E038
7070
7070
38E0
0F80
ENDCHAR
STARTCHAR uni1EE0
ENCODING 7904
SWIDTH 777 0
DWIDTH 20 0
BBX 19 23 1 0
BITMAP
00E200
00FC00
011C00
000000
03F0E0
0E1CE0
380760
300360
7003E0
7003C0
E001C0
E001C0
E001C0
E001C0
E001C0
E001C0
E001C0
700380
700380
300300
180700
0E1C00
03F000
ENDCHAR
STARTCHAR uni1EE1
ENCODING 7905
SWIDTH 602 0
DWIDTH 16 0
BBX 15 18 1 0
BITMAP
0710
07E0
08E0
0000
0F8E
38EE
7076
7076
E03E
E03C
E038
E038
E038
E038
7070
7070
38E0
0F80
ENDCHAR
STARTCHAR uni1EE2
ENCODING 7906
SWIDTH 777 0
DWIDTH 20 0
BBX 19 23 1 -4
BITMAP
03F0E0
0E1CE0
380760
300360
7003E0
7003C0
E001C0
E001C0
E001C0
E001C0
E001C0
E001C0
E001C0
700380
700380
300300
180700
0E1C00
03F000
000000
00E000
00E000
00E000
ENDCHAR
STARTCHAR uni1EE3
ENCODING 7907
SWIDTH 602 0
DWIDTH 16 0
BBX 15 18 1 -4
BITMAP
0F8E
38EE
7076
7076
E03E
E03C
E038
E038
E038
E038
7070
7070
38E0
0F80
0000
0700
0700
0700
ENDCHAR
STARTCHAR uni1EE4
ENCODING 7908
SWIDTH 719 0
DWIDTH 19 0
BBX 18 23 0 -4
BITMAP
FE0FC0
380300
380300
380300
380300
380300
380300
380300
380300
380300
380300
380300
380300
380300
380300
180200
1C0600
0E0C00
03F000
000000
01C000
01C000
01C000
ENDCHAR
STARTCHAR uni1EE5
ENCODING 7909
SWIDTH 633 0
DWIDTH 16 0
BBX 15 18 0 -4
BITMAP
F8F8
3838
3838
3838
3838
3838
3838
3838
3838
3838
3838
38F8
1FBC
0E3E
0000
01C0
01C0
01C0
ENDCHAR
STARTCHAR uni1EE8
ENCODING 7912
SWIDTH 719 0
DWIDTH 19 0
BBX 19 24 0 0
BITMAP
001C00
003000
006000
00C000
000000
FE0FE0
3803E0
380360
380360
380360
3803C0
380380
380300
380300
380300
380300
380300
380300
380300
380300
180200
1C0600
0E0C00
03F000
ENDCHAR
STARTCHAR uni1EE9
ENCODING 7913
SWIDTH 633 0
DWIDTH 16 0
BBX 17 19 0 0
BITMAP
003800
006000
00C000
018000
000000
F8FB80
383B80
383980
383980
383980
383B00
383A00
383800
383800
383800
383800
38F800
1FBC00
0E3E00
ENDCHAR
STARTCHAR uni1EEA
ENCODING 7914
SWIDTH 719 0
DWIDTH 19 0
BBX 19 24 0 0
BITMAP
038000
00C000
006000
003000
000000
FE0FE0
3803E0
380360
380360
380360
3803C0
380380
380300
380300
380300
380300
380300
380300
380300
380300
180200
1C0600
0E0C00
03F000
ENDCHAR
STARTCHAR uni1EEB
ENCODING 7915
SWIDTH 633 0
DWIDTH 16 0
BBX 17 19 0 0
BITMAP
070000
018000
00C000
006000
000000
F8FB80
383B80
383980
383980
383980
383B00
383A00
383800
383800
383800
383800
38F800
1FBC00
0E3E00
ENDCHAR
STARTCHAR uni1EEE
ENCODING 7918
SWIDTH 719 0
DWIDTH 19 0
BBX 19 23 0 0
BITMAP
01C400
01F800
023800
000000
FE0FE0
3803E0
380360
380360
380360
3803C0
380380
380300
380300
380300
380300
380300
380300
380300
380300
180200
1C0600
0E0C00
03F000
ENDCHAR
STARTCHAR uni1EEF
ENCODING 7919
SWIDTH 633 0
DWIDTH 16 0
BBX 17 18 0 0
BITMAP
038800
03F000
047000
000000
F8FB80
383B80
383980
383980
383980
383B00
383A00
383800
383800
383800
383800
38F800
1FBC00
0E3E00
ENDCHAR
STARTCHAR uni1EF0
ENCODING 7920
SWIDTH 719 0
DWIDTH 19 0
BBX 19 23 0 -4
BITMAP
FE0FE0
3803E0
380360
380360
380360
3803C0
380380
380300
380300
380300
380300
380300
380300
380300
380300
180200
1C0600
0E0C00
03F000
000000
01C000
01C000
01C000
ENDCHAR
STARTCHAR uni1EF1
ENCODING 7921
SWIDTH 633 0
DWIDTH 16 0
BBX 17 18 0 -4
BITMAP
F8FB80
383B80
383980
383980
383980
383B00
383A00
383800
383800
383800
383800
38F800
1FBC00
0E3E00
000000
01C000
01C000
01C000
ENDCHAR
STARTCHAR Ygrave
ENCODING 7922
SWIDTH 678 0
DWIDTH 18 0
BBX 18 24 0 0
BITMAP
0E0000
030000
018000
00C000
000000
FE07C0
780100
380200
1C0200
1E0400
0E0800
0F0800
079000
03A000
03E000
01C000
01C000
01C000
01C000
01C000
01C000
01C000
01C000
07F000
ENDCHAR
STARTCHAR ygrave
ENCODING 7923
SWIDTH 551 0
DWIDTH 14 0
BBX 14 24 0 -5
BITMAP
3800
0C00
0600
0300
0000
FC3C
7008
7818
3810
3C10
1C20
1C20
0E40
0E40
0FC0
0780
0780
0300
0300
0200
0600
0C00
1C00
3C00
ENDCHAR
STARTCHAR uni1EF4
ENCODING 7924
SWIDTH 678 0
DWIDTH 18 0
BBX 18 23 0 -4
BITMAP
FE07C0
780100
380200
1C0200
1E0400
0E0800
0F0800
079000
03A000
03E000
01C000
01C000
01C000
01C000
01C000
01C000
01C000
01C000
07F000
000000
01C000
01C000
01C000
ENDCHAR
STARTCHAR uni1EF5
ENCODING 7925
SWIDTH 551 0
DWIDTH 14 0
BBX 14 23 0 -9
BITMAP
FC3C
7008
7818
3810
3C10
1C20
1C20
0E40
0E40
0FC0
0780
0780
0300
0300
0200
0600
0C00
1C00
3C00
0000
0E00
0E00
0E00
ENDCHAR
STARTCHAR uni1EF8
ENCODING 7928
SWIDTH 678 0
DWIDTH 18 0
BBX 18 23 0 0
BITMAP
071000
07E000
08E000
000000
FE07C0
780100
380200
1C0200
1E0400
0E0800
0F0800
079000
03A000
03E000
01C000
01C000
01C000
01C000
01C000
01C000
01C000
01C000
07F000
ENDCHAR
STARTCHAR uni1EF9
ENCODING 7929
SWIDTH 551 0
DWIDTH 14 0
BBX 14 23 0 -5
BITMAP
1C40
1F80
2380
0000
FC3C
7008
7818
3810
3C10
1C20
1C20
0E40
0E40
0FC0
0780
0780
0300
0300
0200
0600
0C00
1C00
3C00
ENDCHAR
STARTCHAR uni2000
ENCODING 8192
SWIDTH 500 0
DWIDTH 13 0
BBX 1 1 0 0
BITMAP
00
ENDCHAR
STARTCHAR uni2001
ENCODING 8193
SWIDTH 1000 0
DWIDTH 26 0
BBX 1 1 0 0
BITMAP
00
ENDCHAR
STARTCHAR uni2002
ENCODING 8194
SWIDTH 500 0
DWIDTH 13 0
BBX 1 1 0 0
BITMAP
00
ENDCHAR
STARTCHAR uni2003
ENCODING 8195
SWIDTH 1000 0
DWIDTH 26 0
BBX 1 1 0 0
BITMAP
00
ENDCHAR
STARTCHAR uni2004
ENCODING 8196
SWIDTH 333 0
DWIDTH 9 0
BBX 1 1 0 0
BITMAP
00
ENDCHAR
STARTCHAR uni2005
ENCODING 8197
SWIDTH 250 0
DWIDTH 7 0
BBX 1 1 0 0
BITMAP
00
ENDCHAR
STARTCHAR uni2006
ENCODING 8198
SWIDTH 167 0
DWIDTH 4 0
BBX 1 1 0 0
BITMAP
00
ENDCHAR
STARTCHAR uni2007
ENCODING 8199
SWIDTH 608 0
DWIDTH 16 0
BBX 1 1 0 0
BITMAP
00
ENDCHAR
STARTCHAR uni2008
ENCODING 8200
SWIDTH 265 0
DWIDTH 7 0
BBX 1 1 0 0
BITMAP
00
ENDCHAR
STARTCHAR uni2009
ENCODING 8201
SWIDTH 200 0
DWIDTH 5 0
BBX 1 1 0 0
BITMAP
00
ENDCHAR
STARTCHAR uni200A
ENCODING 8202
SWIDTH 100 0
DWIDTH 3 0
BBX 1 1 0 0
BITMAP
00
ENDCHAR
STARTCHAR uni200B
ENCODING 8203
SWIDTH 0 0
DWIDTH 0 0
BBX 1 1 0 0
BITMAP
00
ENDCHAR
STARTCHAR uni2010
ENCODING 8208
SWIDTH 325 0
DWIDTH 8 0
BBX 6 2 1 7
BITMAP
FC
FC
ENDCHAR
STARTCHAR uni2011
ENCODING 8209
SWIDTH 325 0
DWIDTH 8 0
BBX 6 2 1 7
BITMAP
FC
FC
ENDCHAR
STARTCHAR figuredash
ENCODING 8210
SWIDTH 500 0
DWIDTH 13 0
BBX 10 2 2 7
BITMAP
FFC0
FFC0
ENDCHAR
STARTCHAR endash
ENCODING 8211
SWIDTH 500 0
DWIDTH 13 0
BBX 10 2 2 7
BITMAP
FFC0
FFC0
ENDCHAR
STARTCHAR emdash
ENCODING 8212
SWIDTH 1000 0
DWIDTH 26 0
BBX 23 2 2 7
BITMAP
FFFFFE
FFFFFE
ENDCHAR
STARTCHAR afii00208
ENCODING 8213
SWIDTH 1000 0
DWIDTH 26 0
BBX 23 2 2 7
BITMAP
FFFFFE
FFFFFE
ENDCHAR
STARTCHAR quoteleft
ENCODING 8216
SWIDTH 265 0
DWIDTH 7 0
BBX 3 7 2 12
BITMAP
60
C0
C0
C0
E0
E0
E0
ENDCHAR
STARTCHAR quoteright
ENCODING 8217
SWIDTH 265 0
DWIDTH 7 0
BBX 3 7 2 12
BITMAP
E0
E0
60
60
60
C0
80
ENDCHAR
STARTCHAR quotesinglbase
ENCODING 8218
SWIDTH 265 0
DWIDTH 7 0
BBX 3 9 2 -5
BITMAP
E0
E0
E0
E0
60
60
60
40
C0
ENDCHAR
STARTCHAR quotereversed
ENCODING 8219
SWIDTH 265 0
DWIDTH 7 0
BBX 3 7 2 12
BITMAP
E0
E0
C0
C0
C0
60
20
ENDCHAR
STARTCHAR quotedblleft
ENCODING 8220
SWIDTH 458 0
DWIDTH 12 0
BBX 8 7 2 12
BITMAP
63
C6
C6
C6
E7
E7
E7
ENDCHAR
STARTCHAR quotedblright
ENCODING 8221
SWIDTH 458 0
DWIDTH 12 0
BBX 8 7 2 12
BITMAP
E7
E7
E7
63
63
C6
84
ENDCHAR
STARTCHAR quotedblbase
ENCODING 8222
SWIDTH 458 0
DWIDTH 12 0
BBX 8 9 2 -5
BITMAP
E7
E7
E7
63
63
63
63
42
C6
ENDCHAR
STARTCHAR uni201F
ENCODING 8223
SWIDTH 458 0
DWIDTH 12 0
BBX 8 7 2 12
BITMAP
E7
E7
E7
C6
C6
63
21
ENDCHAR
STARTCHAR dagger
ENCODING 8224
SWIDTH 608 0
DWIDTH 16 0
BBX 12 23 2 -4
BITMAP
0E00
0E00
0E00
0E00
0600
0600
E670
FFF0
0600
0600
0600
0600
0600
0600
0600
0E00
0E00
0E00
0E00
0E00
0E00
0E00
0E00
ENDCHAR
STARTCHAR daggerdbl
ENCODING 8225
SWIDTH 608 0
DWIDTH 16 0
BBX 12 23 2 -4
BITMAP
0E00
0E00
0E00
0E00
0600
0600
E670
FFF0
0600
0600
0600
0600
0600
0600
0600
FFF0
E670
0600
0600
0E00
0E00
0E00
0E00
ENDCHAR
STARTCHAR bullet
ENCODING 8226
SWIDTH 608 0
DWIDTH 16 0
BBX 8 8 4 4
BITMAP
3C
7E
FF
FF
FF
FF
7E
3C
ENDCHAR
STARTCHAR ellipsis
ENCODING 8230
SWIDTH 1000 0
DWIDTH 26 0
BBX 17 3 5 0
BITMAP
E1C380
E1C380
E1C380
ENDCHAR
STARTCHAR perthousand
ENCODING 8240
SWIDTH 1024 0
DWIDTH 27 0
BBX 26 19 0 0
BITMAP
3C038000
66030000
C3060000
C30E0000
C31C0000
C3380000
C3300000
66600000
3CE00000
01DE0F00
03B31980
0361B0C0
0661B0C0
0E61B0C0
1C61B0C0
3861B0C0
3061B0C0
60331980
E01E0F00
ENDCHAR
STARTCHAR guilsinglleft
ENCODING 8249
SWIDTH 339 0
DWIDTH 9 0
BBX 6 12 1 1
BITMAP
04
08
18
30
60
E0
E0
70
30
18
0C
04
ENDCHAR
STARTCHAR guilsinglright
ENCODING 8250
SWIDTH 339 0
DWIDTH 9 0
BBX 6 12 2 1
BITMAP
80
C0
60
70
38
1C
1C
38
30
60
40
80
ENDCHAR
STARTCHAR fraction
ENCODING 8260
SWIDTH 36 0
DWIDTH 1 0
BBX 16 19 -7 0
BITMAP
0007
0006
000E
001C
0038
0030
0070
00E0
01C0
0180
0380
0700
0E00
0C00
1C00
3800
7000
6000
E000
ENDCHAR
STARTCHAR oneinferior
ENCODING 8321
SWIDTH 365 0
DWIDTH 9 0
BBX 5 11 -17 -6
BITMAP
E0
20
20
20
20
20
20
20
20
20
F8
ENDCHAR
STARTCHAR twoinferior
ENCODING 8322
SWIDTH 365 0
DWIDTH 9 0
BBX 7 11 -16 -6
BITMAP
78
86
82
02
06
0C
18
20
40
80
FE
ENDCHAR
STARTCHAR threeinferior
ENCODING 8323
SWIDTH 365 0
DWIDTH 9 0
BBX 7 11 -16 -6
BITMAP
FC
86
82
02
04
7C
06
02
82
C6
F8
ENDCHAR
STARTCHAR uni20A5
ENCODING 8357
SWIDTH 946 0
DWIDTH 25 0
BBX 23 23 1 -4
BITMAP
0000C0
0001C0
000180
000380
000300
F9F7E0
7BF7F0
3E7E78
3C3C38
383C38
383838
383838
383838
387838
387838
38F838
38F838
39F838
FFFEFE
038000
030000
070000
060000
ENDCHAR
STARTCHAR uni20A6
ENCODING 8358
SWIDTH 751 0
DWIDTH 20 0
BBX 18 19 1 0
BITMAP
F807C0
3C0100
3C0100
3E0100
3F0100
378100
3FFF80
3FFF80
31E100
30F100
307100
3FFF80
3FFF80
301F00
300F00
300F00
300700
300300
FC0300
ENDCHAR
STARTCHAR uni20A9
ENCODING 8361
SWIDTH 925 0
DWIDTH 24 0
BBX 24 19 0 0
BITMAP
FE081F
781C04
381C04
381C08
381C08
1C2E08
1FFFF8
1FFFF0
1C4710
0E4710
0E4720
0FFFF0
0FFFF0
0783A0
0783C0
0701C0
0301C0
030180
020080
ENDCHAR
STARTCHAR Euro
ENCODING 8364
SWIDTH 695 0
DWIDTH 18 0
BBX 19 19 -3 0
BITMAP
003F80
00E1E0
038060
030060
070060
060000
FFFE00
FFFE00
0E0000
0E0000
0E0000
FFFE00
FFFE00
070000
078000
03C000
01E020
00FFE0
003F80
ENDCHAR
STARTCHAR uni20AD
ENCODING 8365
SWIDTH 708 0
DWIDTH 18 0
BBX 18 19 0 0
BITMAP
FE1F00
380E00
380800
381000
382000
384000
388000
390000
FFFFC0
FFFFC0
3BC000
3BE000
39E000
38F000
387800
383C00
381E00
380F00
FE3FC0
ENDCHAR
STARTCHAR uni2103
ENCODING 8451
SWIDTH 941 0
DWIDTH 25 0
BBX 22 19 1 0
BITMAP
6007F0
901C3C
90700C
60600C
00E00C
00C000
01C000
01C000
01C000
01C000
01C000
01C000
01E000
00E000
00F000
007800
003C04
001FFC
0007F0
ENDCHAR
STARTCHAR uni2109
ENCODING 8457
SWIDTH 794 0
DWIDTH 21 0
BBX 19 19 1 0
BITMAP
61FFE0
907060
907060
607000
007000
007000
007000
007080
007080
007F80
007080
007080
007000
007000
007000
007000
007000
007000
01FC00
ENDCHAR
STARTCHAR trademark
ENCODING 8482
SWIDTH 904 0
DWIDTH 23 0
BBX 21 10 1 9
BITMAP
FF7C78
993CE0
993EE0
183EE0
183F60
183F60
183760
183660
183660
3C7078
ENDCHAR
STARTCHAR uni212A
ENCODING 8490
SWIDTH 708 0
DWIDTH 18 0
BBX 18 19 0 0
BITMAP
FE1F00
380E00
380800
381000
382000
384000
388000
390000
3B0000
3F8000
3BC000
3BE000
39E000
38F000
387800
383C00
381E00
380F00
FE3FC0
ENDCHAR
STARTCHAR uni212B
ENCODING 8491
SWIDTH 744 0
DWIDTH 19 0
BBX 19 24 0 0
BITMAP
006000
009000
009000
006000
000000
004000
00E000
00E000
00F000
017000
017000
023800
023800
023C00
041C00
041C00
080E00
0FFE00
100F00
100700
100780
200380
6003C0
F80FE0
ENDCHAR
STARTCHAR uni2132
ENCODING 8498
SWIDTH 548 0
DWIDTH 14 0
BBX 12 19 1 0
BITMAP
07F0
01C0
01C0
01C0
01C0
01C0
01C0
21C0
21C0
3FC0
21C0
21C0
01C0
01C0
01C0
01C0
C1C0
C1C0
FFF0
ENDCHAR
STARTCHAR universal
ENCODING 8704
SWIDTH 744 0
DWIDTH 19 0
BBX 19 19 0 0
BITMAP
F80FE0
6003C0
200380
100780
100700
100F00
0FFE00
080E00
041C00
041C00
023C00
023800
023800
017000
017000
00F000
00E000
00E000
004000
ENDCHAR
STARTCHAR existential
ENCODING 8707
SWIDTH 566 0
DWIDTH 15 0
BBX 14 19 0 0
BITMAP
7FFC
6070
6070
0070
0070
0070
0070
1070
1070
1FF0
1070
1070
0070
0070
0070
0070
C070
E070
FFFC
ENDCHAR
STARTCHAR uni2204
ENCODING 8708
SWIDTH 566 0
DWIDTH 15 0
BBX 14 23 0 -2
BITMAP
000C
001C
7FFC
6078
6070
0070
0070
00F0
00F0
11F0
11F0
1FF0
1370
1770
0670
0E70
0C70
1C70
D870
F870
FFFC
7000
6000
ENDCHAR
STARTCHAR minus
ENCODING 8722
SWIDTH 608 0
DWIDTH 16 0
BBX 15 2 0 7
BITMAP
FFFE
FFFE
ENDCHAR
STARTCHAR fraction
ENCODING 8725
SWIDTH 36 0
DWIDTH 1 0
BBX 16 19 -7 0
BITMAP
0007
0006
000E
001C
0038
0030
0070
00E0
01C0
0180
0380
0700
0E00
0C00
1C00
3800
7000
6000
E000
ENDCHAR
STARTCHAR periodcentered
ENCODING 8729
SWIDTH 608 0
DWIDTH 16 0
BBX 3 3 6 7
BITMAP
E0
E0
E0
ENDCHAR
STARTCHAR uni2236
ENCODING 8758
SWIDTH 265 0
DWIDTH 7 0
BBX 3 14 2 0
BITMAP
E0
E0
E0
00
00
00
00
00
00
00
00
E0
E0
E0
ENDCHAR
STARTCHAR uni2259
ENCODING 8793
SWIDTH 608 0
DWIDTH 16 0
BBX 15 12 0 4
BITMAP
03C0
03C0
0660
0C30
0000
FFFE
FFFE
0000
0000
0000
FFFE
FFFE
ENDCHAR
STARTCHAR uni225A
ENCODING 8794
SWIDTH 608 0
DWIDTH 16 0
BBX 15 12 0 4
BITMAP
0C30
0660
03C0
03C0
0000
FFFE
FFFE
0000
0000
0000
FFFE
FFFE
ENDCHAR
STARTCHAR notequal
ENCODING 8800
SWIDTH 608 0
DWIDTH 16 0
BBX 15 23 0 -4
BITMAP
000C
001C
0018
0038
0030
0070
0060
00E0
FFFE
FFFE
0180
0380
0300
FFFE
FFFE
0E00
0C00
1C00
1800
3800
3000
7000
6000
ENDCHAR
STARTCHAR equivalence
ENCODING 8801
SWIDTH 608 0
DWIDTH 16 0
BBX 15 8 0 4
BITMAP
FFFE
FFFE
0000
FFFE
FFFE
0000
FFFE
FFFE
ENDCHAR
STARTCHAR uni2262
ENCODING 8802
SWIDTH 608 0
DWIDTH 16 0
BBX 15 23 0 -3
BITMAP
000C
001C
0018
0038
0030
0070
0060
00E0
FFFE
FFFE
0180
FFFE
FFFE
0700
FFFE
FFFE
0C00
1C00
1800
3800
3000
7000
6000
ENDCHAR
STARTCHAR lessequal
ENCODING 8804
SWIDTH 608 0
DWIDTH 16 0
BBX 16 19 1 -3
BITMAP
0003
0007
001E
0078
01E0
0780
1E00
FC00
7C00
1E00
0780
01E0
0078
001E
0007
0003
0000
FFFF
FFFF
ENDCHAR
STARTCHAR greaterequal
ENCODING 8805
SWIDTH 608 0
DWIDTH 16 0
BBX 16 19 0 -3
BITMAP
C000
E000
7800
1E00
0780
01E0
0078
003E
003F
0078
01E0
0780
1E00
7800
E000
C000
0000
FFFF
FFFF
ENDCHAR
STARTCHAR uni226E
ENCODING 8814
SWIDTH 608 0
DWIDTH 16 0
BBX 16 23 1 -3
BITMAP
0006
000E
000C
001C
001B
003F
003E
0078
01E0
07E0
1EC0
FDC0
7D80
1F80
0780
07E0
0678
0E1E
0C07
1C03
1800
3800
3000
ENDCHAR
STARTCHAR uni226F
ENCODING 8815
SWIDTH 608 0
DWIDTH 16 0
BBX 16 23 0 -3
BITMAP
0006
000E
000C
001C
C018
E038
7830
1E70
07E0
01E0
00F8
01FE
01BF
03F8
03E0
0780
1E00
7E00
EC00
DC00
1800
3800
3000
ENDCHAR
STARTCHAR uni2270
ENCODING 8816
SWIDTH 608 0
DWIDTH 16 0
BBX 16 23 1 -5
BITMAP
0006
000E
000F
001F
001E
0078
01F0
07F0
1E60
FCE0
7CC0
1FC0
0780
03E0
0378
071E
0607
0E03
0C00
FFFF
FFFF
3800
3000
ENDCHAR
STARTCHAR uni2271
ENCODING 8817
SWIDTH 608 0
DWIDTH 16 0
BBX 16 23 0 -5
BITMAP
0006
000E
C00C
E01C
7818
1E38
07B0
01F0
0078
00FE
00FF
01F8
01E0
0780
1F00
7F00
E600
CE00
0C00
FFFF
FFFF
3800
3000
ENDCHAR
STARTCHAR fi
ENCODING -1
SWIDTH 657 0
DWIDTH 17 0
BBX 15 20 1 0
BITMAP
0F00
19B8
39B8
39B8
3800
3800
FFF8
3838
3838
3838
3838
3838
3838
3838
3838
3838
3838
3838
3838
FCFE
ENDCHAR
STARTCHAR fl
ENCODING -1
SWIDTH 663 0
DWIDTH 17 0
BBX 15 20 1 0
BITMAP
0FF8
1878
3838
3838
3838
3838
FE38
3838
3838
3838
3838
3838
3838
3838
3838
3838
3838
3838
3838
FEFE
ENDCHAR
ENDFONT
